<?xml version="1.0" encoding="UTF-8" standalone="no"?>
<!DOCTYPE svg PUBLIC "-//W3C//DTD SVG 1.1//EN"
 "http://www.w3.org/Graphics/SVG/1.1/DTD/svg11.dtd">
<!-- Generated by graphviz version 2.43.0 (0)
 -->
<!-- Title: %3 Pages: 1 -->
<svg width="2102pt" height="645pt"
 viewBox="0.00 0.00 2102.00 645.00" xmlns="http://www.w3.org/2000/svg" xmlns:xlink="http://www.w3.org/1999/xlink">
<g id="graph0" class="graph" transform="scale(1 1) rotate(0) translate(4 641)">
<title>%3</title>
<polygon fill="#b2dcff" stroke="transparent" points="-4,4 -4,-641 2098,-641 2098,4 -4,4"/>
<g id="clust1" class="cluster">
<title>cluster_node_array_sort</title>
<polygon fill="#b2dcff" stroke="#b2dcff" points="55.5,-8 55.5,-234 2086,-234 2086,-8 55.5,-8"/>
<text text-anchor="middle" x="1070.75" y="-214" font-family="Helvetica,sans-Serif" font-size="20.00">Node array sort</text>
</g>
<g id="clust2" class="cluster">
<title>cluster_node_0_sort</title>
<polygon fill="#b2dcff" stroke="#b2dcff" points="63.5,-64 63.5,-196 296.5,-196 296.5,-64 63.5,-64"/>
<text text-anchor="middle" x="180" y="-180.8" font-family="Helvetica,sans-Serif" font-size="14.00">0</text>
</g>
<g id="clust3" class="cluster">
<title>cluster_node_1_sort</title>
<polygon fill="#b2dcff" stroke="#b2dcff" points="400.5,-16 400.5,-148 632.5,-148 632.5,-16 400.5,-16"/>
<text text-anchor="middle" x="516.5" y="-132.8" font-family="Helvetica,sans-Serif" font-size="14.00">1</text>
</g>
<g id="clust4" class="cluster">
<title>cluster_node_2_sort</title>
<polygon fill="#b2dcff" stroke="#b2dcff" points="689,-16 689,-148 922,-148 922,-16 689,-16"/>
<text text-anchor="middle" x="805.5" y="-132.8" font-family="Helvetica,sans-Serif" font-size="14.00">2</text>
</g>
<g id="clust5" class="cluster">
<title>cluster_node_3_sort</title>
<polygon fill="#b2dcff" stroke="#b2dcff" points="978,-16 978,-148 1211,-148 1211,-16 978,-16"/>
<text text-anchor="middle" x="1094.5" y="-132.8" font-family="Helvetica,sans-Serif" font-size="14.00">3</text>
</g>
<g id="clust6" class="cluster">
<title>cluster_node_4_sort</title>
<polygon fill="#b2dcff" stroke="#b2dcff" points="1267,-16 1267,-148 1500,-148 1500,-16 1267,-16"/>
<text text-anchor="middle" x="1383.5" y="-132.8" font-family="Helvetica,sans-Serif" font-size="14.00">4</text>
</g>
<g id="clust7" class="cluster">
<title>cluster_node_5_sort</title>
<polygon fill="#b2dcff" stroke="#b2dcff" points="1556.5,-16 1556.5,-148 1788.5,-148 1788.5,-16 1556.5,-16"/>
<text text-anchor="middle" x="1672.5" y="-132.8" font-family="Helvetica,sans-Serif" font-size="14.00">5</text>
</g>
<g id="clust8" class="cluster">
<title>cluster_node_6_sort</title>
<polygon fill="#b2dcff" stroke="#b2dcff" points="1845,-64 1845,-196 2078,-196 2078,-64 1845,-64"/>
<text text-anchor="middle" x="1961.5" y="-180.8" font-family="Helvetica,sans-Serif" font-size="14.00">6</text>
</g>
<g id="clust9" class="cluster">
<title>cluster_node_array_unsort</title>
<polygon fill="#b2dcff" stroke="#b2dcff" points="56,-242 56,-443 2086,-443 2086,-242 56,-242"/>
<text text-anchor="middle" x="1071" y="-423" font-family="Helvetica,sans-Serif" font-size="20.00">Node array</text>
</g>
<g id="clust10" class="cluster">
<title>cluster_node_0_unsort</title>
<polygon fill="#b2dcff" stroke="#b2dcff" points="64,-250 64,-405 296,-405 296,-250 64,-250"/>
<text text-anchor="middle" x="180" y="-389.8" font-family="Helvetica,sans-Serif" font-size="14.00">1</text>
</g>
<g id="clust11" class="cluster">
<title>cluster_node_1_unsort</title>
<polygon fill="#b2dcff" stroke="#b2dcff" points="400,-250 400,-405 633,-405 633,-250 400,-250"/>
<text text-anchor="middle" x="516.5" y="-389.8" font-family="Helvetica,sans-Serif" font-size="14.00">2</text>
</g>
<g id="clust12" class="cluster">
<title>cluster_node_2_unsort</title>
<polygon fill="#b2dcff" stroke="#b2dcff" points="689,-250 689,-405 922,-405 922,-250 689,-250"/>
<text text-anchor="middle" x="805.5" y="-389.8" font-family="Helvetica,sans-Serif" font-size="14.00">3</text>
</g>
<g id="clust13" class="cluster">
<title>cluster_node_3_unsort</title>
<polygon fill="#b2dcff" stroke="#b2dcff" points="978.5,-250 978.5,-405 1210.5,-405 1210.5,-250 978.5,-250"/>
<text text-anchor="middle" x="1094.5" y="-389.8" font-family="Helvetica,sans-Serif" font-size="14.00">5</text>
</g>
<g id="clust14" class="cluster">
<title>cluster_node_4_unsort</title>
<polygon fill="#b2dcff" stroke="#b2dcff" points="1267,-250 1267,-405 1500,-405 1500,-250 1267,-250"/>
<text text-anchor="middle" x="1383.5" y="-389.8" font-family="Helvetica,sans-Serif" font-size="14.00">6</text>
</g>
<g id="clust15" class="cluster">
<title>cluster_node_5_unsort</title>
<polygon fill="#b2dcff" stroke="#b2dcff" points="1556,-250 1556,-405 1789,-405 1789,-250 1556,-250"/>
<text text-anchor="middle" x="1672.5" y="-389.8" font-family="Helvetica,sans-Serif" font-size="14.00">4</text>
</g>
<g id="clust16" class="cluster">
<title>cluster_node_6_unsort</title>
<polygon fill="#b2dcff" stroke="#b2dcff" points="1845,-250 1845,-405 2078,-405 2078,-250 1845,-250"/>
<text text-anchor="middle" x="1961.5" y="-389.8" font-family="Helvetica,sans-Serif" font-size="14.00">0</text>
</g>
<g id="clust17" class="cluster">
<title>cluster_struct_list</title>
<polygon fill="#b2dcff" stroke="#b2dcff" points="8,-451 8,-629 1219,-629 1219,-451 8,-451"/>
<text text-anchor="middle" x="613.5" y="-609" font-family="Helvetica,sans-Serif" font-size="20.00">Struct List &#160;&#160;#1</text>
</g>
<g id="clust18" class="cluster">
<title>cluster_node_list_data</title>
<polygon fill="#b2dcff" stroke="#b2dcff" points="16,-462 16,-587 344,-587 344,-462 16,-462"/>
<text text-anchor="middle" x="180" y="-571.8" font-family="Helvetica,sans-Serif" font-size="14.00">Data</text>
</g>
<g id="clust19" class="cluster">
<title>cluster_head</title>
<polygon fill="#b2dcff" stroke="#b2dcff" points="400,-459 400,-591 633,-591 633,-459 400,-459"/>
<text text-anchor="middle" x="516.5" y="-575.8" font-family="Helvetica,sans-Serif" font-size="14.00">Head</text>
</g>
<g id="clust20" class="cluster">
<title>cluster_tail</title>
<polygon fill="#b2dcff" stroke="#b2dcff" points="689,-459 689,-591 922,-591 922,-459 689,-459"/>
<text text-anchor="middle" x="805.5" y="-575.8" font-family="Helvetica,sans-Serif" font-size="14.00">Tail</text>
</g>
<g id="clust21" class="cluster">
<title>cluster_last_insert</title>
<polygon fill="#b2dcff" stroke="#b2dcff" points="978,-459 978,-591 1211,-591 1211,-459 978,-459"/>
<text text-anchor="middle" x="1094.5" y="-575.8" font-family="Helvetica,sans-Serif" font-size="14.00">Last insert</text>
</g>
<!-- node_0_sort -->
<g id="node1" class="node">
<title>node_0_sort</title>
<path fill="#b462ee" stroke="black" d="M83.5,-72C83.5,-72 276.5,-72 276.5,-72 282.5,-72 288.5,-78 288.5,-84 288.5,-84 288.5,-152 288.5,-152 288.5,-158 282.5,-164 276.5,-164 276.5,-164 83.5,-164 83.5,-164 77.5,-164 71.5,-158 71.5,-152 71.5,-152 71.5,-84 71.5,-84 71.5,-78 77.5,-72 83.5,-72"/>
<text text-anchor="middle" x="180" y="-148.8" font-family="Times,serif" font-size="14.00">address = 0x60ecd2b96330</text>
<polyline fill="none" stroke="black" points="71.5,-141 288.5,-141 "/>
<text text-anchor="middle" x="180" y="-125.8" font-family="Times,serif" font-size="14.00">next: 0x60ecd2b962a0</text>
<polyline fill="none" stroke="black" points="71.5,-118 288.5,-118 "/>
<text text-anchor="middle" x="180" y="-102.8" font-family="Times,serif" font-size="14.00">data: &#45;999</text>
<polyline fill="none" stroke="black" points="71.5,-95 288.5,-95 "/>
<text text-anchor="middle" x="180" y="-79.8" font-family="Times,serif" font-size="14.00">prev: 0x60ecd2b96300</text>
</g>
<!-- node_1_sort -->
<g id="node2" class="node">
<title>node_1_sort</title>
<path fill="#a8df8e" stroke="black" d="M420.5,-24C420.5,-24 612.5,-24 612.5,-24 618.5,-24 624.5,-30 624.5,-36 624.5,-36 624.5,-104 624.5,-104 624.5,-110 618.5,-116 612.5,-116 612.5,-116 420.5,-116 420.5,-116 414.5,-116 408.5,-110 408.5,-104 408.5,-104 408.5,-36 408.5,-36 408.5,-30 414.5,-24 420.5,-24"/>
<text text-anchor="middle" x="516.5" y="-100.8" font-family="Times,serif" font-size="14.00">address = 0x60ecd2b962a0</text>
<polyline fill="none" stroke="black" points="408.5,-93 624.5,-93 "/>
<text text-anchor="middle" x="516.5" y="-77.8" font-family="Times,serif" font-size="14.00">next: 0x60ecd2b962b8</text>
<polyline fill="none" stroke="black" points="408.5,-70 624.5,-70 "/>
<text text-anchor="middle" x="516.5" y="-54.8" font-family="Times,serif" font-size="14.00">data: 51</text>
<polyline fill="none" stroke="black" points="408.5,-47 624.5,-47 "/>
<text text-anchor="middle" x="516.5" y="-31.8" font-family="Times,serif" font-size="14.00">prev: 0x60ecd2b96330</text>
</g>
<!-- node_0_sort&#45;&gt;node_1_sort -->
<g id="edge1" class="edge">
<title>node_0_sort&#45;&gt;node_1_sort</title>
<path fill="none" stroke="black" d="M288.68,-115.26C323.68,-111.2 362.69,-105.69 398.35,-99.76"/>
<polygon fill="black" stroke="black" points="399.03,-103.19 408.31,-98.08 397.87,-96.29 399.03,-103.19"/>
</g>
<!-- node_6_sort -->
<g id="node7" class="node">
<title>node_6_sort</title>
<path fill="#a8df8e" stroke="black" d="M1865,-72C1865,-72 2058,-72 2058,-72 2064,-72 2070,-78 2070,-84 2070,-84 2070,-152 2070,-152 2070,-158 2064,-164 2058,-164 2058,-164 1865,-164 1865,-164 1859,-164 1853,-158 1853,-152 1853,-152 1853,-84 1853,-84 1853,-78 1859,-72 1865,-72"/>
<text text-anchor="middle" x="1961.5" y="-148.8" font-family="Times,serif" font-size="14.00">address = 0x60ecd2b96300</text>
<polyline fill="none" stroke="black" points="1853,-141 2070,-141 "/>
<text text-anchor="middle" x="1961.5" y="-125.8" font-family="Times,serif" font-size="14.00">next: 0x60ecd2b96330</text>
<polyline fill="none" stroke="black" points="1853,-118 2070,-118 "/>
<text text-anchor="middle" x="1961.5" y="-102.8" font-family="Times,serif" font-size="14.00">data: 555</text>
<polyline fill="none" stroke="black" points="1853,-95 2070,-95 "/>
<text text-anchor="middle" x="1961.5" y="-79.8" font-family="Times,serif" font-size="14.00">prev: 0x60ecd2b962e8</text>
</g>
<!-- node_0_sort&#45;&gt;node_6_sort -->
<g id="edge14" class="edge">
<title>node_0_sort&#45;&gt;node_6_sort</title>
<path fill="none" stroke="red" d="M288.69,-137.82C324.02,-143.5 363.57,-148.96 400,-152 579.17,-166.94 624.71,-157 804.5,-157 804.5,-157 804.5,-157 1384.5,-157 1564.29,-157 1610.18,-170.67 1789,-152 1806.45,-150.18 1824.76,-147.45 1842.66,-144.31"/>
<polygon fill="red" stroke="red" points="1843.33,-147.74 1852.55,-142.52 1842.08,-140.85 1843.33,-147.74"/>
</g>
<!-- node_1_sort&#45;&gt;node_0_sort -->
<g id="edge13" class="edge">
<title>node_1_sort&#45;&gt;node_0_sort</title>
<path fill="none" stroke="red" d="M408.31,-72.69C373.34,-76.73 334.34,-82.24 298.65,-88.16"/>
<polygon fill="red" stroke="red" points="297.96,-84.73 288.68,-89.84 299.12,-91.63 297.96,-84.73"/>
</g>
<!-- node_2_sort -->
<g id="node3" class="node">
<title>node_2_sort</title>
<path fill="#a8df8e" stroke="black" d="M709,-24C709,-24 902,-24 902,-24 908,-24 914,-30 914,-36 914,-36 914,-104 914,-104 914,-110 908,-116 902,-116 902,-116 709,-116 709,-116 703,-116 697,-110 697,-104 697,-104 697,-36 697,-36 697,-30 703,-24 709,-24"/>
<text text-anchor="middle" x="805.5" y="-100.8" font-family="Times,serif" font-size="14.00">address = 0x60ecd2b962b8</text>
<polyline fill="none" stroke="black" points="697,-93 914,-93 "/>
<text text-anchor="middle" x="805.5" y="-77.8" font-family="Times,serif" font-size="14.00">next: 0x60ecd2b962d0</text>
<polyline fill="none" stroke="black" points="697,-70 914,-70 "/>
<text text-anchor="middle" x="805.5" y="-54.8" font-family="Times,serif" font-size="14.00">data: 222</text>
<polyline fill="none" stroke="black" points="697,-47 914,-47 "/>
<text text-anchor="middle" x="805.5" y="-31.8" font-family="Times,serif" font-size="14.00">prev: 0x60ecd2b962a0</text>
</g>
<!-- node_1_sort&#45;&gt;node_2_sort -->
<g id="edge2" class="edge">
<title>node_1_sort&#45;&gt;node_2_sort</title>
<path fill="none" stroke="black" d="M624.78,-83.11C645.03,-83.55 666.31,-83.62 686.85,-83.3"/>
<polygon fill="black" stroke="black" points="686.94,-86.8 696.88,-83.12 686.81,-79.8 686.94,-86.8"/>
</g>
<!-- node_2_sort&#45;&gt;node_1_sort -->
<g id="edge12" class="edge">
<title>node_2_sort&#45;&gt;node_1_sort</title>
<path fill="none" stroke="red" d="M696.88,-56.88C676.61,-56.44 655.33,-56.38 634.79,-56.7"/>
<polygon fill="red" stroke="red" points="634.71,-53.2 624.78,-56.89 634.84,-60.2 634.71,-53.2"/>
</g>
<!-- node_3_sort -->
<g id="node4" class="node">
<title>node_3_sort</title>
<path fill="#a8df8e" stroke="black" d="M998,-24C998,-24 1191,-24 1191,-24 1197,-24 1203,-30 1203,-36 1203,-36 1203,-104 1203,-104 1203,-110 1197,-116 1191,-116 1191,-116 998,-116 998,-116 992,-116 986,-110 986,-104 986,-104 986,-36 986,-36 986,-30 992,-24 998,-24"/>
<text text-anchor="middle" x="1094.5" y="-100.8" font-family="Times,serif" font-size="14.00">address = 0x60ecd2b962d0</text>
<polyline fill="none" stroke="black" points="986,-93 1203,-93 "/>
<text text-anchor="middle" x="1094.5" y="-77.8" font-family="Times,serif" font-size="14.00">next: 0x60ecd2b96318</text>
<polyline fill="none" stroke="black" points="986,-70 1203,-70 "/>
<text text-anchor="middle" x="1094.5" y="-54.8" font-family="Times,serif" font-size="14.00">data: 333</text>
<polyline fill="none" stroke="black" points="986,-47 1203,-47 "/>
<text text-anchor="middle" x="1094.5" y="-31.8" font-family="Times,serif" font-size="14.00">prev: 0x60ecd2b962b8</text>
</g>
<!-- node_2_sort&#45;&gt;node_3_sort -->
<g id="edge3" class="edge">
<title>node_2_sort&#45;&gt;node_3_sort</title>
<path fill="none" stroke="black" d="M914.18,-83.12C934.19,-83.55 955.18,-83.62 975.47,-83.31"/>
<polygon fill="black" stroke="black" points="975.76,-86.8 985.69,-83.12 975.63,-79.81 975.76,-86.8"/>
</g>
<!-- node_3_sort&#45;&gt;node_2_sort -->
<g id="edge11" class="edge">
<title>node_3_sort&#45;&gt;node_2_sort</title>
<path fill="none" stroke="red" d="M985.69,-56.88C965.68,-56.45 944.69,-56.38 924.4,-56.69"/>
<polygon fill="red" stroke="red" points="924.12,-53.2 914.18,-56.88 924.25,-60.2 924.12,-53.2"/>
</g>
<!-- node_4_sort -->
<g id="node5" class="node">
<title>node_4_sort</title>
<path fill="#a8df8e" stroke="black" d="M1287,-24C1287,-24 1480,-24 1480,-24 1486,-24 1492,-30 1492,-36 1492,-36 1492,-104 1492,-104 1492,-110 1486,-116 1480,-116 1480,-116 1287,-116 1287,-116 1281,-116 1275,-110 1275,-104 1275,-104 1275,-36 1275,-36 1275,-30 1281,-24 1287,-24"/>
<text text-anchor="middle" x="1383.5" y="-100.8" font-family="Times,serif" font-size="14.00">address = 0x60ecd2b96318</text>
<polyline fill="none" stroke="black" points="1275,-93 1492,-93 "/>
<text text-anchor="middle" x="1383.5" y="-77.8" font-family="Times,serif" font-size="14.00">next: 0x60ecd2b962e8</text>
<polyline fill="none" stroke="black" points="1275,-70 1492,-70 "/>
<text text-anchor="middle" x="1383.5" y="-54.8" font-family="Times,serif" font-size="14.00">data: 400</text>
<polyline fill="none" stroke="black" points="1275,-47 1492,-47 "/>
<text text-anchor="middle" x="1383.5" y="-31.8" font-family="Times,serif" font-size="14.00">prev: 0x60ecd2b962d0</text>
</g>
<!-- node_3_sort&#45;&gt;node_4_sort -->
<g id="edge4" class="edge">
<title>node_3_sort&#45;&gt;node_4_sort</title>
<path fill="none" stroke="black" d="M1203.18,-83.12C1223.19,-83.55 1244.18,-83.62 1264.47,-83.31"/>
<polygon fill="black" stroke="black" points="1264.76,-86.8 1274.69,-83.12 1264.63,-79.81 1264.76,-86.8"/>
</g>
<!-- node_4_sort&#45;&gt;node_3_sort -->
<g id="edge10" class="edge">
<title>node_4_sort&#45;&gt;node_3_sort</title>
<path fill="none" stroke="red" d="M1274.69,-56.88C1254.68,-56.45 1233.69,-56.38 1213.4,-56.69"/>
<polygon fill="red" stroke="red" points="1213.12,-53.2 1203.18,-56.88 1213.25,-60.2 1213.12,-53.2"/>
</g>
<!-- node_5_sort -->
<g id="node6" class="node">
<title>node_5_sort</title>
<path fill="#a8df8e" stroke="black" d="M1576.5,-24C1576.5,-24 1768.5,-24 1768.5,-24 1774.5,-24 1780.5,-30 1780.5,-36 1780.5,-36 1780.5,-104 1780.5,-104 1780.5,-110 1774.5,-116 1768.5,-116 1768.5,-116 1576.5,-116 1576.5,-116 1570.5,-116 1564.5,-110 1564.5,-104 1564.5,-104 1564.5,-36 1564.5,-36 1564.5,-30 1570.5,-24 1576.5,-24"/>
<text text-anchor="middle" x="1672.5" y="-100.8" font-family="Times,serif" font-size="14.00">address = 0x60ecd2b962e8</text>
<polyline fill="none" stroke="black" points="1564.5,-93 1780.5,-93 "/>
<text text-anchor="middle" x="1672.5" y="-77.8" font-family="Times,serif" font-size="14.00">next: 0x60ecd2b96300</text>
<polyline fill="none" stroke="black" points="1564.5,-70 1780.5,-70 "/>
<text text-anchor="middle" x="1672.5" y="-54.8" font-family="Times,serif" font-size="14.00">data: 443</text>
<polyline fill="none" stroke="black" points="1564.5,-47 1780.5,-47 "/>
<text text-anchor="middle" x="1672.5" y="-31.8" font-family="Times,serif" font-size="14.00">prev: 0x60ecd2b96318</text>
</g>
<!-- node_4_sort&#45;&gt;node_5_sort -->
<g id="edge5" class="edge">
<title>node_4_sort&#45;&gt;node_5_sort</title>
<path fill="none" stroke="black" d="M1492.18,-83.12C1512.41,-83.56 1533.66,-83.62 1554.17,-83.3"/>
<polygon fill="black" stroke="black" points="1554.23,-86.8 1564.17,-83.11 1554.1,-79.8 1554.23,-86.8"/>
</g>
<!-- node_5_sort&#45;&gt;node_4_sort -->
<g id="edge9" class="edge">
<title>node_5_sort&#45;&gt;node_4_sort</title>
<path fill="none" stroke="red" d="M1564.17,-56.89C1543.95,-56.45 1522.7,-56.38 1502.19,-56.7"/>
<polygon fill="red" stroke="red" points="1502.12,-53.2 1492.18,-56.88 1502.25,-60.2 1502.12,-53.2"/>
</g>
<!-- node_5_sort&#45;&gt;node_6_sort -->
<g id="edge6" class="edge">
<title>node_5_sort&#45;&gt;node_6_sort</title>
<path fill="none" stroke="black" d="M1780.78,-101.05C1801.03,-104.88 1822.31,-108.51 1842.85,-111.63"/>
<polygon fill="black" stroke="black" points="1842.47,-115.11 1852.88,-113.12 1843.5,-108.18 1842.47,-115.11"/>
</g>
<!-- node_6_sort&#45;&gt;node_0_sort -->
<g id="edge7" class="edge">
<title>node_6_sort&#45;&gt;node_0_sort</title>
<path fill="none" stroke="black" d="M1852.89,-152.45C1831.88,-158.12 1809.89,-163.33 1789,-167 1611.5,-198.15 1564.71,-195 1384.5,-195 804.5,-195 804.5,-195 804.5,-195 624.29,-195 578.33,-192.97 400,-167 366.89,-162.18 331.36,-155.08 298.75,-147.77"/>
<polygon fill="black" stroke="black" points="299.25,-144.3 288.73,-145.5 297.71,-151.12 299.25,-144.3"/>
</g>
<!-- node_6_sort&#45;&gt;node_5_sort -->
<g id="edge8" class="edge">
<title>node_6_sort&#45;&gt;node_5_sort</title>
<path fill="none" stroke="red" d="M1852.88,-86.88C1832.61,-83.05 1811.33,-79.43 1790.79,-76.32"/>
<polygon fill="red" stroke="red" points="1791.18,-72.84 1780.78,-74.83 1790.15,-79.76 1791.18,-72.84"/>
</g>
<!-- node_0_unsort -->
<g id="node8" class="node">
<title>node_0_unsort</title>
<path fill="#a8df8e" stroke="black" d="M84,-258.5C84,-258.5 276,-258.5 276,-258.5 282,-258.5 288,-264.5 288,-270.5 288,-270.5 288,-361.5 288,-361.5 288,-367.5 282,-373.5 276,-373.5 276,-373.5 84,-373.5 84,-373.5 78,-373.5 72,-367.5 72,-361.5 72,-361.5 72,-270.5 72,-270.5 72,-264.5 78,-258.5 84,-258.5"/>
<text text-anchor="middle" x="180" y="-358.3" font-family="Times,serif" font-size="14.00">index in node array: 0</text>
<polyline fill="none" stroke="black" points="72,-350.5 288,-350.5 "/>
<text text-anchor="middle" x="180" y="-335.3" font-family="Times,serif" font-size="14.00">address = 0x60ecd2b962a0</text>
<polyline fill="none" stroke="black" points="72,-327.5 288,-327.5 "/>
<text text-anchor="middle" x="180" y="-312.3" font-family="Times,serif" font-size="14.00">next: 0x60ecd2b962b8</text>
<polyline fill="none" stroke="black" points="72,-304.5 288,-304.5 "/>
<text text-anchor="middle" x="180" y="-289.3" font-family="Times,serif" font-size="14.00">data: 51</text>
<polyline fill="none" stroke="black" points="72,-281.5 288,-281.5 "/>
<text text-anchor="middle" x="180" y="-266.3" font-family="Times,serif" font-size="14.00">prev: 0x60ecd2b96330</text>
</g>
<!-- node_1_unsort -->
<g id="node9" class="node">
<title>node_1_unsort</title>
<path fill="#a8df8e" stroke="black" d="M420,-258.5C420,-258.5 613,-258.5 613,-258.5 619,-258.5 625,-264.5 625,-270.5 625,-270.5 625,-361.5 625,-361.5 625,-367.5 619,-373.5 613,-373.5 613,-373.5 420,-373.5 420,-373.5 414,-373.5 408,-367.5 408,-361.5 408,-361.5 408,-270.5 408,-270.5 408,-264.5 414,-258.5 420,-258.5"/>
<text text-anchor="middle" x="516.5" y="-358.3" font-family="Times,serif" font-size="14.00">index in node array: 1</text>
<polyline fill="none" stroke="black" points="408,-350.5 625,-350.5 "/>
<text text-anchor="middle" x="516.5" y="-335.3" font-family="Times,serif" font-size="14.00">address = 0x60ecd2b962b8</text>
<polyline fill="none" stroke="black" points="408,-327.5 625,-327.5 "/>
<text text-anchor="middle" x="516.5" y="-312.3" font-family="Times,serif" font-size="14.00">next: 0x60ecd2b962d0</text>
<polyline fill="none" stroke="black" points="408,-304.5 625,-304.5 "/>
<text text-anchor="middle" x="516.5" y="-289.3" font-family="Times,serif" font-size="14.00">data: 222</text>
<polyline fill="none" stroke="black" points="408,-281.5 625,-281.5 "/>
<text text-anchor="middle" x="516.5" y="-266.3" font-family="Times,serif" font-size="14.00">prev: 0x60ecd2b962a0</text>
</g>
<!-- node_0_unsort&#45;&gt;node_1_unsort -->
<g id="edge15" class="edge">
<title>node_0_unsort&#45;&gt;node_1_unsort</title>
<path fill="none" stroke="black" d="M288.22,-316C323,-316 361.78,-316 397.32,-316"/>
<polygon fill="black" stroke="black" points="397.74,-319.5 407.74,-316 397.74,-312.5 397.74,-319.5"/>
</g>
<!-- node_2_unsort -->
<g id="node10" class="node">
<title>node_2_unsort</title>
<path fill="#a8df8e" stroke="black" d="M709,-258.5C709,-258.5 902,-258.5 902,-258.5 908,-258.5 914,-264.5 914,-270.5 914,-270.5 914,-361.5 914,-361.5 914,-367.5 908,-373.5 902,-373.5 902,-373.5 709,-373.5 709,-373.5 703,-373.5 697,-367.5 697,-361.5 697,-361.5 697,-270.5 697,-270.5 697,-264.5 703,-258.5 709,-258.5"/>
<text text-anchor="middle" x="805.5" y="-358.3" font-family="Times,serif" font-size="14.00">index in node array: 2</text>
<polyline fill="none" stroke="black" points="697,-350.5 914,-350.5 "/>
<text text-anchor="middle" x="805.5" y="-335.3" font-family="Times,serif" font-size="14.00">address = 0x60ecd2b962d0</text>
<polyline fill="none" stroke="black" points="697,-327.5 914,-327.5 "/>
<text text-anchor="middle" x="805.5" y="-312.3" font-family="Times,serif" font-size="14.00">next: 0x60ecd2b96318</text>
<polyline fill="none" stroke="black" points="697,-304.5 914,-304.5 "/>
<text text-anchor="middle" x="805.5" y="-289.3" font-family="Times,serif" font-size="14.00">data: 333</text>
<polyline fill="none" stroke="black" points="697,-281.5 914,-281.5 "/>
<text text-anchor="middle" x="805.5" y="-266.3" font-family="Times,serif" font-size="14.00">prev: 0x60ecd2b962b8</text>
</g>
<!-- node_1_unsort&#45;&gt;node_2_unsort -->
<g id="edge16" class="edge">
<title>node_1_unsort&#45;&gt;node_2_unsort</title>
<path fill="none" stroke="black" d="M625.18,-316C645.19,-316 666.18,-316 686.47,-316"/>
<polygon fill="black" stroke="black" points="686.69,-319.5 696.69,-316 686.69,-312.5 686.69,-319.5"/>
</g>
<!-- node_3_unsort -->
<g id="node11" class="node">
<title>node_3_unsort</title>
<path fill="#a8df8e" stroke="black" d="M998.5,-258.5C998.5,-258.5 1190.5,-258.5 1190.5,-258.5 1196.5,-258.5 1202.5,-264.5 1202.5,-270.5 1202.5,-270.5 1202.5,-361.5 1202.5,-361.5 1202.5,-367.5 1196.5,-373.5 1190.5,-373.5 1190.5,-373.5 998.5,-373.5 998.5,-373.5 992.5,-373.5 986.5,-367.5 986.5,-361.5 986.5,-361.5 986.5,-270.5 986.5,-270.5 986.5,-264.5 992.5,-258.5 998.5,-258.5"/>
<text text-anchor="middle" x="1094.5" y="-358.3" font-family="Times,serif" font-size="14.00">index in node array: 3</text>
<polyline fill="none" stroke="black" points="986.5,-350.5 1202.5,-350.5 "/>
<text text-anchor="middle" x="1094.5" y="-335.3" font-family="Times,serif" font-size="14.00">address = 0x60ecd2b962e8</text>
<polyline fill="none" stroke="black" points="986.5,-327.5 1202.5,-327.5 "/>
<text text-anchor="middle" x="1094.5" y="-312.3" font-family="Times,serif" font-size="14.00">next: 0x60ecd2b96300</text>
<polyline fill="none" stroke="black" points="986.5,-304.5 1202.5,-304.5 "/>
<text text-anchor="middle" x="1094.5" y="-289.3" font-family="Times,serif" font-size="14.00">data: 443</text>
<polyline fill="none" stroke="black" points="986.5,-281.5 1202.5,-281.5 "/>
<text text-anchor="middle" x="1094.5" y="-266.3" font-family="Times,serif" font-size="14.00">prev: 0x60ecd2b96318</text>
</g>
<!-- node_2_unsort&#45;&gt;node_3_unsort -->
<g id="edge17" class="edge">
<title>node_2_unsort&#45;&gt;node_3_unsort</title>
<path fill="none" stroke="black" d="M914.18,-316C934.32,-316 955.47,-316 975.89,-316"/>
<polygon fill="black" stroke="black" points="976.17,-319.5 986.17,-316 976.17,-312.5 976.17,-319.5"/>
</g>
<!-- node_4_unsort -->
<g id="node12" class="node">
<title>node_4_unsort</title>
<path fill="#a8df8e" stroke="black" d="M1287,-258.5C1287,-258.5 1480,-258.5 1480,-258.5 1486,-258.5 1492,-264.5 1492,-270.5 1492,-270.5 1492,-361.5 1492,-361.5 1492,-367.5 1486,-373.5 1480,-373.5 1480,-373.5 1287,-373.5 1287,-373.5 1281,-373.5 1275,-367.5 1275,-361.5 1275,-361.5 1275,-270.5 1275,-270.5 1275,-264.5 1281,-258.5 1287,-258.5"/>
<text text-anchor="middle" x="1383.5" y="-358.3" font-family="Times,serif" font-size="14.00">index in node array: 4</text>
<polyline fill="none" stroke="black" points="1275,-350.5 1492,-350.5 "/>
<text text-anchor="middle" x="1383.5" y="-335.3" font-family="Times,serif" font-size="14.00">address = 0x60ecd2b96300</text>
<polyline fill="none" stroke="black" points="1275,-327.5 1492,-327.5 "/>
<text text-anchor="middle" x="1383.5" y="-312.3" font-family="Times,serif" font-size="14.00">next: 0x60ecd2b96330</text>
<polyline fill="none" stroke="black" points="1275,-304.5 1492,-304.5 "/>
<text text-anchor="middle" x="1383.5" y="-289.3" font-family="Times,serif" font-size="14.00">data: 555</text>
<polyline fill="none" stroke="black" points="1275,-281.5 1492,-281.5 "/>
<text text-anchor="middle" x="1383.5" y="-266.3" font-family="Times,serif" font-size="14.00">prev: 0x60ecd2b962e8</text>
</g>
<!-- node_3_unsort&#45;&gt;node_4_unsort -->
<g id="edge18" class="edge">
<title>node_3_unsort&#45;&gt;node_4_unsort</title>
<path fill="none" stroke="black" d="M1202.78,-316C1223.03,-316 1244.31,-316 1264.85,-316"/>
<polygon fill="black" stroke="black" points="1264.88,-319.5 1274.88,-316 1264.88,-312.5 1264.88,-319.5"/>
</g>
<!-- node_5_unsort -->
<g id="node13" class="node">
<title>node_5_unsort</title>
<path fill="#a8df8e" stroke="black" d="M1576,-258.5C1576,-258.5 1769,-258.5 1769,-258.5 1775,-258.5 1781,-264.5 1781,-270.5 1781,-270.5 1781,-361.5 1781,-361.5 1781,-367.5 1775,-373.5 1769,-373.5 1769,-373.5 1576,-373.5 1576,-373.5 1570,-373.5 1564,-367.5 1564,-361.5 1564,-361.5 1564,-270.5 1564,-270.5 1564,-264.5 1570,-258.5 1576,-258.5"/>
<text text-anchor="middle" x="1672.5" y="-358.3" font-family="Times,serif" font-size="14.00">index in node array: 5</text>
<polyline fill="none" stroke="black" points="1564,-350.5 1781,-350.5 "/>
<text text-anchor="middle" x="1672.5" y="-335.3" font-family="Times,serif" font-size="14.00">address = 0x60ecd2b96318</text>
<polyline fill="none" stroke="black" points="1564,-327.5 1781,-327.5 "/>
<text text-anchor="middle" x="1672.5" y="-312.3" font-family="Times,serif" font-size="14.00">next: 0x60ecd2b962e8</text>
<polyline fill="none" stroke="black" points="1564,-304.5 1781,-304.5 "/>
<text text-anchor="middle" x="1672.5" y="-289.3" font-family="Times,serif" font-size="14.00">data: 400</text>
<polyline fill="none" stroke="black" points="1564,-281.5 1781,-281.5 "/>
<text text-anchor="middle" x="1672.5" y="-266.3" font-family="Times,serif" font-size="14.00">prev: 0x60ecd2b962d0</text>
</g>
<!-- node_4_unsort&#45;&gt;node_5_unsort -->
<g id="edge19" class="edge">
<title>node_4_unsort&#45;&gt;node_5_unsort</title>
<path fill="none" stroke="black" d="M1492.18,-316C1512.19,-316 1533.18,-316 1553.47,-316"/>
<polygon fill="black" stroke="black" points="1553.69,-319.5 1563.69,-316 1553.69,-312.5 1553.69,-319.5"/>
</g>
<!-- node_6_unsort -->
<g id="node14" class="node">
<title>node_6_unsort</title>
<path fill="#b462ee" stroke="black" d="M1865,-258.5C1865,-258.5 2058,-258.5 2058,-258.5 2064,-258.5 2070,-264.5 2070,-270.5 2070,-270.5 2070,-361.5 2070,-361.5 2070,-367.5 2064,-373.5 2058,-373.5 2058,-373.5 1865,-373.5 1865,-373.5 1859,-373.5 1853,-367.5 1853,-361.5 1853,-361.5 1853,-270.5 1853,-270.5 1853,-264.5 1859,-258.5 1865,-258.5"/>
<text text-anchor="middle" x="1961.5" y="-358.3" font-family="Times,serif" font-size="14.00">index in node array: 6</text>
<polyline fill="none" stroke="black" points="1853,-350.5 2070,-350.5 "/>
<text text-anchor="middle" x="1961.5" y="-335.3" font-family="Times,serif" font-size="14.00">address = 0x60ecd2b96330</text>
<polyline fill="none" stroke="black" points="1853,-327.5 2070,-327.5 "/>
<text text-anchor="middle" x="1961.5" y="-312.3" font-family="Times,serif" font-size="14.00">next: 0x60ecd2b962a0</text>
<polyline fill="none" stroke="black" points="1853,-304.5 2070,-304.5 "/>
<text text-anchor="middle" x="1961.5" y="-289.3" font-family="Times,serif" font-size="14.00">data: &#45;999</text>
<polyline fill="none" stroke="black" points="1853,-281.5 2070,-281.5 "/>
<text text-anchor="middle" x="1961.5" y="-266.3" font-family="Times,serif" font-size="14.00">prev: 0x60ecd2b96300</text>
</g>
<!-- node_5_unsort&#45;&gt;node_6_unsort -->
<g id="edge20" class="edge">
<title>node_5_unsort&#45;&gt;node_6_unsort</title>
<path fill="none" stroke="black" d="M1781.18,-316C1801.19,-316 1822.18,-316 1842.47,-316"/>
<polygon fill="black" stroke="black" points="1842.69,-319.5 1852.69,-316 1842.69,-312.5 1842.69,-319.5"/>
</g>
<!-- head -->
<g id="node15" class="node">
<title>head</title>
<path fill="#febe5e" stroke="black" d="M420,-467C420,-467 613,-467 613,-467 619,-467 625,-473 625,-479 625,-479 625,-547 625,-547 625,-553 619,-559 613,-559 613,-559 420,-559 420,-559 414,-559 408,-553 408,-547 408,-547 408,-479 408,-479 408,-473 414,-467 420,-467"/>
<text text-anchor="middle" x="516.5" y="-543.8" font-family="Times,serif" font-size="14.00">address = 0x60ecd2b96330</text>
<polyline fill="none" stroke="black" points="408,-536 625,-536 "/>
<text text-anchor="middle" x="516.5" y="-520.8" font-family="Times,serif" font-size="14.00">next: 0x60ecd2b962a0</text>
<polyline fill="none" stroke="black" points="408,-513 625,-513 "/>
<text text-anchor="middle" x="516.5" y="-497.8" font-family="Times,serif" font-size="14.00">data: &#45;999</text>
<polyline fill="none" stroke="black" points="408,-490 625,-490 "/>
<text text-anchor="middle" x="516.5" y="-474.8" font-family="Times,serif" font-size="14.00">prev: 0x60ecd2b96300</text>
</g>
<!-- tail -->
<g id="node16" class="node">
<title>tail</title>
<path fill="#febe5e" stroke="black" d="M709,-467C709,-467 902,-467 902,-467 908,-467 914,-473 914,-479 914,-479 914,-547 914,-547 914,-553 908,-559 902,-559 902,-559 709,-559 709,-559 703,-559 697,-553 697,-547 697,-547 697,-479 697,-479 697,-473 703,-467 709,-467"/>
<text text-anchor="middle" x="805.5" y="-543.8" font-family="Times,serif" font-size="14.00">address = 0x60ecd2b96300</text>
<polyline fill="none" stroke="black" points="697,-536 914,-536 "/>
<text text-anchor="middle" x="805.5" y="-520.8" font-family="Times,serif" font-size="14.00">next: 0x60ecd2b96330</text>
<polyline fill="none" stroke="black" points="697,-513 914,-513 "/>
<text text-anchor="middle" x="805.5" y="-497.8" font-family="Times,serif" font-size="14.00">data: 555</text>
<polyline fill="none" stroke="black" points="697,-490 914,-490 "/>
<text text-anchor="middle" x="805.5" y="-474.8" font-family="Times,serif" font-size="14.00">prev: 0x60ecd2b962e8</text>
</g>
<!-- head&#45;&gt;tail -->
<g id="edge22" class="edge">
<title>head&#45;&gt;tail</title>
<path fill="none" stroke="#b2dcff" d="M625.18,-513C645.19,-513 666.18,-513 686.47,-513"/>
<polygon fill="#b2dcff" stroke="#b2dcff" points="686.69,-516.5 696.69,-513 686.69,-509.5 686.69,-516.5"/>
</g>
<!-- last_insert -->
<g id="node17" class="node">
<title>last_insert</title>
<path fill="#febe5e" stroke="black" d="M998,-467C998,-467 1191,-467 1191,-467 1197,-467 1203,-473 1203,-479 1203,-479 1203,-547 1203,-547 1203,-553 1197,-559 1191,-559 1191,-559 998,-559 998,-559 992,-559 986,-553 986,-547 986,-547 986,-479 986,-479 986,-473 992,-467 998,-467"/>
<text text-anchor="middle" x="1094.5" y="-543.8" font-family="Times,serif" font-size="14.00">address = 0x60ecd2b96330</text>
<polyline fill="none" stroke="black" points="986,-536 1203,-536 "/>
<text text-anchor="middle" x="1094.5" y="-520.8" font-family="Times,serif" font-size="14.00">next: 0x60ecd2b962a0</text>
<polyline fill="none" stroke="black" points="986,-513 1203,-513 "/>
<text text-anchor="middle" x="1094.5" y="-497.8" font-family="Times,serif" font-size="14.00">data: &#45;999</text>
<polyline fill="none" stroke="black" points="986,-490 1203,-490 "/>
<text text-anchor="middle" x="1094.5" y="-474.8" font-family="Times,serif" font-size="14.00">prev: 0x60ecd2b96300</text>
</g>
<!-- tail&#45;&gt;last_insert -->
<g id="edge23" class="edge">
<title>tail&#45;&gt;last_insert</title>
<path fill="none" stroke="#b2dcff" d="M914.18,-513C934.19,-513 955.18,-513 975.47,-513"/>
<polygon fill="#b2dcff" stroke="#b2dcff" points="975.69,-516.5 985.69,-513 975.69,-509.5 975.69,-516.5"/>
</g>
<!-- data -->
<g id="node18" class="node">
<title>data</title>
<path fill="#febe5e" stroke="black" d="M36,-471C36,-471 324,-471 324,-471 330,-471 336,-477 336,-483 336,-483 336,-543 336,-543 336,-549 330,-555 324,-555 324,-555 36,-555 36,-555 30,-555 24,-549 24,-543 24,-543 24,-483 24,-483 24,-477 30,-471 36,-471"/>
<text text-anchor="middle" x="180" y="-539.8" font-family="Times,serif" font-size="14.00">list pointer = 0x7fff90fdf820</text>
<polyline fill="none" stroke="black" points="24,-532 336,-532 "/>
<text text-anchor="middle" x="180" y="-516.8" font-family="Times,serif" font-size="14.00">list capacity = 10</text>
<polyline fill="none" stroke="black" points="24,-509 336,-509 "/>
<text text-anchor="middle" x="180" y="-493.8" font-family="Times,serif" font-size="14.00">start: list node array = 0x60ecd2b962a0 </text>
<text text-anchor="middle" x="180" y="-478.8" font-family="Times,serif" font-size="14.00">end: list node array = 0x60ecd2b96378</text>
</g>
<!-- data&#45;&gt;head -->
<g id="edge21" class="edge">
<title>data&#45;&gt;head</title>
<path fill="none" stroke="#b2dcff" d="M336.01,-513C356.77,-513 377.78,-513 397.76,-513"/>
<polygon fill="#b2dcff" stroke="#b2dcff" points="397.79,-516.5 407.79,-513 397.79,-509.5 397.79,-516.5"/>
</g>
</g>
</svg>
