<?xml version="1.0" encoding="UTF-8" standalone="no"?>
<!DOCTYPE svg PUBLIC "-//W3C//DTD SVG 1.1//EN"
 "http://www.w3.org/Graphics/SVG/1.1/DTD/svg11.dtd">
<!-- Generated by graphviz version 2.43.0 (0)
 -->
<!-- Title: %3 Pages: 1 -->
<svg width="1255pt" height="585pt"
 viewBox="0.00 0.00 1255.00 585.00" xmlns="http://www.w3.org/2000/svg" xmlns:xlink="http://www.w3.org/1999/xlink">
<g id="graph0" class="graph" transform="scale(1 1) rotate(0) translate(4 581)">
<title>%3</title>
<polygon fill="#b2dcff" stroke="transparent" points="-4,4 -4,-581 1251,-581 1251,4 -4,4"/>
<g id="clust1" class="cluster">
<title>cluster_node_array_sort</title>
<polygon fill="#b2dcff" stroke="#b2dcff" points="33,-8 33,-186 1239,-186 1239,-8 33,-8"/>
<text text-anchor="middle" x="636" y="-166" font-family="Times,serif" font-size="20.00">Node array sort</text>
</g>
<g id="clust2" class="cluster">
<title>cluster_node_1_sort</title>
<polygon fill="#b2dcff" stroke="#b2dcff" points="41,-16 41,-148 258,-148 258,-16 41,-16"/>
<text text-anchor="middle" x="149.5" y="-132.8" font-family="Times,serif" font-size="14.00">3</text>
</g>
<g id="clust3" class="cluster">
<title>cluster_node_2_sort</title>
<polygon fill="#b2dcff" stroke="#b2dcff" points="303,-16 303,-148 520,-148 520,-16 303,-16"/>
<text text-anchor="middle" x="411.5" y="-132.8" font-family="Times,serif" font-size="14.00">2</text>
</g>
<g id="clust4" class="cluster">
<title>cluster_node_3_sort</title>
<polygon fill="#b2dcff" stroke="#b2dcff" points="540,-16 540,-148 757,-148 757,-16 540,-16"/>
<text text-anchor="middle" x="648.5" y="-132.8" font-family="Times,serif" font-size="14.00">4</text>
</g>
<g id="clust5" class="cluster">
<title>cluster_node_4_sort</title>
<polygon fill="#b2dcff" stroke="#b2dcff" points="777,-16 777,-148 994,-148 994,-16 777,-16"/>
<text text-anchor="middle" x="885.5" y="-132.8" font-family="Times,serif" font-size="14.00">1</text>
</g>
<g id="clust6" class="cluster">
<title>cluster_node_5_sort</title>
<polygon fill="#b2dcff" stroke="#b2dcff" points="1014,-16 1014,-148 1231,-148 1231,-16 1014,-16"/>
<text text-anchor="middle" x="1122.5" y="-132.8" font-family="Times,serif" font-size="14.00">5</text>
</g>
<g id="clust7" class="cluster">
<title>cluster_node_array_unsort</title>
<polygon fill="#b2dcff" stroke="#b2dcff" points="45.5,-194 45.5,-383 1239,-383 1239,-194 45.5,-194"/>
<text text-anchor="middle" x="642.25" y="-363" font-family="Times,serif" font-size="20.00">Node array</text>
</g>
<g id="clust8" class="cluster">
<title>cluster_node_1</title>
<polygon fill="#b2dcff" stroke="#b2dcff" points="53.5,-202 53.5,-345 245.5,-345 245.5,-202 53.5,-202"/>
<text text-anchor="middle" x="149.5" y="-329.8" font-family="Times,serif" font-size="14.00">1</text>
</g>
<g id="clust9" class="cluster">
<title>cluster_node_2</title>
<polygon fill="#b2dcff" stroke="#b2dcff" points="303,-208 303,-340 520,-340 520,-208 303,-208"/>
<text text-anchor="middle" x="411.5" y="-324.8" font-family="Times,serif" font-size="14.00">2</text>
</g>
<g id="clust10" class="cluster">
<title>cluster_node_3</title>
<polygon fill="#b2dcff" stroke="#b2dcff" points="540,-208 540,-340 757,-340 757,-208 540,-208"/>
<text text-anchor="middle" x="648.5" y="-324.8" font-family="Times,serif" font-size="14.00">3</text>
</g>
<g id="clust11" class="cluster">
<title>cluster_node_4</title>
<polygon fill="#b2dcff" stroke="#b2dcff" points="777,-208 777,-340 994,-340 994,-208 777,-208"/>
<text text-anchor="middle" x="885.5" y="-324.8" font-family="Times,serif" font-size="14.00">4</text>
</g>
<g id="clust12" class="cluster">
<title>cluster_node_5</title>
<polygon fill="#b2dcff" stroke="#b2dcff" points="1014,-208 1014,-340 1231,-340 1231,-208 1014,-208"/>
<text text-anchor="middle" x="1122.5" y="-324.8" font-family="Times,serif" font-size="14.00">5</text>
</g>
<g id="clust13" class="cluster">
<title>cluster_struct_list</title>
<polygon fill="#b2dcff" stroke="#b2dcff" points="8,-391 8,-569 1002,-569 1002,-391 8,-391"/>
<text text-anchor="middle" x="505" y="-549" font-family="Times,serif" font-size="20.00"> &#160;&#160;&#160;&#160;&#160;&#160;&#160;&#160;&#160;&#160;&#160;&#160;&#160;&#160;&#160;&#160;&#160;&#160;&#160;&#160;&#160;&#160;&#160;&#160;&#160;&#160;&#160;&#160;&#160;&#160;&#160;&#160;&#160;&#160;&#160;&#160;&#160;&#160;&#160;&#160;&#160;&#160;Struct List</text>
</g>
<g id="clust14" class="cluster">
<title>cluster_node_list_data</title>
<polygon fill="#b2dcff" stroke="#b2dcff" points="16,-410 16,-519 283,-519 283,-410 16,-410"/>
<text text-anchor="middle" x="149.5" y="-503.8" font-family="Times,serif" font-size="14.00">Data</text>
</g>
<g id="clust15" class="cluster">
<title>cluster_head</title>
<polygon fill="#b2dcff" stroke="#b2dcff" points="303,-399 303,-531 520,-531 520,-399 303,-399"/>
<text text-anchor="middle" x="411.5" y="-515.8" font-family="Times,serif" font-size="14.00">Head</text>
</g>
<g id="clust16" class="cluster">
<title>cluster_tail</title>
<polygon fill="#b2dcff" stroke="#b2dcff" points="540,-399 540,-531 757,-531 757,-399 540,-399"/>
<text text-anchor="middle" x="648.5" y="-515.8" font-family="Times,serif" font-size="14.00">Tail</text>
</g>
<g id="clust17" class="cluster">
<title>cluster_last_insert</title>
<polygon fill="#b2dcff" stroke="#b2dcff" points="777,-399 777,-531 994,-531 994,-399 777,-399"/>
<text text-anchor="middle" x="885.5" y="-515.8" font-family="Times,serif" font-size="14.00">Last insert</text>
</g>
<!-- node_1_sort -->
<g id="node1" class="node">
<title>node_1_sort</title>
<path fill="#a8df8e" stroke="black" d="M61,-24C61,-24 238,-24 238,-24 244,-24 250,-30 250,-36 250,-36 250,-104 250,-104 250,-110 244,-116 238,-116 238,-116 61,-116 61,-116 55,-116 49,-110 49,-104 49,-104 49,-36 49,-36 49,-30 55,-24 61,-24"/>
<text text-anchor="middle" x="149.5" y="-100.8" font-family="Times,serif" font-size="14.00">address = 0x1232131233</text>
<polyline fill="none" stroke="black" points="49,-93 250,-93 "/>
<text text-anchor="middle" x="149.5" y="-77.8" font-family="Times,serif" font-size="14.00">next: 0x12321323</text>
<polyline fill="none" stroke="black" points="49,-70 250,-70 "/>
<text text-anchor="middle" x="149.5" y="-54.8" font-family="Times,serif" font-size="14.00">data: 666</text>
<polyline fill="none" stroke="black" points="49,-47 250,-47 "/>
<text text-anchor="middle" x="149.5" y="-31.8" font-family="Times,serif" font-size="14.00">prev: 0x3324324</text>
</g>
<!-- node_2_sort -->
<g id="node2" class="node">
<title>node_2_sort</title>
<path fill="#a8df8e" stroke="black" d="M323,-24C323,-24 500,-24 500,-24 506,-24 512,-30 512,-36 512,-36 512,-104 512,-104 512,-110 506,-116 500,-116 500,-116 323,-116 323,-116 317,-116 311,-110 311,-104 311,-104 311,-36 311,-36 311,-30 317,-24 323,-24"/>
<text text-anchor="middle" x="411.5" y="-100.8" font-family="Times,serif" font-size="14.00">address = 0x1232131233</text>
<polyline fill="none" stroke="black" points="311,-93 512,-93 "/>
<text text-anchor="middle" x="411.5" y="-77.8" font-family="Times,serif" font-size="14.00">next: 0x12321323</text>
<polyline fill="none" stroke="black" points="311,-70 512,-70 "/>
<text text-anchor="middle" x="411.5" y="-54.8" font-family="Times,serif" font-size="14.00">data: 777</text>
<polyline fill="none" stroke="black" points="311,-47 512,-47 "/>
<text text-anchor="middle" x="411.5" y="-31.8" font-family="Times,serif" font-size="14.00">prev: 0x3324324</text>
</g>
<!-- node_1_sort&#45;&gt;node_2_sort -->
<g id="edge1" class="edge">
<title>node_1_sort&#45;&gt;node_2_sort</title>
<path fill="none" stroke="black" d="M250.28,-70C266.76,-70 283.93,-70 300.65,-70"/>
<polygon fill="black" stroke="black" points="300.99,-73.5 310.99,-70 300.99,-66.5 300.99,-73.5"/>
</g>
<!-- node_3_sort -->
<g id="node3" class="node">
<title>node_3_sort</title>
<path fill="#a8df8e" stroke="black" d="M560,-24C560,-24 737,-24 737,-24 743,-24 749,-30 749,-36 749,-36 749,-104 749,-104 749,-110 743,-116 737,-116 737,-116 560,-116 560,-116 554,-116 548,-110 548,-104 548,-104 548,-36 548,-36 548,-30 554,-24 560,-24"/>
<text text-anchor="middle" x="648.5" y="-100.8" font-family="Times,serif" font-size="14.00">address = 0x1232131233</text>
<polyline fill="none" stroke="black" points="548,-93 749,-93 "/>
<text text-anchor="middle" x="648.5" y="-77.8" font-family="Times,serif" font-size="14.00">next: 0x12321323</text>
<polyline fill="none" stroke="black" points="548,-70 749,-70 "/>
<text text-anchor="middle" x="648.5" y="-54.8" font-family="Times,serif" font-size="14.00">data: 888</text>
<polyline fill="none" stroke="black" points="548,-47 749,-47 "/>
<text text-anchor="middle" x="648.5" y="-31.8" font-family="Times,serif" font-size="14.00">prev: 0x3324324</text>
</g>
<!-- node_2_sort&#45;&gt;node_3_sort -->
<g id="edge2" class="edge">
<title>node_2_sort&#45;&gt;node_3_sort</title>
<path fill="none" stroke="black" d="M512.16,-70C520.52,-70 529,-70 537.44,-70"/>
<polygon fill="black" stroke="black" points="537.68,-73.5 547.68,-70 537.68,-66.5 537.68,-73.5"/>
</g>
<!-- node_4_sort -->
<g id="node4" class="node">
<title>node_4_sort</title>
<path fill="#a8df8e" stroke="black" d="M797,-24C797,-24 974,-24 974,-24 980,-24 986,-30 986,-36 986,-36 986,-104 986,-104 986,-110 980,-116 974,-116 974,-116 797,-116 797,-116 791,-116 785,-110 785,-104 785,-104 785,-36 785,-36 785,-30 791,-24 797,-24"/>
<text text-anchor="middle" x="885.5" y="-100.8" font-family="Times,serif" font-size="14.00">address = 0x1232131233</text>
<polyline fill="none" stroke="black" points="785,-93 986,-93 "/>
<text text-anchor="middle" x="885.5" y="-77.8" font-family="Times,serif" font-size="14.00">next: 0x12321323</text>
<polyline fill="none" stroke="black" points="785,-70 986,-70 "/>
<text text-anchor="middle" x="885.5" y="-54.8" font-family="Times,serif" font-size="14.00">data: 999</text>
<polyline fill="none" stroke="black" points="785,-47 986,-47 "/>
<text text-anchor="middle" x="885.5" y="-31.8" font-family="Times,serif" font-size="14.00">prev: 0x3324324</text>
</g>
<!-- node_3_sort&#45;&gt;node_4_sort -->
<g id="edge3" class="edge">
<title>node_3_sort&#45;&gt;node_4_sort</title>
<path fill="none" stroke="black" d="M749.16,-70C757.52,-70 766,-70 774.44,-70"/>
<polygon fill="black" stroke="black" points="774.68,-73.5 784.68,-70 774.68,-66.5 774.68,-73.5"/>
</g>
<!-- node_5_sort -->
<g id="node5" class="node">
<title>node_5_sort</title>
<path fill="#a8df8e" stroke="black" d="M1034,-24C1034,-24 1211,-24 1211,-24 1217,-24 1223,-30 1223,-36 1223,-36 1223,-104 1223,-104 1223,-110 1217,-116 1211,-116 1211,-116 1034,-116 1034,-116 1028,-116 1022,-110 1022,-104 1022,-104 1022,-36 1022,-36 1022,-30 1028,-24 1034,-24"/>
<text text-anchor="middle" x="1122.5" y="-100.8" font-family="Times,serif" font-size="14.00">address = 0x1232131233</text>
<polyline fill="none" stroke="black" points="1022,-93 1223,-93 "/>
<text text-anchor="middle" x="1122.5" y="-77.8" font-family="Times,serif" font-size="14.00">next: 0x12321323</text>
<polyline fill="none" stroke="black" points="1022,-70 1223,-70 "/>
<text text-anchor="middle" x="1122.5" y="-54.8" font-family="Times,serif" font-size="14.00">data: 000</text>
<polyline fill="none" stroke="black" points="1022,-47 1223,-47 "/>
<text text-anchor="middle" x="1122.5" y="-31.8" font-family="Times,serif" font-size="14.00">prev: 0x3324324</text>
</g>
<!-- node_4_sort&#45;&gt;node_5_sort -->
<g id="edge4" class="edge">
<title>node_4_sort&#45;&gt;node_5_sort</title>
<path fill="none" stroke="black" d="M986.16,-70C994.52,-70 1003,-70 1011.44,-70"/>
<polygon fill="black" stroke="black" points="1011.68,-73.5 1021.68,-70 1011.68,-66.5 1011.68,-73.5"/>
</g>
<!-- node_1 -->
<g id="node6" class="node">
<title>node_1</title>
<path fill="white" stroke="black" d="M73.5,-210.5C73.5,-210.5 225.5,-210.5 225.5,-210.5 231.5,-210.5 237.5,-216.5 237.5,-222.5 237.5,-222.5 237.5,-301.5 237.5,-301.5 237.5,-307.5 231.5,-313.5 225.5,-313.5 225.5,-313.5 73.5,-313.5 73.5,-313.5 67.5,-313.5 61.5,-307.5 61.5,-301.5 61.5,-301.5 61.5,-222.5 61.5,-222.5 61.5,-216.5 67.5,-210.5 73.5,-210.5"/>
<text text-anchor="middle" x="149.5" y="-266.3" font-family="Times,serif" font-size="14.00">UNINITIALISED DATA</text>
</g>
<!-- node_2 -->
<g id="node7" class="node">
<title>node_2</title>
<path fill="#a8df8e" stroke="black" d="M323,-216C323,-216 500,-216 500,-216 506,-216 512,-222 512,-228 512,-228 512,-296 512,-296 512,-302 506,-308 500,-308 500,-308 323,-308 323,-308 317,-308 311,-302 311,-296 311,-296 311,-228 311,-228 311,-222 317,-216 323,-216"/>
<text text-anchor="middle" x="411.5" y="-292.8" font-family="Times,serif" font-size="14.00">address = 0x1232131233</text>
<polyline fill="none" stroke="black" points="311,-285 512,-285 "/>
<text text-anchor="middle" x="411.5" y="-269.8" font-family="Times,serif" font-size="14.00">next: 0x12321323</text>
<polyline fill="none" stroke="black" points="311,-262 512,-262 "/>
<text text-anchor="middle" x="411.5" y="-246.8" font-family="Times,serif" font-size="14.00">data: 777</text>
<polyline fill="none" stroke="black" points="311,-239 512,-239 "/>
<text text-anchor="middle" x="411.5" y="-223.8" font-family="Times,serif" font-size="14.00">prev: 0x3324324</text>
</g>
<!-- node_1&#45;&gt;node_2 -->
<g id="edge5" class="edge">
<title>node_1&#45;&gt;node_2</title>
<path fill="none" stroke="black" d="M237.8,-262C257.96,-262 279.66,-262 300.64,-262"/>
<polygon fill="black" stroke="black" points="300.87,-265.5 310.87,-262 300.87,-258.5 300.87,-265.5"/>
</g>
<!-- node_3 -->
<g id="node8" class="node">
<title>node_3</title>
<path fill="#a8df8e" stroke="black" d="M560,-216C560,-216 737,-216 737,-216 743,-216 749,-222 749,-228 749,-228 749,-296 749,-296 749,-302 743,-308 737,-308 737,-308 560,-308 560,-308 554,-308 548,-302 548,-296 548,-296 548,-228 548,-228 548,-222 554,-216 560,-216"/>
<text text-anchor="middle" x="648.5" y="-292.8" font-family="Times,serif" font-size="14.00">address = 0x1232131233</text>
<polyline fill="none" stroke="black" points="548,-285 749,-285 "/>
<text text-anchor="middle" x="648.5" y="-269.8" font-family="Times,serif" font-size="14.00">next: 0x12321323</text>
<polyline fill="none" stroke="black" points="548,-262 749,-262 "/>
<text text-anchor="middle" x="648.5" y="-246.8" font-family="Times,serif" font-size="14.00">data: 888</text>
<polyline fill="none" stroke="black" points="548,-239 749,-239 "/>
<text text-anchor="middle" x="648.5" y="-223.8" font-family="Times,serif" font-size="14.00">prev: 0x3324324</text>
</g>
<!-- node_2&#45;&gt;node_3 -->
<g id="edge6" class="edge">
<title>node_2&#45;&gt;node_3</title>
<path fill="none" stroke="black" d="M512.16,-262C520.52,-262 529,-262 537.44,-262"/>
<polygon fill="black" stroke="black" points="537.68,-265.5 547.68,-262 537.68,-258.5 537.68,-265.5"/>
</g>
<!-- node_4 -->
<g id="node9" class="node">
<title>node_4</title>
<path fill="#a8df8e" stroke="black" d="M797,-216C797,-216 974,-216 974,-216 980,-216 986,-222 986,-228 986,-228 986,-296 986,-296 986,-302 980,-308 974,-308 974,-308 797,-308 797,-308 791,-308 785,-302 785,-296 785,-296 785,-228 785,-228 785,-222 791,-216 797,-216"/>
<text text-anchor="middle" x="885.5" y="-292.8" font-family="Times,serif" font-size="14.00">address = 0x1232131233</text>
<polyline fill="none" stroke="black" points="785,-285 986,-285 "/>
<text text-anchor="middle" x="885.5" y="-269.8" font-family="Times,serif" font-size="14.00">next: 0x12321323</text>
<polyline fill="none" stroke="black" points="785,-262 986,-262 "/>
<text text-anchor="middle" x="885.5" y="-246.8" font-family="Times,serif" font-size="14.00">data: 999</text>
<polyline fill="none" stroke="black" points="785,-239 986,-239 "/>
<text text-anchor="middle" x="885.5" y="-223.8" font-family="Times,serif" font-size="14.00">prev: 0x3324324</text>
</g>
<!-- node_3&#45;&gt;node_4 -->
<g id="edge7" class="edge">
<title>node_3&#45;&gt;node_4</title>
<path fill="none" stroke="black" d="M749.16,-262C757.52,-262 766,-262 774.44,-262"/>
<polygon fill="black" stroke="black" points="774.68,-265.5 784.68,-262 774.68,-258.5 774.68,-265.5"/>
</g>
<!-- node_5 -->
<g id="node10" class="node">
<title>node_5</title>
<path fill="#a8df8e" stroke="black" d="M1034,-216C1034,-216 1211,-216 1211,-216 1217,-216 1223,-222 1223,-228 1223,-228 1223,-296 1223,-296 1223,-302 1217,-308 1211,-308 1211,-308 1034,-308 1034,-308 1028,-308 1022,-302 1022,-296 1022,-296 1022,-228 1022,-228 1022,-222 1028,-216 1034,-216"/>
<text text-anchor="middle" x="1122.5" y="-292.8" font-family="Times,serif" font-size="14.00">address = 0x1232131233</text>
<polyline fill="none" stroke="black" points="1022,-285 1223,-285 "/>
<text text-anchor="middle" x="1122.5" y="-269.8" font-family="Times,serif" font-size="14.00">next: 0x12321323</text>
<polyline fill="none" stroke="black" points="1022,-262 1223,-262 "/>
<text text-anchor="middle" x="1122.5" y="-246.8" font-family="Times,serif" font-size="14.00">data: 000</text>
<polyline fill="none" stroke="black" points="1022,-239 1223,-239 "/>
<text text-anchor="middle" x="1122.5" y="-223.8" font-family="Times,serif" font-size="14.00">prev: 0x3324324</text>
</g>
<!-- node_4&#45;&gt;node_5 -->
<g id="edge8" class="edge">
<title>node_4&#45;&gt;node_5</title>
<path fill="none" stroke="black" d="M986.16,-262C994.52,-262 1003,-262 1011.44,-262"/>
<polygon fill="black" stroke="black" points="1011.68,-265.5 1021.68,-262 1011.68,-258.5 1011.68,-265.5"/>
</g>
<!-- head -->
<g id="node11" class="node">
<title>head</title>
<path fill="#febe5e" stroke="black" d="M323,-407C323,-407 500,-407 500,-407 506,-407 512,-413 512,-419 512,-419 512,-487 512,-487 512,-493 506,-499 500,-499 500,-499 323,-499 323,-499 317,-499 311,-493 311,-487 311,-487 311,-419 311,-419 311,-413 317,-407 323,-407"/>
<text text-anchor="middle" x="411.5" y="-483.8" font-family="Times,serif" font-size="14.00">address = 0x1232131233</text>
<polyline fill="none" stroke="black" points="311,-476 512,-476 "/>
<text text-anchor="middle" x="411.5" y="-460.8" font-family="Times,serif" font-size="14.00">next: 0x12321323</text>
<polyline fill="none" stroke="black" points="311,-453 512,-453 "/>
<text text-anchor="middle" x="411.5" y="-437.8" font-family="Times,serif" font-size="14.00">data: 333</text>
<polyline fill="none" stroke="black" points="311,-430 512,-430 "/>
<text text-anchor="middle" x="411.5" y="-414.8" font-family="Times,serif" font-size="14.00">prev: 0x3324324</text>
</g>
<!-- tail -->
<g id="node12" class="node">
<title>tail</title>
<path fill="#febe5e" stroke="black" d="M560,-407C560,-407 737,-407 737,-407 743,-407 749,-413 749,-419 749,-419 749,-487 749,-487 749,-493 743,-499 737,-499 737,-499 560,-499 560,-499 554,-499 548,-493 548,-487 548,-487 548,-419 548,-419 548,-413 554,-407 560,-407"/>
<text text-anchor="middle" x="648.5" y="-483.8" font-family="Times,serif" font-size="14.00">address = 0x1232131233</text>
<polyline fill="none" stroke="black" points="548,-476 749,-476 "/>
<text text-anchor="middle" x="648.5" y="-460.8" font-family="Times,serif" font-size="14.00">next: 0x12321323</text>
<polyline fill="none" stroke="black" points="548,-453 749,-453 "/>
<text text-anchor="middle" x="648.5" y="-437.8" font-family="Times,serif" font-size="14.00">data: 444</text>
<polyline fill="none" stroke="black" points="548,-430 749,-430 "/>
<text text-anchor="middle" x="648.5" y="-414.8" font-family="Times,serif" font-size="14.00">prev: 0x3324324</text>
</g>
<!-- head&#45;&gt;tail -->
<g id="edge10" class="edge">
<title>head&#45;&gt;tail</title>
<path fill="none" stroke="#b2dcff" d="M512.16,-453C520.52,-453 529,-453 537.44,-453"/>
<polygon fill="#b2dcff" stroke="#b2dcff" points="537.68,-456.5 547.68,-453 537.68,-449.5 537.68,-456.5"/>
</g>
<!-- last_insert -->
<g id="node13" class="node">
<title>last_insert</title>
<path fill="#febe5e" stroke="black" d="M797,-407C797,-407 974,-407 974,-407 980,-407 986,-413 986,-419 986,-419 986,-487 986,-487 986,-493 980,-499 974,-499 974,-499 797,-499 797,-499 791,-499 785,-493 785,-487 785,-487 785,-419 785,-419 785,-413 791,-407 797,-407"/>
<text text-anchor="middle" x="885.5" y="-483.8" font-family="Times,serif" font-size="14.00">address = 0x1232131233</text>
<polyline fill="none" stroke="black" points="785,-476 986,-476 "/>
<text text-anchor="middle" x="885.5" y="-460.8" font-family="Times,serif" font-size="14.00">next: 0x12321323</text>
<polyline fill="none" stroke="black" points="785,-453 986,-453 "/>
<text text-anchor="middle" x="885.5" y="-437.8" font-family="Times,serif" font-size="14.00">data: 555</text>
<polyline fill="none" stroke="black" points="785,-430 986,-430 "/>
<text text-anchor="middle" x="885.5" y="-414.8" font-family="Times,serif" font-size="14.00">prev: 0x3324324</text>
</g>
<!-- tail&#45;&gt;last_insert -->
<g id="edge11" class="edge">
<title>tail&#45;&gt;last_insert</title>
<path fill="none" stroke="#b2dcff" d="M749.16,-453C757.52,-453 766,-453 774.44,-453"/>
<polygon fill="#b2dcff" stroke="#b2dcff" points="774.68,-456.5 784.68,-453 774.68,-449.5 774.68,-456.5"/>
</g>
<!-- data -->
<g id="node14" class="node">
<title>data</title>
<path fill="#febe5e" stroke="black" d="M36,-418.5C36,-418.5 263,-418.5 263,-418.5 269,-418.5 275,-424.5 275,-430.5 275,-430.5 275,-475.5 275,-475.5 275,-481.5 269,-487.5 263,-487.5 263,-487.5 36,-487.5 36,-487.5 30,-487.5 24,-481.5 24,-475.5 24,-475.5 24,-430.5 24,-430.5 24,-424.5 30,-418.5 36,-418.5"/>
<text text-anchor="middle" x="149.5" y="-472.3" font-family="Times,serif" font-size="14.00">list pointer = 0x12342324</text>
<polyline fill="none" stroke="black" points="24,-464.5 275,-464.5 "/>
<text text-anchor="middle" x="149.5" y="-449.3" font-family="Times,serif" font-size="14.00">list capacity = 5</text>
<polyline fill="none" stroke="black" points="24,-441.5 275,-441.5 "/>
<text text-anchor="middle" x="149.5" y="-426.3" font-family="Times,serif" font-size="14.00">list node array = 0x2134234ewq</text>
</g>
<!-- data&#45;&gt;head -->
<g id="edge9" class="edge">
<title>data&#45;&gt;head</title>
<path fill="none" stroke="#b2dcff" d="M275.17,-453C283.69,-453 292.25,-453 300.69,-453"/>
<polygon fill="#b2dcff" stroke="#b2dcff" points="300.91,-456.5 310.91,-453 300.91,-449.5 300.91,-456.5"/>
</g>
</g>
</svg>
