<?xml version="1.0" encoding="UTF-8" standalone="no"?>
<!DOCTYPE svg PUBLIC "-//W3C//DTD SVG 1.1//EN"
 "http://www.w3.org/Graphics/SVG/1.1/DTD/svg11.dtd">
<!-- Generated by graphviz version 2.43.0 (0)
 -->
<!-- Title: %3 Pages: 1 -->
<svg width="1735pt" height="633pt"
 viewBox="0.00 0.00 1735.00 633.00" xmlns="http://www.w3.org/2000/svg" xmlns:xlink="http://www.w3.org/1999/xlink">
<g id="graph0" class="graph" transform="scale(1 1) rotate(0) translate(4 629)">
<title>%3</title>
<polygon fill="#b2dcff" stroke="transparent" points="-4,4 -4,-629 1731,-629 1731,4 -4,4"/>
<g id="clust1" class="cluster">
<title>cluster_node_array_sort</title>
<polygon fill="#b2dcff" stroke="#b2dcff" points="32,-8 32,-234 1017,-234 1017,-8 32,-8"/>
<text text-anchor="middle" x="524.5" y="-214" font-family="Times,serif" font-size="20.00">Node array sort</text>
</g>
<g id="clust2" class="cluster">
<title>cluster_node_0_sort</title>
<polygon fill="#b2dcff" stroke="#b2dcff" points="40,-64 40,-196 269,-196 269,-64 40,-64"/>
<text text-anchor="middle" x="154.5" y="-180.8" font-family="Times,serif" font-size="14.00">0</text>
</g>
<g id="clust3" class="cluster">
<title>cluster_node_1_sort</title>
<polygon fill="#b2dcff" stroke="#b2dcff" points="421,-16 421,-148 651,-148 651,-16 421,-16"/>
<text text-anchor="middle" x="536" y="-132.8" font-family="Times,serif" font-size="14.00">1</text>
</g>
<g id="clust4" class="cluster">
<title>cluster_node_2_sort</title>
<polygon fill="#b2dcff" stroke="#b2dcff" points="779,-64 779,-196 1009,-196 1009,-64 779,-64"/>
<text text-anchor="middle" x="894" y="-180.8" font-family="Times,serif" font-size="14.00">2</text>
</g>
<g id="clust5" class="cluster">
<title>cluster_node_array_unsort</title>
<polygon fill="#b2dcff" stroke="#b2dcff" points="50.5,-242 50.5,-431 1719,-431 1719,-242 50.5,-242"/>
<text text-anchor="middle" x="884.75" y="-411" font-family="Times,serif" font-size="20.00">Node array</text>
</g>
<g id="clust6" class="cluster">
<title>cluster_node_1</title>
<polygon fill="#b2dcff" stroke="#b2dcff" points="58.5,-250 58.5,-393 250.5,-393 250.5,-250 58.5,-250"/>
<text text-anchor="middle" x="154.5" y="-377.8" font-family="Times,serif" font-size="14.00">1</text>
</g>
<g id="clust7" class="cluster">
<title>cluster_node_2</title>
<polygon fill="#b2dcff" stroke="#b2dcff" points="427.5,-256 427.5,-388 644.5,-388 644.5,-256 427.5,-256"/>
<text text-anchor="middle" x="536" y="-372.8" font-family="Times,serif" font-size="14.00">2</text>
</g>
<g id="clust8" class="cluster">
<title>cluster_node_3</title>
<polygon fill="#b2dcff" stroke="#b2dcff" points="785.5,-256 785.5,-388 1002.5,-388 1002.5,-256 785.5,-256"/>
<text text-anchor="middle" x="894" y="-372.8" font-family="Times,serif" font-size="14.00">3</text>
</g>
<g id="clust9" class="cluster">
<title>cluster_node_4</title>
<polygon fill="#b2dcff" stroke="#b2dcff" points="1143,-256 1143,-388 1360,-388 1360,-256 1143,-256"/>
<text text-anchor="middle" x="1251.5" y="-372.8" font-family="Times,serif" font-size="14.00">4</text>
</g>
<g id="clust10" class="cluster">
<title>cluster_node_5</title>
<polygon fill="#b2dcff" stroke="#b2dcff" points="1494,-256 1494,-388 1711,-388 1711,-256 1494,-256"/>
<text text-anchor="middle" x="1602.5" y="-372.8" font-family="Times,serif" font-size="14.00">5</text>
</g>
<g id="clust11" class="cluster">
<title>cluster_struct_list</title>
<polygon fill="#b2dcff" stroke="#b2dcff" points="8,-439 8,-617 1374,-617 1374,-439 8,-439"/>
<text text-anchor="middle" x="691" y="-597" font-family="Times,serif" font-size="20.00"> &#160;&#160;&#160;&#160;&#160;&#160;&#160;&#160;&#160;&#160;&#160;&#160;&#160;&#160;&#160;&#160;&#160;&#160;&#160;&#160;&#160;&#160;&#160;&#160;&#160;&#160;&#160;&#160;&#160;&#160;&#160;&#160;&#160;&#160;&#160;&#160;&#160;&#160;&#160;&#160;&#160;&#160;Struct List</text>
</g>
<g id="clust12" class="cluster">
<title>cluster_node_list_data</title>
<polygon fill="#b2dcff" stroke="#b2dcff" points="16,-458 16,-567 293,-567 293,-458 16,-458"/>
<text text-anchor="middle" x="154.5" y="-551.8" font-family="Times,serif" font-size="14.00">Data</text>
</g>
<g id="clust13" class="cluster">
<title>cluster_head</title>
<polygon fill="#b2dcff" stroke="#b2dcff" points="421.5,-447 421.5,-579 650.5,-579 650.5,-447 421.5,-447"/>
<text text-anchor="middle" x="536" y="-563.8" font-family="Times,serif" font-size="14.00">Head</text>
</g>
<g id="clust14" class="cluster">
<title>cluster_tail</title>
<polygon fill="#b2dcff" stroke="#b2dcff" points="779.5,-447 779.5,-579 1008.5,-579 1008.5,-447 779.5,-447"/>
<text text-anchor="middle" x="894" y="-563.8" font-family="Times,serif" font-size="14.00">Tail</text>
</g>
<g id="clust15" class="cluster">
<title>cluster_last_insert</title>
<polygon fill="#b2dcff" stroke="#b2dcff" points="1137,-447 1137,-579 1366,-579 1366,-447 1137,-447"/>
<text text-anchor="middle" x="1251.5" y="-563.8" font-family="Times,serif" font-size="14.00">Last insert</text>
</g>
<!-- node_0_sort -->
<g id="node1" class="node">
<title>node_0_sort</title>
<path fill="#a8df8e" stroke="black" d="M60,-72C60,-72 249,-72 249,-72 255,-72 261,-78 261,-84 261,-84 261,-152 261,-152 261,-158 255,-164 249,-164 249,-164 60,-164 60,-164 54,-164 48,-158 48,-152 48,-152 48,-84 48,-84 48,-78 54,-72 60,-72"/>
<text text-anchor="middle" x="154.5" y="-148.8" font-family="Times,serif" font-size="14.00">address = 0x57cd1f5492a0</text>
<polyline fill="none" stroke="black" points="48,-141 261,-141 "/>
<text text-anchor="middle" x="154.5" y="-125.8" font-family="Times,serif" font-size="14.00">next: 0x57cd1f5492b8</text>
<polyline fill="none" stroke="black" points="48,-118 261,-118 "/>
<text text-anchor="middle" x="154.5" y="-102.8" font-family="Times,serif" font-size="14.00">data: 51</text>
<polyline fill="none" stroke="black" points="48,-95 261,-95 "/>
<text text-anchor="middle" x="154.5" y="-79.8" font-family="Times,serif" font-size="14.00">prev: 0x57cd1f5492e8</text>
</g>
<!-- node_1_sort -->
<g id="node2" class="node">
<title>node_1_sort</title>
<path fill="#a8df8e" stroke="black" d="M441,-24C441,-24 631,-24 631,-24 637,-24 643,-30 643,-36 643,-36 643,-104 643,-104 643,-110 637,-116 631,-116 631,-116 441,-116 441,-116 435,-116 429,-110 429,-104 429,-104 429,-36 429,-36 429,-30 435,-24 441,-24"/>
<text text-anchor="middle" x="536" y="-100.8" font-family="Times,serif" font-size="14.00">address = 0x57cd1f5492b8</text>
<polyline fill="none" stroke="black" points="429,-93 643,-93 "/>
<text text-anchor="middle" x="536" y="-77.8" font-family="Times,serif" font-size="14.00">next: 0x57cd1f5492d0</text>
<polyline fill="none" stroke="black" points="429,-70 643,-70 "/>
<text text-anchor="middle" x="536" y="-54.8" font-family="Times,serif" font-size="14.00">data: 61</text>
<polyline fill="none" stroke="black" points="429,-47 643,-47 "/>
<text text-anchor="middle" x="536" y="-31.8" font-family="Times,serif" font-size="14.00">prev: 0x57cd1f5492a0</text>
</g>
<!-- node_0_sort&#45;&gt;node_1_sort -->
<g id="edge1" class="edge">
<title>node_0_sort&#45;&gt;node_1_sort</title>
<path fill="none" stroke="black" d="M261.21,-116.88C310.25,-112.24 368.67,-104.95 418.93,-97.23"/>
<polygon fill="black" stroke="black" points="419.53,-100.68 428.87,-95.68 418.45,-93.77 419.53,-100.68"/>
</g>
<!-- node_2_sort -->
<g id="node3" class="node">
<title>node_2_sort</title>
<path fill="#a8df8e" stroke="black" d="M799,-72C799,-72 989,-72 989,-72 995,-72 1001,-78 1001,-84 1001,-84 1001,-152 1001,-152 1001,-158 995,-164 989,-164 989,-164 799,-164 799,-164 793,-164 787,-158 787,-152 787,-152 787,-84 787,-84 787,-78 793,-72 799,-72"/>
<text text-anchor="middle" x="894" y="-148.8" font-family="Times,serif" font-size="14.00">address = 0x57cd1f5492d0</text>
<polyline fill="none" stroke="black" points="787,-141 1001,-141 "/>
<text text-anchor="middle" x="894" y="-125.8" font-family="Times,serif" font-size="14.00">next: 0x57cd1f5492e8</text>
<polyline fill="none" stroke="black" points="787,-118 1001,-118 "/>
<text text-anchor="middle" x="894" y="-102.8" font-family="Times,serif" font-size="14.00">data: 71</text>
<polyline fill="none" stroke="black" points="787,-95 1001,-95 "/>
<text text-anchor="middle" x="894" y="-79.8" font-family="Times,serif" font-size="14.00">prev: 0x57cd1f5492b8</text>
</g>
<!-- node_0_sort&#45;&gt;node_2_sort -->
<g id="edge6" class="edge">
<title>node_0_sort&#45;&gt;node_2_sort</title>
<path fill="none" stroke="red" d="M261.14,-134.67C309.7,-141.52 368.13,-148.63 421,-152 523.02,-158.51 549.03,-159.13 651,-152 692.16,-149.12 736.98,-143.52 776.73,-137.69"/>
<polygon fill="red" stroke="red" points="777.34,-141.13 786.72,-136.2 776.31,-134.21 777.34,-141.13"/>
</g>
<!-- node_1_sort&#45;&gt;node_0_sort -->
<g id="edge5" class="edge">
<title>node_1_sort&#45;&gt;node_0_sort</title>
<path fill="none" stroke="red" d="M428.87,-71.16C379.78,-75.82 321.35,-83.12 271.14,-90.83"/>
<polygon fill="red" stroke="red" points="270.55,-87.38 261.21,-92.38 271.63,-94.3 270.55,-87.38"/>
</g>
<!-- node_1_sort&#45;&gt;node_2_sort -->
<g id="edge2" class="edge">
<title>node_1_sort&#45;&gt;node_2_sort</title>
<path fill="none" stroke="black" d="M643.33,-96.81C685.43,-103.76 733.96,-110.39 776.97,-115.1"/>
<polygon fill="black" stroke="black" points="776.6,-118.58 786.91,-116.16 777.34,-111.62 776.6,-118.58"/>
</g>
<!-- node_2_sort&#45;&gt;node_0_sort -->
<g id="edge3" class="edge">
<title>node_2_sort&#45;&gt;node_0_sort</title>
<path fill="none" stroke="black" d="M786.78,-144.28C744.78,-153.42 695.89,-162.5 651,-167 549.29,-177.19 522.8,-176.32 421,-167 371.53,-162.47 317.53,-153.3 271.21,-144.1"/>
<polygon fill="black" stroke="black" points="271.64,-140.61 261.15,-142.07 270.26,-147.48 271.64,-140.61"/>
</g>
<!-- node_2_sort&#45;&gt;node_1_sort -->
<g id="edge4" class="edge">
<title>node_2_sort&#45;&gt;node_1_sort</title>
<path fill="none" stroke="red" d="M786.91,-91.23C744.83,-84.28 696.31,-77.64 653.28,-72.93"/>
<polygon fill="red" stroke="red" points="653.65,-69.45 643.33,-71.86 652.9,-76.41 653.65,-69.45"/>
</g>
<!-- node_1 -->
<g id="node4" class="node">
<title>node_1</title>
<path fill="white" stroke="black" d="M78.5,-258.5C78.5,-258.5 230.5,-258.5 230.5,-258.5 236.5,-258.5 242.5,-264.5 242.5,-270.5 242.5,-270.5 242.5,-349.5 242.5,-349.5 242.5,-355.5 236.5,-361.5 230.5,-361.5 230.5,-361.5 78.5,-361.5 78.5,-361.5 72.5,-361.5 66.5,-355.5 66.5,-349.5 66.5,-349.5 66.5,-270.5 66.5,-270.5 66.5,-264.5 72.5,-258.5 78.5,-258.5"/>
<text text-anchor="middle" x="154.5" y="-314.3" font-family="Times,serif" font-size="14.00">UNINITIALISED DATA</text>
</g>
<!-- node_2 -->
<g id="node5" class="node">
<title>node_2</title>
<path fill="#a8df8e" stroke="black" d="M447.5,-264C447.5,-264 624.5,-264 624.5,-264 630.5,-264 636.5,-270 636.5,-276 636.5,-276 636.5,-344 636.5,-344 636.5,-350 630.5,-356 624.5,-356 624.5,-356 447.5,-356 447.5,-356 441.5,-356 435.5,-350 435.5,-344 435.5,-344 435.5,-276 435.5,-276 435.5,-270 441.5,-264 447.5,-264"/>
<text text-anchor="middle" x="536" y="-340.8" font-family="Times,serif" font-size="14.00">address = 0x1232131233</text>
<polyline fill="none" stroke="black" points="435.5,-333 636.5,-333 "/>
<text text-anchor="middle" x="536" y="-317.8" font-family="Times,serif" font-size="14.00">next: 0x12321323</text>
<polyline fill="none" stroke="black" points="435.5,-310 636.5,-310 "/>
<text text-anchor="middle" x="536" y="-294.8" font-family="Times,serif" font-size="14.00">data: 777</text>
<polyline fill="none" stroke="black" points="435.5,-287 636.5,-287 "/>
<text text-anchor="middle" x="536" y="-271.8" font-family="Times,serif" font-size="14.00">prev: 0x3324324</text>
</g>
<!-- node_1&#45;&gt;node_2 -->
<g id="edge7" class="edge">
<title>node_1&#45;&gt;node_2</title>
<path fill="none" stroke="black" d="M242.56,-310C296.75,-310 366.93,-310 424.96,-310"/>
<polygon fill="black" stroke="black" points="425.27,-313.5 435.27,-310 425.27,-306.5 425.27,-313.5"/>
</g>
<!-- node_3 -->
<g id="node6" class="node">
<title>node_3</title>
<path fill="#a8df8e" stroke="black" d="M805.5,-264C805.5,-264 982.5,-264 982.5,-264 988.5,-264 994.5,-270 994.5,-276 994.5,-276 994.5,-344 994.5,-344 994.5,-350 988.5,-356 982.5,-356 982.5,-356 805.5,-356 805.5,-356 799.5,-356 793.5,-350 793.5,-344 793.5,-344 793.5,-276 793.5,-276 793.5,-270 799.5,-264 805.5,-264"/>
<text text-anchor="middle" x="894" y="-340.8" font-family="Times,serif" font-size="14.00">address = 0x1232131233</text>
<polyline fill="none" stroke="black" points="793.5,-333 994.5,-333 "/>
<text text-anchor="middle" x="894" y="-317.8" font-family="Times,serif" font-size="14.00">next: 0x12321323</text>
<polyline fill="none" stroke="black" points="793.5,-310 994.5,-310 "/>
<text text-anchor="middle" x="894" y="-294.8" font-family="Times,serif" font-size="14.00">data: 888</text>
<polyline fill="none" stroke="black" points="793.5,-287 994.5,-287 "/>
<text text-anchor="middle" x="894" y="-271.8" font-family="Times,serif" font-size="14.00">prev: 0x3324324</text>
</g>
<!-- node_2&#45;&gt;node_3 -->
<g id="edge8" class="edge">
<title>node_2&#45;&gt;node_3</title>
<path fill="none" stroke="black" d="M636.64,-310C682.25,-310 736.43,-310 783.21,-310"/>
<polygon fill="black" stroke="black" points="783.38,-313.5 793.38,-310 783.38,-306.5 783.38,-313.5"/>
</g>
<!-- node_4 -->
<g id="node7" class="node">
<title>node_4</title>
<path fill="#a8df8e" stroke="black" d="M1163,-264C1163,-264 1340,-264 1340,-264 1346,-264 1352,-270 1352,-276 1352,-276 1352,-344 1352,-344 1352,-350 1346,-356 1340,-356 1340,-356 1163,-356 1163,-356 1157,-356 1151,-350 1151,-344 1151,-344 1151,-276 1151,-276 1151,-270 1157,-264 1163,-264"/>
<text text-anchor="middle" x="1251.5" y="-340.8" font-family="Times,serif" font-size="14.00">address = 0x1232131233</text>
<polyline fill="none" stroke="black" points="1151,-333 1352,-333 "/>
<text text-anchor="middle" x="1251.5" y="-317.8" font-family="Times,serif" font-size="14.00">next: 0x12321323</text>
<polyline fill="none" stroke="black" points="1151,-310 1352,-310 "/>
<text text-anchor="middle" x="1251.5" y="-294.8" font-family="Times,serif" font-size="14.00">data: 999</text>
<polyline fill="none" stroke="black" points="1151,-287 1352,-287 "/>
<text text-anchor="middle" x="1251.5" y="-271.8" font-family="Times,serif" font-size="14.00">prev: 0x3324324</text>
</g>
<!-- node_3&#45;&gt;node_4 -->
<g id="edge9" class="edge">
<title>node_3&#45;&gt;node_4</title>
<path fill="none" stroke="black" d="M994.97,-310C1040.41,-310 1094.3,-310 1140.85,-310"/>
<polygon fill="black" stroke="black" points="1140.97,-313.5 1150.97,-310 1140.97,-306.5 1140.97,-313.5"/>
</g>
<!-- node_5 -->
<g id="node8" class="node">
<title>node_5</title>
<path fill="#a8df8e" stroke="black" d="M1514,-264C1514,-264 1691,-264 1691,-264 1697,-264 1703,-270 1703,-276 1703,-276 1703,-344 1703,-344 1703,-350 1697,-356 1691,-356 1691,-356 1514,-356 1514,-356 1508,-356 1502,-350 1502,-344 1502,-344 1502,-276 1502,-276 1502,-270 1508,-264 1514,-264"/>
<text text-anchor="middle" x="1602.5" y="-340.8" font-family="Times,serif" font-size="14.00">address = 0x1232131233</text>
<polyline fill="none" stroke="black" points="1502,-333 1703,-333 "/>
<text text-anchor="middle" x="1602.5" y="-317.8" font-family="Times,serif" font-size="14.00">next: 0x12321323</text>
<polyline fill="none" stroke="black" points="1502,-310 1703,-310 "/>
<text text-anchor="middle" x="1602.5" y="-294.8" font-family="Times,serif" font-size="14.00">data: 000</text>
<polyline fill="none" stroke="black" points="1502,-287 1703,-287 "/>
<text text-anchor="middle" x="1602.5" y="-271.8" font-family="Times,serif" font-size="14.00">prev: 0x3324324</text>
</g>
<!-- node_4&#45;&gt;node_5 -->
<g id="edge10" class="edge">
<title>node_4&#45;&gt;node_5</title>
<path fill="none" stroke="black" d="M1352.04,-310C1395.69,-310 1447.05,-310 1491.79,-310"/>
<polygon fill="black" stroke="black" points="1491.83,-313.5 1501.83,-310 1491.83,-306.5 1491.83,-313.5"/>
</g>
<!-- head -->
<g id="node9" class="node">
<title>head</title>
<path fill="#febe5e" stroke="black" d="M441.5,-455C441.5,-455 630.5,-455 630.5,-455 636.5,-455 642.5,-461 642.5,-467 642.5,-467 642.5,-535 642.5,-535 642.5,-541 636.5,-547 630.5,-547 630.5,-547 441.5,-547 441.5,-547 435.5,-547 429.5,-541 429.5,-535 429.5,-535 429.5,-467 429.5,-467 429.5,-461 435.5,-455 441.5,-455"/>
<text text-anchor="middle" x="536" y="-531.8" font-family="Times,serif" font-size="14.00">address = 0x57cd1f5492a0</text>
<polyline fill="none" stroke="black" points="429.5,-524 642.5,-524 "/>
<text text-anchor="middle" x="536" y="-508.8" font-family="Times,serif" font-size="14.00">next: 0x57cd1f5492b8</text>
<polyline fill="none" stroke="black" points="429.5,-501 642.5,-501 "/>
<text text-anchor="middle" x="536" y="-485.8" font-family="Times,serif" font-size="14.00">data: 51</text>
<polyline fill="none" stroke="black" points="429.5,-478 642.5,-478 "/>
<text text-anchor="middle" x="536" y="-462.8" font-family="Times,serif" font-size="14.00">prev: 0x57cd1f5492e8</text>
</g>
<!-- tail -->
<g id="node10" class="node">
<title>tail</title>
<path fill="#febe5e" stroke="black" d="M799.5,-455C799.5,-455 988.5,-455 988.5,-455 994.5,-455 1000.5,-461 1000.5,-467 1000.5,-467 1000.5,-535 1000.5,-535 1000.5,-541 994.5,-547 988.5,-547 988.5,-547 799.5,-547 799.5,-547 793.5,-547 787.5,-541 787.5,-535 787.5,-535 787.5,-467 787.5,-467 787.5,-461 793.5,-455 799.5,-455"/>
<text text-anchor="middle" x="894" y="-531.8" font-family="Times,serif" font-size="14.00">address = 0x57cd1f5492e8</text>
<polyline fill="none" stroke="black" points="787.5,-524 1000.5,-524 "/>
<text text-anchor="middle" x="894" y="-508.8" font-family="Times,serif" font-size="14.00">next: 0x57cd1f5492a0</text>
<polyline fill="none" stroke="black" points="787.5,-501 1000.5,-501 "/>
<text text-anchor="middle" x="894" y="-485.8" font-family="Times,serif" font-size="14.00">data: 123</text>
<polyline fill="none" stroke="black" points="787.5,-478 1000.5,-478 "/>
<text text-anchor="middle" x="894" y="-462.8" font-family="Times,serif" font-size="14.00">prev: 0x57cd1f5492d0</text>
</g>
<!-- head&#45;&gt;tail -->
<g id="edge12" class="edge">
<title>head&#45;&gt;tail</title>
<path fill="none" stroke="#b2dcff" d="M642.85,-501C685.07,-501 733.8,-501 776.98,-501"/>
<polygon fill="#b2dcff" stroke="#b2dcff" points="777.25,-504.5 787.25,-501 777.25,-497.5 777.25,-504.5"/>
</g>
<!-- last_insert -->
<g id="node11" class="node">
<title>last_insert</title>
<path fill="#febe5e" stroke="black" d="M1157,-455C1157,-455 1346,-455 1346,-455 1352,-455 1358,-461 1358,-467 1358,-467 1358,-535 1358,-535 1358,-541 1352,-547 1346,-547 1346,-547 1157,-547 1157,-547 1151,-547 1145,-541 1145,-535 1145,-535 1145,-467 1145,-467 1145,-461 1151,-455 1157,-455"/>
<text text-anchor="middle" x="1251.5" y="-531.8" font-family="Times,serif" font-size="14.00">address = 0x57cd1f5492e8</text>
<polyline fill="none" stroke="black" points="1145,-524 1358,-524 "/>
<text text-anchor="middle" x="1251.5" y="-508.8" font-family="Times,serif" font-size="14.00">next: 0x57cd1f5492a0</text>
<polyline fill="none" stroke="black" points="1145,-501 1358,-501 "/>
<text text-anchor="middle" x="1251.5" y="-485.8" font-family="Times,serif" font-size="14.00">data: 123</text>
<polyline fill="none" stroke="black" points="1145,-478 1358,-478 "/>
<text text-anchor="middle" x="1251.5" y="-462.8" font-family="Times,serif" font-size="14.00">prev: 0x57cd1f5492d0</text>
</g>
<!-- tail&#45;&gt;last_insert -->
<g id="edge13" class="edge">
<title>tail&#45;&gt;last_insert</title>
<path fill="none" stroke="#b2dcff" d="M1000.7,-501C1042.86,-501 1091.53,-501 1134.64,-501"/>
<polygon fill="#b2dcff" stroke="#b2dcff" points="1134.9,-504.5 1144.9,-501 1134.9,-497.5 1134.9,-504.5"/>
</g>
<!-- data -->
<g id="node12" class="node">
<title>data</title>
<path fill="#febe5e" stroke="black" d="M36,-466.5C36,-466.5 273,-466.5 273,-466.5 279,-466.5 285,-472.5 285,-478.5 285,-478.5 285,-523.5 285,-523.5 285,-529.5 279,-535.5 273,-535.5 273,-535.5 36,-535.5 36,-535.5 30,-535.5 24,-529.5 24,-523.5 24,-523.5 24,-478.5 24,-478.5 24,-472.5 30,-466.5 36,-466.5"/>
<text text-anchor="middle" x="154.5" y="-520.3" font-family="Times,serif" font-size="14.00">list pointer = 0x7ffdcc4cafc0</text>
<polyline fill="none" stroke="black" points="24,-512.5 285,-512.5 "/>
<text text-anchor="middle" x="154.5" y="-497.3" font-family="Times,serif" font-size="14.00">list capacity = 5</text>
<polyline fill="none" stroke="black" points="24,-489.5 285,-489.5 "/>
<text text-anchor="middle" x="154.5" y="-474.3" font-family="Times,serif" font-size="14.00">list node array = 0x57cd1f5492a0</text>
</g>
<!-- data&#45;&gt;head -->
<g id="edge11" class="edge">
<title>data&#45;&gt;head</title>
<path fill="none" stroke="#b2dcff" d="M285.04,-501C328.58,-501 376.83,-501 419.23,-501"/>
<polygon fill="#b2dcff" stroke="#b2dcff" points="419.31,-504.5 429.31,-501 419.31,-497.5 419.31,-504.5"/>
</g>
</g>
</svg>
