<?xml version="1.0" encoding="UTF-8" standalone="no"?>
<!DOCTYPE svg PUBLIC "-//W3C//DTD SVG 1.1//EN"
 "http://www.w3.org/Graphics/SVG/1.1/DTD/svg11.dtd">
<!-- Generated by graphviz version 2.43.0 (0)
 -->
<!-- Title: %3 Pages: 1 -->
<svg width="1224pt" height="677pt"
 viewBox="0.00 0.00 1224.00 677.00" xmlns="http://www.w3.org/2000/svg" xmlns:xlink="http://www.w3.org/1999/xlink">
<g id="graph0" class="graph" transform="scale(1 1) rotate(0) translate(4 673)">
<title>%3</title>
<polygon fill="#b2dcff" stroke="transparent" points="-4,4 -4,-673 1220,-673 1220,4 -4,4"/>
<g id="clust1" class="cluster">
<title>cluster_node_array_sort</title>
<polygon fill="#b2dcff" stroke="#b2dcff" points="56,-8 56,-222 302,-222 302,-8 56,-8"/>
<text text-anchor="middle" x="179" y="-202" font-family="Helvetica,sans-Serif" font-size="20.00">Node array sort</text>
</g>
<g id="clust2" class="cluster">
<title>cluster_node_0_sort</title>
<polygon fill="#b2dcff" stroke="#b2dcff" points="64,-16 64,-184 294,-184 294,-16 64,-16"/>
<text text-anchor="middle" x="179" y="-168.8" font-family="Helvetica,sans-Serif" font-size="14.00">0</text>
</g>
<g id="clust3" class="cluster">
<title>cluster_node_array_unsort</title>
<polygon fill="#b2dcff" stroke="#b2dcff" points="56,-230 56,-431 302,-431 302,-230 56,-230"/>
<text text-anchor="middle" x="179" y="-411" font-family="Helvetica,sans-Serif" font-size="20.00">Node array</text>
</g>
<g id="clust4" class="cluster">
<title>cluster_node_0_unsort</title>
<polygon fill="#b2dcff" stroke="#b2dcff" points="64,-238 64,-393 294,-393 294,-238 64,-238"/>
<text text-anchor="middle" x="179" y="-377.8" font-family="Helvetica,sans-Serif" font-size="14.00">0</text>
</g>
<g id="clust5" class="cluster">
<title>cluster_struct_list</title>
<polygon fill="#b2dcff" stroke="#b2dcff" points="8,-439 8,-661 1208,-661 1208,-439 8,-439"/>
<text text-anchor="middle" x="608" y="-609" font-family="Helvetica,sans-Serif" font-size="60.00">Struct List &#160;&#160;#2</text>
</g>
<g id="clust6" class="cluster">
<title>cluster_node_list_data</title>
<polygon fill="#b2dcff" stroke="#b2dcff" points="16,-450 16,-575 342,-575 342,-450 16,-450"/>
<text text-anchor="middle" x="179" y="-559.8" font-family="Helvetica,sans-Serif" font-size="14.00">Data</text>
</g>
<g id="clust7" class="cluster">
<title>cluster_head</title>
<polygon fill="#b2dcff" stroke="#b2dcff" points="398,-447 398,-579 628,-579 628,-447 398,-447"/>
<text text-anchor="middle" x="513" y="-563.8" font-family="Helvetica,sans-Serif" font-size="14.00">Head</text>
</g>
<g id="clust8" class="cluster">
<title>cluster_tail</title>
<polygon fill="#b2dcff" stroke="#b2dcff" points="684,-447 684,-579 914,-579 914,-447 684,-447"/>
<text text-anchor="middle" x="799" y="-563.8" font-family="Helvetica,sans-Serif" font-size="14.00">Tail</text>
</g>
<g id="clust9" class="cluster">
<title>cluster_last_insert</title>
<polygon fill="#b2dcff" stroke="#b2dcff" points="970,-447 970,-579 1200,-579 1200,-447 970,-447"/>
<text text-anchor="middle" x="1085" y="-563.8" font-family="Helvetica,sans-Serif" font-size="14.00">Last insert</text>
</g>
<!-- node_0_sort -->
<g id="node1" class="node">
<title>node_0_sort</title>
<path fill="#b462ee" stroke="black" d="M84,-24C84,-24 274,-24 274,-24 280,-24 286,-30 286,-36 286,-36 286,-104 286,-104 286,-110 280,-116 274,-116 274,-116 84,-116 84,-116 78,-116 72,-110 72,-104 72,-104 72,-36 72,-36 72,-30 78,-24 84,-24"/>
<text text-anchor="middle" x="179" y="-100.8" font-family="Times,serif" font-size="14.00">address = 0x56220a5f92a0</text>
<polyline fill="none" stroke="black" points="72,-93 286,-93 "/>
<text text-anchor="middle" x="179" y="-77.8" font-family="Times,serif" font-size="14.00">next: 0x56220a5f92a0</text>
<polyline fill="none" stroke="black" points="72,-70 286,-70 "/>
<text text-anchor="middle" x="179" y="-54.8" font-family="Times,serif" font-size="14.00">data: 111</text>
<polyline fill="none" stroke="black" points="72,-47 286,-47 "/>
<text text-anchor="middle" x="179" y="-31.8" font-family="Times,serif" font-size="14.00">prev: 0x56220a5f92a0</text>
</g>
<!-- node_0_sort&#45;&gt;node_0_sort -->
<g id="edge1" class="edge">
<title>node_0_sort&#45;&gt;node_0_sort</title>
<path fill="none" stroke="black" d="M148.01,-116.23C145.68,-135.82 156,-152.5 179,-152.5 197.86,-152.5 208.2,-141.27 210.02,-126.43"/>
<polygon fill="black" stroke="black" points="213.52,-126.22 209.99,-116.23 206.52,-126.24 213.52,-126.22"/>
</g>
<!-- node_0_sort&#45;&gt;node_0_sort -->
<g id="edge2" class="edge">
<title>node_0_sort&#45;&gt;node_0_sort</title>
<path fill="none" stroke="red" d="M124.46,-116.22C104.07,-152 122.25,-188.5 179,-188.5 230.88,-188.5 250.52,-158.01 237.94,-125.44"/>
<polygon fill="red" stroke="red" points="241.01,-123.74 233.54,-116.22 234.69,-126.75 241.01,-123.74"/>
</g>
<!-- node_0_unsort -->
<g id="node2" class="node">
<title>node_0_unsort</title>
<path fill="#b462ee" stroke="black" d="M84,-246.5C84,-246.5 274,-246.5 274,-246.5 280,-246.5 286,-252.5 286,-258.5 286,-258.5 286,-349.5 286,-349.5 286,-355.5 280,-361.5 274,-361.5 274,-361.5 84,-361.5 84,-361.5 78,-361.5 72,-355.5 72,-349.5 72,-349.5 72,-258.5 72,-258.5 72,-252.5 78,-246.5 84,-246.5"/>
<text text-anchor="middle" x="179" y="-346.3" font-family="Times,serif" font-size="14.00">index in node array: 0</text>
<polyline fill="none" stroke="black" points="72,-338.5 286,-338.5 "/>
<text text-anchor="middle" x="179" y="-323.3" font-family="Times,serif" font-size="14.00">address = 0x56220a5f92a0</text>
<polyline fill="none" stroke="black" points="72,-315.5 286,-315.5 "/>
<text text-anchor="middle" x="179" y="-300.3" font-family="Times,serif" font-size="14.00">next: 0x56220a5f92a0</text>
<polyline fill="none" stroke="black" points="72,-292.5 286,-292.5 "/>
<text text-anchor="middle" x="179" y="-277.3" font-family="Times,serif" font-size="14.00">data: 111</text>
<polyline fill="none" stroke="black" points="72,-269.5 286,-269.5 "/>
<text text-anchor="middle" x="179" y="-254.3" font-family="Times,serif" font-size="14.00">prev: 0x56220a5f92a0</text>
</g>
<!-- head -->
<g id="node3" class="node">
<title>head</title>
<path fill="#febe5e" stroke="black" d="M418,-455C418,-455 608,-455 608,-455 614,-455 620,-461 620,-467 620,-467 620,-535 620,-535 620,-541 614,-547 608,-547 608,-547 418,-547 418,-547 412,-547 406,-541 406,-535 406,-535 406,-467 406,-467 406,-461 412,-455 418,-455"/>
<text text-anchor="middle" x="513" y="-531.8" font-family="Times,serif" font-size="14.00">address = 0x56220a5f92a0</text>
<polyline fill="none" stroke="black" points="406,-524 620,-524 "/>
<text text-anchor="middle" x="513" y="-508.8" font-family="Times,serif" font-size="14.00">next: 0x56220a5f92a0</text>
<polyline fill="none" stroke="black" points="406,-501 620,-501 "/>
<text text-anchor="middle" x="513" y="-485.8" font-family="Times,serif" font-size="14.00">data: 111</text>
<polyline fill="none" stroke="black" points="406,-478 620,-478 "/>
<text text-anchor="middle" x="513" y="-462.8" font-family="Times,serif" font-size="14.00">prev: 0x56220a5f92a0</text>
</g>
<!-- tail -->
<g id="node4" class="node">
<title>tail</title>
<path fill="#febe5e" stroke="black" d="M704,-455C704,-455 894,-455 894,-455 900,-455 906,-461 906,-467 906,-467 906,-535 906,-535 906,-541 900,-547 894,-547 894,-547 704,-547 704,-547 698,-547 692,-541 692,-535 692,-535 692,-467 692,-467 692,-461 698,-455 704,-455"/>
<text text-anchor="middle" x="799" y="-531.8" font-family="Times,serif" font-size="14.00">address = 0x56220a5f92a0</text>
<polyline fill="none" stroke="black" points="692,-524 906,-524 "/>
<text text-anchor="middle" x="799" y="-508.8" font-family="Times,serif" font-size="14.00">next: 0x56220a5f92a0</text>
<polyline fill="none" stroke="black" points="692,-501 906,-501 "/>
<text text-anchor="middle" x="799" y="-485.8" font-family="Times,serif" font-size="14.00">data: 111</text>
<polyline fill="none" stroke="black" points="692,-478 906,-478 "/>
<text text-anchor="middle" x="799" y="-462.8" font-family="Times,serif" font-size="14.00">prev: 0x56220a5f92a0</text>
</g>
<!-- head&#45;&gt;tail -->
<g id="edge4" class="edge">
<title>head&#45;&gt;tail</title>
<path fill="none" stroke="#b2dcff" d="M620.15,-501C640.24,-501 661.34,-501 681.72,-501"/>
<polygon fill="#b2dcff" stroke="#b2dcff" points="681.97,-504.5 691.97,-501 681.97,-497.5 681.97,-504.5"/>
</g>
<!-- last_insert -->
<g id="node5" class="node">
<title>last_insert</title>
<path fill="#febe5e" stroke="black" d="M990,-455C990,-455 1180,-455 1180,-455 1186,-455 1192,-461 1192,-467 1192,-467 1192,-535 1192,-535 1192,-541 1186,-547 1180,-547 1180,-547 990,-547 990,-547 984,-547 978,-541 978,-535 978,-535 978,-467 978,-467 978,-461 984,-455 990,-455"/>
<text text-anchor="middle" x="1085" y="-531.8" font-family="Times,serif" font-size="14.00">address = 0x56220a5f92a0</text>
<polyline fill="none" stroke="black" points="978,-524 1192,-524 "/>
<text text-anchor="middle" x="1085" y="-508.8" font-family="Times,serif" font-size="14.00">next: 0x56220a5f92a0</text>
<polyline fill="none" stroke="black" points="978,-501 1192,-501 "/>
<text text-anchor="middle" x="1085" y="-485.8" font-family="Times,serif" font-size="14.00">data: 111</text>
<polyline fill="none" stroke="black" points="978,-478 1192,-478 "/>
<text text-anchor="middle" x="1085" y="-462.8" font-family="Times,serif" font-size="14.00">prev: 0x56220a5f92a0</text>
</g>
<!-- tail&#45;&gt;last_insert -->
<g id="edge5" class="edge">
<title>tail&#45;&gt;last_insert</title>
<path fill="none" stroke="#b2dcff" d="M906.15,-501C926.24,-501 947.34,-501 967.72,-501"/>
<polygon fill="#b2dcff" stroke="#b2dcff" points="967.97,-504.5 977.97,-501 967.97,-497.5 967.97,-504.5"/>
</g>
<!-- data -->
<g id="node6" class="node">
<title>data</title>
<path fill="#febe5e" stroke="black" d="M36,-459C36,-459 322,-459 322,-459 328,-459 334,-465 334,-471 334,-471 334,-531 334,-531 334,-537 328,-543 322,-543 322,-543 36,-543 36,-543 30,-543 24,-537 24,-531 24,-531 24,-471 24,-471 24,-465 30,-459 36,-459"/>
<text text-anchor="middle" x="179" y="-527.8" font-family="Times,serif" font-size="14.00">list pointer = 0x7ffcc4e0dc70</text>
<polyline fill="none" stroke="black" points="24,-520 334,-520 "/>
<text text-anchor="middle" x="179" y="-504.8" font-family="Times,serif" font-size="14.00">list capacity = 1</text>
<polyline fill="none" stroke="black" points="24,-497 334,-497 "/>
<text text-anchor="middle" x="179" y="-481.8" font-family="Times,serif" font-size="14.00">start: list node array = 0x56220a5f92a0 </text>
<text text-anchor="middle" x="179" y="-466.8" font-family="Times,serif" font-size="14.00">end: list node array = 0x56220a5f92a0</text>
</g>
<!-- data&#45;&gt;head -->
<g id="edge3" class="edge">
<title>data&#45;&gt;head</title>
<path fill="none" stroke="#b2dcff" d="M334.34,-501C354.96,-501 375.82,-501 395.64,-501"/>
<polygon fill="#b2dcff" stroke="#b2dcff" points="395.9,-504.5 405.9,-501 395.9,-497.5 395.9,-504.5"/>
</g>
</g>
</svg>
