<?xml version="1.0" encoding="UTF-8" standalone="no"?>
<!DOCTYPE svg PUBLIC "-//W3C//DTD SVG 1.1//EN"
 "http://www.w3.org/Graphics/SVG/1.1/DTD/svg11.dtd">
<!-- Generated by graphviz version 2.43.0 (0)
 -->
<!-- Title: %3 Pages: 1 -->
<svg width="1228pt" height="641pt"
 viewBox="0.00 0.00 1228.00 641.00" xmlns="http://www.w3.org/2000/svg" xmlns:xlink="http://www.w3.org/1999/xlink">
<g id="graph0" class="graph" transform="scale(1 1) rotate(0) translate(4 637)">
<title>%3</title>
<polygon fill="#b2dcff" stroke="transparent" points="-4,4 -4,-637 1224,-637 1224,4 -4,4"/>
<g id="clust1" class="cluster">
<title>cluster_node_array_sort</title>
<polygon fill="#b2dcff" stroke="#b2dcff" points="56,-8 56,-186 638,-186 638,-8 56,-8"/>
<text text-anchor="middle" x="347" y="-166" font-family="Helvetica,sans-Serif" font-size="20.00">Node array sort</text>
</g>
<g id="clust2" class="cluster">
<title>cluster_node_0_sort</title>
<polygon fill="#b2dcff" stroke="#b2dcff" points="64,-16 64,-148 295,-148 295,-16 64,-16"/>
<text text-anchor="middle" x="179.5" y="-132.8" font-family="Helvetica,sans-Serif" font-size="14.00">0</text>
</g>
<g id="clust3" class="cluster">
<title>cluster_node_1_sort</title>
<polygon fill="#b2dcff" stroke="#b2dcff" points="399,-16 399,-148 630,-148 630,-16 399,-16"/>
<text text-anchor="middle" x="514.5" y="-132.8" font-family="Helvetica,sans-Serif" font-size="14.00">1</text>
</g>
<g id="clust4" class="cluster">
<title>cluster_node_array_unsort</title>
<polygon fill="#b2dcff" stroke="#b2dcff" points="56,-194 56,-395 638,-395 638,-194 56,-194"/>
<text text-anchor="middle" x="347" y="-375" font-family="Helvetica,sans-Serif" font-size="20.00">Node array</text>
</g>
<g id="clust5" class="cluster">
<title>cluster_node_0_unsort</title>
<polygon fill="#b2dcff" stroke="#b2dcff" points="64,-202 64,-357 295,-357 295,-202 64,-202"/>
<text text-anchor="middle" x="179.5" y="-341.8" font-family="Helvetica,sans-Serif" font-size="14.00">0</text>
</g>
<g id="clust6" class="cluster">
<title>cluster_node_1_unsort</title>
<polygon fill="#b2dcff" stroke="#b2dcff" points="399,-202 399,-357 630,-357 630,-202 399,-202"/>
<text text-anchor="middle" x="514.5" y="-341.8" font-family="Helvetica,sans-Serif" font-size="14.00">1</text>
</g>
<g id="clust7" class="cluster">
<title>cluster_struct_list</title>
<polygon fill="#b2dcff" stroke="#b2dcff" points="8,-403 8,-625 1212,-625 1212,-403 8,-403"/>
<text text-anchor="middle" x="610" y="-573" font-family="Helvetica,sans-Serif" font-size="60.00">Struct List &#160;&#160;#3</text>
</g>
<g id="clust8" class="cluster">
<title>cluster_node_list_data</title>
<polygon fill="#b2dcff" stroke="#b2dcff" points="16,-414 16,-539 343,-539 343,-414 16,-414"/>
<text text-anchor="middle" x="179.5" y="-523.8" font-family="Helvetica,sans-Serif" font-size="14.00">Data</text>
</g>
<g id="clust9" class="cluster">
<title>cluster_head</title>
<polygon fill="#b2dcff" stroke="#b2dcff" points="399,-411 399,-543 630,-543 630,-411 399,-411"/>
<text text-anchor="middle" x="514.5" y="-527.8" font-family="Helvetica,sans-Serif" font-size="14.00">Head</text>
</g>
<g id="clust10" class="cluster">
<title>cluster_tail</title>
<polygon fill="#b2dcff" stroke="#b2dcff" points="686,-411 686,-543 917,-543 917,-411 686,-411"/>
<text text-anchor="middle" x="801.5" y="-527.8" font-family="Helvetica,sans-Serif" font-size="14.00">Tail</text>
</g>
<g id="clust11" class="cluster">
<title>cluster_last_insert</title>
<polygon fill="#b2dcff" stroke="#b2dcff" points="973,-411 973,-543 1204,-543 1204,-411 973,-411"/>
<text text-anchor="middle" x="1088.5" y="-527.8" font-family="Helvetica,sans-Serif" font-size="14.00">Last insert</text>
</g>
<!-- node_0_sort -->
<g id="node1" class="node">
<title>node_0_sort</title>
<path fill="#a8df8e" stroke="black" d="M84,-24C84,-24 275,-24 275,-24 281,-24 287,-30 287,-36 287,-36 287,-104 287,-104 287,-110 281,-116 275,-116 275,-116 84,-116 84,-116 78,-116 72,-110 72,-104 72,-104 72,-36 72,-36 72,-30 78,-24 84,-24"/>
<text text-anchor="middle" x="179.5" y="-100.8" font-family="Times,serif" font-size="14.00">address = 0x5e7f91458760</text>
<polyline fill="none" stroke="black" points="72,-93 287,-93 "/>
<text text-anchor="middle" x="179.5" y="-77.8" font-family="Times,serif" font-size="14.00">next: 0x5e7f91458778</text>
<polyline fill="none" stroke="black" points="72,-70 287,-70 "/>
<text text-anchor="middle" x="179.5" y="-54.8" font-family="Times,serif" font-size="14.00">data: 111</text>
<polyline fill="none" stroke="black" points="72,-47 287,-47 "/>
<text text-anchor="middle" x="179.5" y="-31.8" font-family="Times,serif" font-size="14.00">prev: 0x5e7f91458778</text>
</g>
<!-- node_1_sort -->
<g id="node2" class="node">
<title>node_1_sort</title>
<path fill="#b462ee" stroke="black" d="M419,-24C419,-24 610,-24 610,-24 616,-24 622,-30 622,-36 622,-36 622,-104 622,-104 622,-110 616,-116 610,-116 610,-116 419,-116 419,-116 413,-116 407,-110 407,-104 407,-104 407,-36 407,-36 407,-30 413,-24 419,-24"/>
<text text-anchor="middle" x="514.5" y="-100.8" font-family="Times,serif" font-size="14.00">address = 0x5e7f91458778</text>
<polyline fill="none" stroke="black" points="407,-93 622,-93 "/>
<text text-anchor="middle" x="514.5" y="-77.8" font-family="Times,serif" font-size="14.00">next: 0x5e7f91458760</text>
<polyline fill="none" stroke="black" points="407,-70 622,-70 "/>
<text text-anchor="middle" x="514.5" y="-54.8" font-family="Times,serif" font-size="14.00">data: 222</text>
<polyline fill="none" stroke="black" points="407,-47 622,-47 "/>
<text text-anchor="middle" x="514.5" y="-31.8" font-family="Times,serif" font-size="14.00">prev: 0x5e7f91458760</text>
</g>
<!-- node_0_sort&#45;&gt;node_1_sort -->
<g id="edge1" class="edge">
<title>node_0_sort&#45;&gt;node_1_sort</title>
<path fill="none" stroke="black" d="M287.24,-57.3C322.04,-56.33 360.86,-56.24 396.38,-57.04"/>
<polygon fill="black" stroke="black" points="396.71,-60.55 406.8,-57.31 396.89,-53.55 396.71,-60.55"/>
</g>
<!-- node_0_sort&#45;&gt;node_1_sort -->
<g id="edge4" class="edge">
<title>node_0_sort&#45;&gt;node_1_sort</title>
<path fill="none" stroke="red" d="M287.24,-108.09C322.04,-111.02 360.86,-111.28 396.38,-108.87"/>
<polygon fill="red" stroke="red" points="397.09,-112.33 406.8,-108.08 396.56,-105.35 397.09,-112.33"/>
</g>
<!-- node_1_sort&#45;&gt;node_0_sort -->
<g id="edge2" class="edge">
<title>node_1_sort&#45;&gt;node_0_sort</title>
<path fill="none" stroke="black" d="M406.8,-31.92C372,-28.98 333.18,-28.72 297.65,-31.12"/>
<polygon fill="black" stroke="black" points="296.94,-27.67 287.24,-31.91 297.47,-34.65 296.94,-27.67"/>
</g>
<!-- node_1_sort&#45;&gt;node_0_sort -->
<g id="edge3" class="edge">
<title>node_1_sort&#45;&gt;node_0_sort</title>
<path fill="none" stroke="red" d="M406.8,-82.69C372,-83.67 333.18,-83.76 297.65,-82.96"/>
<polygon fill="red" stroke="red" points="297.32,-79.45 287.24,-82.7 297.15,-86.45 297.32,-79.45"/>
</g>
<!-- node_0_unsort -->
<g id="node3" class="node">
<title>node_0_unsort</title>
<path fill="#a8df8e" stroke="black" d="M84,-210.5C84,-210.5 275,-210.5 275,-210.5 281,-210.5 287,-216.5 287,-222.5 287,-222.5 287,-313.5 287,-313.5 287,-319.5 281,-325.5 275,-325.5 275,-325.5 84,-325.5 84,-325.5 78,-325.5 72,-319.5 72,-313.5 72,-313.5 72,-222.5 72,-222.5 72,-216.5 78,-210.5 84,-210.5"/>
<text text-anchor="middle" x="179.5" y="-310.3" font-family="Times,serif" font-size="14.00">index in node array: 0</text>
<polyline fill="none" stroke="black" points="72,-302.5 287,-302.5 "/>
<text text-anchor="middle" x="179.5" y="-287.3" font-family="Times,serif" font-size="14.00">address = 0x5e7f91458760</text>
<polyline fill="none" stroke="black" points="72,-279.5 287,-279.5 "/>
<text text-anchor="middle" x="179.5" y="-264.3" font-family="Times,serif" font-size="14.00">next: 0x5e7f91458778</text>
<polyline fill="none" stroke="black" points="72,-256.5 287,-256.5 "/>
<text text-anchor="middle" x="179.5" y="-241.3" font-family="Times,serif" font-size="14.00">data: 111</text>
<polyline fill="none" stroke="black" points="72,-233.5 287,-233.5 "/>
<text text-anchor="middle" x="179.5" y="-218.3" font-family="Times,serif" font-size="14.00">prev: 0x5e7f91458778</text>
</g>
<!-- node_1_unsort -->
<g id="node4" class="node">
<title>node_1_unsort</title>
<path fill="#b462ee" stroke="black" d="M419,-210.5C419,-210.5 610,-210.5 610,-210.5 616,-210.5 622,-216.5 622,-222.5 622,-222.5 622,-313.5 622,-313.5 622,-319.5 616,-325.5 610,-325.5 610,-325.5 419,-325.5 419,-325.5 413,-325.5 407,-319.5 407,-313.5 407,-313.5 407,-222.5 407,-222.5 407,-216.5 413,-210.5 419,-210.5"/>
<text text-anchor="middle" x="514.5" y="-310.3" font-family="Times,serif" font-size="14.00">index in node array: 1</text>
<polyline fill="none" stroke="black" points="407,-302.5 622,-302.5 "/>
<text text-anchor="middle" x="514.5" y="-287.3" font-family="Times,serif" font-size="14.00">address = 0x5e7f91458778</text>
<polyline fill="none" stroke="black" points="407,-279.5 622,-279.5 "/>
<text text-anchor="middle" x="514.5" y="-264.3" font-family="Times,serif" font-size="14.00">next: 0x5e7f91458760</text>
<polyline fill="none" stroke="black" points="407,-256.5 622,-256.5 "/>
<text text-anchor="middle" x="514.5" y="-241.3" font-family="Times,serif" font-size="14.00">data: 222</text>
<polyline fill="none" stroke="black" points="407,-233.5 622,-233.5 "/>
<text text-anchor="middle" x="514.5" y="-218.3" font-family="Times,serif" font-size="14.00">prev: 0x5e7f91458760</text>
</g>
<!-- node_0_unsort&#45;&gt;node_1_unsort -->
<g id="edge5" class="edge">
<title>node_0_unsort&#45;&gt;node_1_unsort</title>
<path fill="none" stroke="black" d="M287.24,-268C322.04,-268 360.86,-268 396.38,-268"/>
<polygon fill="black" stroke="black" points="396.8,-271.5 406.8,-268 396.8,-264.5 396.8,-271.5"/>
</g>
<!-- head -->
<g id="node5" class="node">
<title>head</title>
<path fill="#febe5e" stroke="black" d="M419,-419C419,-419 610,-419 610,-419 616,-419 622,-425 622,-431 622,-431 622,-499 622,-499 622,-505 616,-511 610,-511 610,-511 419,-511 419,-511 413,-511 407,-505 407,-499 407,-499 407,-431 407,-431 407,-425 413,-419 419,-419"/>
<text text-anchor="middle" x="514.5" y="-495.8" font-family="Times,serif" font-size="14.00">address = 0x5e7f91458760</text>
<polyline fill="none" stroke="black" points="407,-488 622,-488 "/>
<text text-anchor="middle" x="514.5" y="-472.8" font-family="Times,serif" font-size="14.00">next: 0x5e7f91458778</text>
<polyline fill="none" stroke="black" points="407,-465 622,-465 "/>
<text text-anchor="middle" x="514.5" y="-449.8" font-family="Times,serif" font-size="14.00">data: 111</text>
<polyline fill="none" stroke="black" points="407,-442 622,-442 "/>
<text text-anchor="middle" x="514.5" y="-426.8" font-family="Times,serif" font-size="14.00">prev: 0x5e7f91458778</text>
</g>
<!-- tail -->
<g id="node6" class="node">
<title>tail</title>
<path fill="#febe5e" stroke="black" d="M706,-419C706,-419 897,-419 897,-419 903,-419 909,-425 909,-431 909,-431 909,-499 909,-499 909,-505 903,-511 897,-511 897,-511 706,-511 706,-511 700,-511 694,-505 694,-499 694,-499 694,-431 694,-431 694,-425 700,-419 706,-419"/>
<text text-anchor="middle" x="801.5" y="-495.8" font-family="Times,serif" font-size="14.00">address = 0x5e7f91458778</text>
<polyline fill="none" stroke="black" points="694,-488 909,-488 "/>
<text text-anchor="middle" x="801.5" y="-472.8" font-family="Times,serif" font-size="14.00">next: 0x5e7f91458760</text>
<polyline fill="none" stroke="black" points="694,-465 909,-465 "/>
<text text-anchor="middle" x="801.5" y="-449.8" font-family="Times,serif" font-size="14.00">data: 222</text>
<polyline fill="none" stroke="black" points="694,-442 909,-442 "/>
<text text-anchor="middle" x="801.5" y="-426.8" font-family="Times,serif" font-size="14.00">prev: 0x5e7f91458760</text>
</g>
<!-- head&#45;&gt;tail -->
<g id="edge7" class="edge">
<title>head&#45;&gt;tail</title>
<path fill="none" stroke="#b2dcff" d="M622.03,-465C642.05,-465 663.08,-465 683.4,-465"/>
<polygon fill="#b2dcff" stroke="#b2dcff" points="683.63,-468.5 693.63,-465 683.63,-461.5 683.63,-468.5"/>
</g>
<!-- last_insert -->
<g id="node7" class="node">
<title>last_insert</title>
<path fill="#febe5e" stroke="black" d="M993,-419C993,-419 1184,-419 1184,-419 1190,-419 1196,-425 1196,-431 1196,-431 1196,-499 1196,-499 1196,-505 1190,-511 1184,-511 1184,-511 993,-511 993,-511 987,-511 981,-505 981,-499 981,-499 981,-431 981,-431 981,-425 987,-419 993,-419"/>
<text text-anchor="middle" x="1088.5" y="-495.8" font-family="Times,serif" font-size="14.00">address = 0x5e7f91458778</text>
<polyline fill="none" stroke="black" points="981,-488 1196,-488 "/>
<text text-anchor="middle" x="1088.5" y="-472.8" font-family="Times,serif" font-size="14.00">next: 0x5e7f91458760</text>
<polyline fill="none" stroke="black" points="981,-465 1196,-465 "/>
<text text-anchor="middle" x="1088.5" y="-449.8" font-family="Times,serif" font-size="14.00">data: 222</text>
<polyline fill="none" stroke="black" points="981,-442 1196,-442 "/>
<text text-anchor="middle" x="1088.5" y="-426.8" font-family="Times,serif" font-size="14.00">prev: 0x5e7f91458760</text>
</g>
<!-- tail&#45;&gt;last_insert -->
<g id="edge8" class="edge">
<title>tail&#45;&gt;last_insert</title>
<path fill="none" stroke="#b2dcff" d="M909.03,-465C929.05,-465 950.08,-465 970.4,-465"/>
<polygon fill="#b2dcff" stroke="#b2dcff" points="970.63,-468.5 980.63,-465 970.63,-461.5 970.63,-468.5"/>
</g>
<!-- data -->
<g id="node8" class="node">
<title>data</title>
<path fill="#febe5e" stroke="black" d="M36,-423C36,-423 323,-423 323,-423 329,-423 335,-429 335,-435 335,-435 335,-495 335,-495 335,-501 329,-507 323,-507 323,-507 36,-507 36,-507 30,-507 24,-501 24,-495 24,-495 24,-435 24,-435 24,-429 30,-423 36,-423"/>
<text text-anchor="middle" x="179.5" y="-491.8" font-family="Times,serif" font-size="14.00">list pointer = 0x7ffec9ed2c00</text>
<polyline fill="none" stroke="black" points="24,-484 335,-484 "/>
<text text-anchor="middle" x="179.5" y="-468.8" font-family="Times,serif" font-size="14.00">list capacity = 2</text>
<polyline fill="none" stroke="black" points="24,-461 335,-461 "/>
<text text-anchor="middle" x="179.5" y="-445.8" font-family="Times,serif" font-size="14.00">start: list node array = 0x5e7f91458760 </text>
<text text-anchor="middle" x="179.5" y="-430.8" font-family="Times,serif" font-size="14.00">end: list node array = 0x5e7f91458778</text>
</g>
<!-- data&#45;&gt;head -->
<g id="edge6" class="edge">
<title>data&#45;&gt;head</title>
<path fill="none" stroke="#b2dcff" d="M335.3,-465C355.84,-465 376.62,-465 396.37,-465"/>
<polygon fill="#b2dcff" stroke="#b2dcff" points="396.6,-468.5 406.6,-465 396.6,-461.5 396.6,-468.5"/>
</g>
</g>
</svg>
