<?xml version="1.0" encoding="UTF-8" standalone="no"?>
<!DOCTYPE svg PUBLIC "-//W3C//DTD SVG 1.1//EN"
 "http://www.w3.org/Graphics/SVG/1.1/DTD/svg11.dtd">
<!-- Generated by graphviz version 2.43.0 (0)
 -->
<!-- Title: %3 Pages: 1 -->
<svg width="1228pt" height="689pt"
 viewBox="0.00 0.00 1228.00 689.00" xmlns="http://www.w3.org/2000/svg" xmlns:xlink="http://www.w3.org/1999/xlink">
<g id="graph0" class="graph" transform="scale(1 1) rotate(0) translate(4 685)">
<title>%3</title>
<polygon fill="#b2dcff" stroke="transparent" points="-4,4 -4,-685 1224,-685 1224,4 -4,4"/>
<g id="clust1" class="cluster">
<title>cluster_node_array_sort</title>
<polygon fill="#b2dcff" stroke="#b2dcff" points="56,-8 56,-234 925,-234 925,-8 56,-8"/>
<text text-anchor="middle" x="490.5" y="-214" font-family="Helvetica,sans-Serif" font-size="20.00">Node array sort</text>
</g>
<g id="clust2" class="cluster">
<title>cluster_node_0_sort</title>
<polygon fill="#b2dcff" stroke="#b2dcff" points="64,-64 64,-196 295,-196 295,-64 64,-64"/>
<text text-anchor="middle" x="179.5" y="-180.8" font-family="Helvetica,sans-Serif" font-size="14.00">0</text>
</g>
<g id="clust3" class="cluster">
<title>cluster_node_1_sort</title>
<polygon fill="#b2dcff" stroke="#b2dcff" points="399,-16 399,-148 630,-148 630,-16 399,-16"/>
<text text-anchor="middle" x="514.5" y="-132.8" font-family="Helvetica,sans-Serif" font-size="14.00">1</text>
</g>
<g id="clust4" class="cluster">
<title>cluster_node_2_sort</title>
<polygon fill="#b2dcff" stroke="#b2dcff" points="686,-64 686,-196 917,-196 917,-64 686,-64"/>
<text text-anchor="middle" x="801.5" y="-180.8" font-family="Helvetica,sans-Serif" font-size="14.00">2</text>
</g>
<g id="clust5" class="cluster">
<title>cluster_node_array_unsort</title>
<polygon fill="#b2dcff" stroke="#b2dcff" points="56,-242 56,-443 925,-443 925,-242 56,-242"/>
<text text-anchor="middle" x="490.5" y="-423" font-family="Helvetica,sans-Serif" font-size="20.00">Node array</text>
</g>
<g id="clust6" class="cluster">
<title>cluster_node_0_unsort</title>
<polygon fill="#b2dcff" stroke="#b2dcff" points="64,-250 64,-405 295,-405 295,-250 64,-250"/>
<text text-anchor="middle" x="179.5" y="-389.8" font-family="Helvetica,sans-Serif" font-size="14.00">0</text>
</g>
<g id="clust7" class="cluster">
<title>cluster_node_1_unsort</title>
<polygon fill="#b2dcff" stroke="#b2dcff" points="399,-250 399,-405 630,-405 630,-250 399,-250"/>
<text text-anchor="middle" x="514.5" y="-389.8" font-family="Helvetica,sans-Serif" font-size="14.00">1</text>
</g>
<g id="clust8" class="cluster">
<title>cluster_node_2_unsort</title>
<polygon fill="#b2dcff" stroke="#b2dcff" points="686,-250 686,-405 917,-405 917,-250 686,-250"/>
<text text-anchor="middle" x="801.5" y="-389.8" font-family="Helvetica,sans-Serif" font-size="14.00">2</text>
</g>
<g id="clust9" class="cluster">
<title>cluster_struct_list</title>
<polygon fill="#b2dcff" stroke="#b2dcff" points="8,-451 8,-673 1212,-673 1212,-451 8,-451"/>
<text text-anchor="middle" x="610" y="-621" font-family="Helvetica,sans-Serif" font-size="60.00">Struct List &#160;&#160;#4</text>
</g>
<g id="clust10" class="cluster">
<title>cluster_node_list_data</title>
<polygon fill="#b2dcff" stroke="#b2dcff" points="16,-462 16,-587 343,-587 343,-462 16,-462"/>
<text text-anchor="middle" x="179.5" y="-571.8" font-family="Helvetica,sans-Serif" font-size="14.00">Data</text>
</g>
<g id="clust11" class="cluster">
<title>cluster_head</title>
<polygon fill="#b2dcff" stroke="#b2dcff" points="399,-459 399,-591 630,-591 630,-459 399,-459"/>
<text text-anchor="middle" x="514.5" y="-575.8" font-family="Helvetica,sans-Serif" font-size="14.00">Head</text>
</g>
<g id="clust12" class="cluster">
<title>cluster_tail</title>
<polygon fill="#b2dcff" stroke="#b2dcff" points="686,-459 686,-591 917,-591 917,-459 686,-459"/>
<text text-anchor="middle" x="801.5" y="-575.8" font-family="Helvetica,sans-Serif" font-size="14.00">Tail</text>
</g>
<g id="clust13" class="cluster">
<title>cluster_last_insert</title>
<polygon fill="#b2dcff" stroke="#b2dcff" points="973,-459 973,-591 1204,-591 1204,-459 973,-459"/>
<text text-anchor="middle" x="1088.5" y="-575.8" font-family="Helvetica,sans-Serif" font-size="14.00">Last insert</text>
</g>
<!-- node_0_sort -->
<g id="node1" class="node">
<title>node_0_sort</title>
<path fill="#a8df8e" stroke="black" d="M84,-72C84,-72 275,-72 275,-72 281,-72 287,-78 287,-84 287,-84 287,-152 287,-152 287,-158 281,-164 275,-164 275,-164 84,-164 84,-164 78,-164 72,-158 72,-152 72,-152 72,-84 72,-84 72,-78 78,-72 84,-72"/>
<text text-anchor="middle" x="179.5" y="-148.8" font-family="Times,serif" font-size="14.00">address = 0x5e7f91458840</text>
<polyline fill="none" stroke="black" points="72,-141 287,-141 "/>
<text text-anchor="middle" x="179.5" y="-125.8" font-family="Times,serif" font-size="14.00">next: 0x5e7f91458858</text>
<polyline fill="none" stroke="black" points="72,-118 287,-118 "/>
<text text-anchor="middle" x="179.5" y="-102.8" font-family="Times,serif" font-size="14.00">data: 111</text>
<polyline fill="none" stroke="black" points="72,-95 287,-95 "/>
<text text-anchor="middle" x="179.5" y="-79.8" font-family="Times,serif" font-size="14.00">prev: 0x5e7f91458870</text>
</g>
<!-- node_1_sort -->
<g id="node2" class="node">
<title>node_1_sort</title>
<path fill="#a8df8e" stroke="black" d="M419,-24C419,-24 610,-24 610,-24 616,-24 622,-30 622,-36 622,-36 622,-104 622,-104 622,-110 616,-116 610,-116 610,-116 419,-116 419,-116 413,-116 407,-110 407,-104 407,-104 407,-36 407,-36 407,-30 413,-24 419,-24"/>
<text text-anchor="middle" x="514.5" y="-100.8" font-family="Times,serif" font-size="14.00">address = 0x5e7f91458858</text>
<polyline fill="none" stroke="black" points="407,-93 622,-93 "/>
<text text-anchor="middle" x="514.5" y="-77.8" font-family="Times,serif" font-size="14.00">next: 0x5e7f91458870</text>
<polyline fill="none" stroke="black" points="407,-70 622,-70 "/>
<text text-anchor="middle" x="514.5" y="-54.8" font-family="Times,serif" font-size="14.00">data: 222</text>
<polyline fill="none" stroke="black" points="407,-47 622,-47 "/>
<text text-anchor="middle" x="514.5" y="-31.8" font-family="Times,serif" font-size="14.00">prev: 0x5e7f91458760</text>
</g>
<!-- node_0_sort&#45;&gt;node_1_sort -->
<g id="edge1" class="edge">
<title>node_0_sort&#45;&gt;node_1_sort</title>
<path fill="none" stroke="black" d="M287.24,-115.31C322.19,-111.25 361.19,-105.71 396.84,-99.76"/>
<polygon fill="black" stroke="black" points="397.52,-103.2 406.8,-98.08 396.35,-96.3 397.52,-103.2"/>
</g>
<!-- node_2_sort -->
<g id="node3" class="node">
<title>node_2_sort</title>
<path fill="#b462ee" stroke="black" d="M706,-72C706,-72 897,-72 897,-72 903,-72 909,-78 909,-84 909,-84 909,-152 909,-152 909,-158 903,-164 897,-164 897,-164 706,-164 706,-164 700,-164 694,-158 694,-152 694,-152 694,-84 694,-84 694,-78 700,-72 706,-72"/>
<text text-anchor="middle" x="801.5" y="-148.8" font-family="Times,serif" font-size="14.00">address = 0x5e7f91458870</text>
<polyline fill="none" stroke="black" points="694,-141 909,-141 "/>
<text text-anchor="middle" x="801.5" y="-125.8" font-family="Times,serif" font-size="14.00">next: 0x5e7f91458840</text>
<polyline fill="none" stroke="black" points="694,-118 909,-118 "/>
<text text-anchor="middle" x="801.5" y="-102.8" font-family="Times,serif" font-size="14.00">data: 333</text>
<polyline fill="none" stroke="black" points="694,-95 909,-95 "/>
<text text-anchor="middle" x="801.5" y="-79.8" font-family="Times,serif" font-size="14.00">prev: 0x5e7f91458858</text>
</g>
<!-- node_0_sort&#45;&gt;node_2_sort -->
<g id="edge6" class="edge">
<title>node_0_sort&#45;&gt;node_2_sort</title>
<path fill="none" stroke="red" d="M287.08,-137.96C322.55,-143.7 362.35,-149.17 399,-152 501.36,-159.92 527.83,-162.09 630,-152 647.49,-150.27 665.84,-147.57 683.76,-144.43"/>
<polygon fill="red" stroke="red" points="684.44,-147.87 693.66,-142.65 683.2,-140.98 684.44,-147.87"/>
</g>
<!-- node_1_sort&#45;&gt;node_0_sort -->
<g id="edge5" class="edge">
<title>node_1_sort&#45;&gt;node_0_sort</title>
<path fill="none" stroke="red" d="M406.8,-72.69C371.85,-76.74 332.84,-82.28 297.2,-88.23"/>
<polygon fill="red" stroke="red" points="296.51,-84.8 287.24,-89.92 297.68,-91.7 296.51,-84.8"/>
</g>
<!-- node_1_sort&#45;&gt;node_2_sort -->
<g id="edge2" class="edge">
<title>node_1_sort&#45;&gt;node_2_sort</title>
<path fill="none" stroke="black" d="M622.03,-101.05C642.14,-104.88 663.27,-108.51 683.67,-111.63"/>
<polygon fill="black" stroke="black" points="683.22,-115.1 693.63,-113.12 684.25,-108.18 683.22,-115.1"/>
</g>
<!-- node_2_sort&#45;&gt;node_0_sort -->
<g id="edge3" class="edge">
<title>node_2_sort&#45;&gt;node_0_sort</title>
<path fill="none" stroke="black" d="M693.71,-153.62C672.81,-159.18 650.89,-164.06 630,-167 528.34,-181.32 501.04,-178.3 399,-167 365.65,-163.31 329.94,-156.53 297.27,-149.18"/>
<polygon fill="black" stroke="black" points="297.76,-145.7 287.23,-146.88 296.19,-152.52 297.76,-145.7"/>
</g>
<!-- node_2_sort&#45;&gt;node_1_sort -->
<g id="edge4" class="edge">
<title>node_2_sort&#45;&gt;node_1_sort</title>
<path fill="none" stroke="red" d="M693.63,-86.88C673.51,-83.05 652.37,-79.43 631.97,-76.32"/>
<polygon fill="red" stroke="red" points="632.44,-72.85 622.03,-74.83 631.4,-79.77 632.44,-72.85"/>
</g>
<!-- node_0_unsort -->
<g id="node4" class="node">
<title>node_0_unsort</title>
<path fill="#a8df8e" stroke="black" d="M84,-258.5C84,-258.5 275,-258.5 275,-258.5 281,-258.5 287,-264.5 287,-270.5 287,-270.5 287,-361.5 287,-361.5 287,-367.5 281,-373.5 275,-373.5 275,-373.5 84,-373.5 84,-373.5 78,-373.5 72,-367.5 72,-361.5 72,-361.5 72,-270.5 72,-270.5 72,-264.5 78,-258.5 84,-258.5"/>
<text text-anchor="middle" x="179.5" y="-358.3" font-family="Times,serif" font-size="14.00">index in node array: 0</text>
<polyline fill="none" stroke="black" points="72,-350.5 287,-350.5 "/>
<text text-anchor="middle" x="179.5" y="-335.3" font-family="Times,serif" font-size="14.00">address = 0x5e7f91458840</text>
<polyline fill="none" stroke="black" points="72,-327.5 287,-327.5 "/>
<text text-anchor="middle" x="179.5" y="-312.3" font-family="Times,serif" font-size="14.00">next: 0x5e7f91458858</text>
<polyline fill="none" stroke="black" points="72,-304.5 287,-304.5 "/>
<text text-anchor="middle" x="179.5" y="-289.3" font-family="Times,serif" font-size="14.00">data: 111</text>
<polyline fill="none" stroke="black" points="72,-281.5 287,-281.5 "/>
<text text-anchor="middle" x="179.5" y="-266.3" font-family="Times,serif" font-size="14.00">prev: 0x5e7f91458870</text>
</g>
<!-- node_1_unsort -->
<g id="node5" class="node">
<title>node_1_unsort</title>
<path fill="#a8df8e" stroke="black" d="M419,-258.5C419,-258.5 610,-258.5 610,-258.5 616,-258.5 622,-264.5 622,-270.5 622,-270.5 622,-361.5 622,-361.5 622,-367.5 616,-373.5 610,-373.5 610,-373.5 419,-373.5 419,-373.5 413,-373.5 407,-367.5 407,-361.5 407,-361.5 407,-270.5 407,-270.5 407,-264.5 413,-258.5 419,-258.5"/>
<text text-anchor="middle" x="514.5" y="-358.3" font-family="Times,serif" font-size="14.00">index in node array: 1</text>
<polyline fill="none" stroke="black" points="407,-350.5 622,-350.5 "/>
<text text-anchor="middle" x="514.5" y="-335.3" font-family="Times,serif" font-size="14.00">address = 0x5e7f91458858</text>
<polyline fill="none" stroke="black" points="407,-327.5 622,-327.5 "/>
<text text-anchor="middle" x="514.5" y="-312.3" font-family="Times,serif" font-size="14.00">next: 0x5e7f91458870</text>
<polyline fill="none" stroke="black" points="407,-304.5 622,-304.5 "/>
<text text-anchor="middle" x="514.5" y="-289.3" font-family="Times,serif" font-size="14.00">data: 222</text>
<polyline fill="none" stroke="black" points="407,-281.5 622,-281.5 "/>
<text text-anchor="middle" x="514.5" y="-266.3" font-family="Times,serif" font-size="14.00">prev: 0x5e7f91458760</text>
</g>
<!-- node_0_unsort&#45;&gt;node_1_unsort -->
<g id="edge7" class="edge">
<title>node_0_unsort&#45;&gt;node_1_unsort</title>
<path fill="none" stroke="black" d="M287.24,-316C322.04,-316 360.86,-316 396.38,-316"/>
<polygon fill="black" stroke="black" points="396.8,-319.5 406.8,-316 396.8,-312.5 396.8,-319.5"/>
</g>
<!-- node_2_unsort -->
<g id="node6" class="node">
<title>node_2_unsort</title>
<path fill="#b462ee" stroke="black" d="M706,-258.5C706,-258.5 897,-258.5 897,-258.5 903,-258.5 909,-264.5 909,-270.5 909,-270.5 909,-361.5 909,-361.5 909,-367.5 903,-373.5 897,-373.5 897,-373.5 706,-373.5 706,-373.5 700,-373.5 694,-367.5 694,-361.5 694,-361.5 694,-270.5 694,-270.5 694,-264.5 700,-258.5 706,-258.5"/>
<text text-anchor="middle" x="801.5" y="-358.3" font-family="Times,serif" font-size="14.00">index in node array: 2</text>
<polyline fill="none" stroke="black" points="694,-350.5 909,-350.5 "/>
<text text-anchor="middle" x="801.5" y="-335.3" font-family="Times,serif" font-size="14.00">address = 0x5e7f91458870</text>
<polyline fill="none" stroke="black" points="694,-327.5 909,-327.5 "/>
<text text-anchor="middle" x="801.5" y="-312.3" font-family="Times,serif" font-size="14.00">next: 0x5e7f91458840</text>
<polyline fill="none" stroke="black" points="694,-304.5 909,-304.5 "/>
<text text-anchor="middle" x="801.5" y="-289.3" font-family="Times,serif" font-size="14.00">data: 333</text>
<polyline fill="none" stroke="black" points="694,-281.5 909,-281.5 "/>
<text text-anchor="middle" x="801.5" y="-266.3" font-family="Times,serif" font-size="14.00">prev: 0x5e7f91458858</text>
</g>
<!-- node_1_unsort&#45;&gt;node_2_unsort -->
<g id="edge8" class="edge">
<title>node_1_unsort&#45;&gt;node_2_unsort</title>
<path fill="none" stroke="black" d="M622.03,-316C642.05,-316 663.08,-316 683.4,-316"/>
<polygon fill="black" stroke="black" points="683.63,-319.5 693.63,-316 683.63,-312.5 683.63,-319.5"/>
</g>
<!-- head -->
<g id="node7" class="node">
<title>head</title>
<path fill="#febe5e" stroke="black" d="M419,-467C419,-467 610,-467 610,-467 616,-467 622,-473 622,-479 622,-479 622,-547 622,-547 622,-553 616,-559 610,-559 610,-559 419,-559 419,-559 413,-559 407,-553 407,-547 407,-547 407,-479 407,-479 407,-473 413,-467 419,-467"/>
<text text-anchor="middle" x="514.5" y="-543.8" font-family="Times,serif" font-size="14.00">address = 0x5e7f91458840</text>
<polyline fill="none" stroke="black" points="407,-536 622,-536 "/>
<text text-anchor="middle" x="514.5" y="-520.8" font-family="Times,serif" font-size="14.00">next: 0x5e7f91458858</text>
<polyline fill="none" stroke="black" points="407,-513 622,-513 "/>
<text text-anchor="middle" x="514.5" y="-497.8" font-family="Times,serif" font-size="14.00">data: 111</text>
<polyline fill="none" stroke="black" points="407,-490 622,-490 "/>
<text text-anchor="middle" x="514.5" y="-474.8" font-family="Times,serif" font-size="14.00">prev: 0x5e7f91458870</text>
</g>
<!-- tail -->
<g id="node8" class="node">
<title>tail</title>
<path fill="#febe5e" stroke="black" d="M706,-467C706,-467 897,-467 897,-467 903,-467 909,-473 909,-479 909,-479 909,-547 909,-547 909,-553 903,-559 897,-559 897,-559 706,-559 706,-559 700,-559 694,-553 694,-547 694,-547 694,-479 694,-479 694,-473 700,-467 706,-467"/>
<text text-anchor="middle" x="801.5" y="-543.8" font-family="Times,serif" font-size="14.00">address = 0x5e7f91458870</text>
<polyline fill="none" stroke="black" points="694,-536 909,-536 "/>
<text text-anchor="middle" x="801.5" y="-520.8" font-family="Times,serif" font-size="14.00">next: 0x5e7f91458840</text>
<polyline fill="none" stroke="black" points="694,-513 909,-513 "/>
<text text-anchor="middle" x="801.5" y="-497.8" font-family="Times,serif" font-size="14.00">data: 333</text>
<polyline fill="none" stroke="black" points="694,-490 909,-490 "/>
<text text-anchor="middle" x="801.5" y="-474.8" font-family="Times,serif" font-size="14.00">prev: 0x5e7f91458858</text>
</g>
<!-- head&#45;&gt;tail -->
<g id="edge10" class="edge">
<title>head&#45;&gt;tail</title>
<path fill="none" stroke="#b2dcff" d="M622.03,-513C642.05,-513 663.08,-513 683.4,-513"/>
<polygon fill="#b2dcff" stroke="#b2dcff" points="683.63,-516.5 693.63,-513 683.63,-509.5 683.63,-516.5"/>
</g>
<!-- last_insert -->
<g id="node9" class="node">
<title>last_insert</title>
<path fill="#febe5e" stroke="black" d="M993,-467C993,-467 1184,-467 1184,-467 1190,-467 1196,-473 1196,-479 1196,-479 1196,-547 1196,-547 1196,-553 1190,-559 1184,-559 1184,-559 993,-559 993,-559 987,-559 981,-553 981,-547 981,-547 981,-479 981,-479 981,-473 987,-467 993,-467"/>
<text text-anchor="middle" x="1088.5" y="-543.8" font-family="Times,serif" font-size="14.00">address = 0x5e7f91458870</text>
<polyline fill="none" stroke="black" points="981,-536 1196,-536 "/>
<text text-anchor="middle" x="1088.5" y="-520.8" font-family="Times,serif" font-size="14.00">next: 0x5e7f91458840</text>
<polyline fill="none" stroke="black" points="981,-513 1196,-513 "/>
<text text-anchor="middle" x="1088.5" y="-497.8" font-family="Times,serif" font-size="14.00">data: 333</text>
<polyline fill="none" stroke="black" points="981,-490 1196,-490 "/>
<text text-anchor="middle" x="1088.5" y="-474.8" font-family="Times,serif" font-size="14.00">prev: 0x5e7f91458858</text>
</g>
<!-- tail&#45;&gt;last_insert -->
<g id="edge11" class="edge">
<title>tail&#45;&gt;last_insert</title>
<path fill="none" stroke="#b2dcff" d="M909.03,-513C929.05,-513 950.08,-513 970.4,-513"/>
<polygon fill="#b2dcff" stroke="#b2dcff" points="970.63,-516.5 980.63,-513 970.63,-509.5 970.63,-516.5"/>
</g>
<!-- data -->
<g id="node10" class="node">
<title>data</title>
<path fill="#febe5e" stroke="black" d="M36,-471C36,-471 323,-471 323,-471 329,-471 335,-477 335,-483 335,-483 335,-543 335,-543 335,-549 329,-555 323,-555 323,-555 36,-555 36,-555 30,-555 24,-549 24,-543 24,-543 24,-483 24,-483 24,-477 30,-471 36,-471"/>
<text text-anchor="middle" x="179.5" y="-539.8" font-family="Times,serif" font-size="14.00">list pointer = 0x7ffec9ed2c00</text>
<polyline fill="none" stroke="black" points="24,-532 335,-532 "/>
<text text-anchor="middle" x="179.5" y="-516.8" font-family="Times,serif" font-size="14.00">list capacity = 4</text>
<polyline fill="none" stroke="black" points="24,-509 335,-509 "/>
<text text-anchor="middle" x="179.5" y="-493.8" font-family="Times,serif" font-size="14.00">start: list node array = 0x5e7f91458840 </text>
<text text-anchor="middle" x="179.5" y="-478.8" font-family="Times,serif" font-size="14.00">end: list node array = 0x5e7f91458888</text>
</g>
<!-- data&#45;&gt;head -->
<g id="edge9" class="edge">
<title>data&#45;&gt;head</title>
<path fill="none" stroke="#b2dcff" d="M335.3,-513C355.84,-513 376.62,-513 396.37,-513"/>
<polygon fill="#b2dcff" stroke="#b2dcff" points="396.6,-516.5 406.6,-513 396.6,-509.5 396.6,-516.5"/>
</g>
</g>
</svg>
