<?xml version="1.0" encoding="UTF-8" standalone="no"?>
<!DOCTYPE svg PUBLIC "-//W3C//DTD SVG 1.1//EN"
 "http://www.w3.org/Graphics/SVG/1.1/DTD/svg11.dtd">
<!-- Generated by graphviz version 2.43.0 (0)
 -->
<!-- Title: %3 Pages: 1 -->
<svg width="1515pt" height="689pt"
 viewBox="0.00 0.00 1515.00 689.00" xmlns="http://www.w3.org/2000/svg" xmlns:xlink="http://www.w3.org/1999/xlink">
<g id="graph0" class="graph" transform="scale(1 1) rotate(0) translate(4 685)">
<title>%3</title>
<polygon fill="#b2dcff" stroke="transparent" points="-4,4 -4,-685 1511,-685 1511,4 -4,4"/>
<g id="clust1" class="cluster">
<title>cluster_node_array_sort</title>
<polygon fill="#b2dcff" stroke="#b2dcff" points="56,-8 56,-234 1499,-234 1499,-8 56,-8"/>
<text text-anchor="middle" x="777.5" y="-214" font-family="Helvetica,sans-Serif" font-size="20.00">Node array sort</text>
</g>
<g id="clust2" class="cluster">
<title>cluster_node_0_sort</title>
<polygon fill="#b2dcff" stroke="#b2dcff" points="64,-64 64,-196 295,-196 295,-64 64,-64"/>
<text text-anchor="middle" x="179.5" y="-180.8" font-family="Helvetica,sans-Serif" font-size="14.00">0</text>
</g>
<g id="clust3" class="cluster">
<title>cluster_node_1_sort</title>
<polygon fill="#b2dcff" stroke="#b2dcff" points="399,-16 399,-148 630,-148 630,-16 399,-16"/>
<text text-anchor="middle" x="514.5" y="-132.8" font-family="Helvetica,sans-Serif" font-size="14.00">1</text>
</g>
<g id="clust4" class="cluster">
<title>cluster_node_2_sort</title>
<polygon fill="#b2dcff" stroke="#b2dcff" points="686.5,-16 686.5,-148 916.5,-148 916.5,-16 686.5,-16"/>
<text text-anchor="middle" x="801.5" y="-132.8" font-family="Helvetica,sans-Serif" font-size="14.00">2</text>
</g>
<g id="clust5" class="cluster">
<title>cluster_node_3_sort</title>
<polygon fill="#b2dcff" stroke="#b2dcff" points="973,-16 973,-148 1204,-148 1204,-16 973,-16"/>
<text text-anchor="middle" x="1088.5" y="-132.8" font-family="Helvetica,sans-Serif" font-size="14.00">3</text>
</g>
<g id="clust6" class="cluster">
<title>cluster_node_4_sort</title>
<polygon fill="#b2dcff" stroke="#b2dcff" points="1260,-64 1260,-196 1491,-196 1491,-64 1260,-64"/>
<text text-anchor="middle" x="1375.5" y="-180.8" font-family="Helvetica,sans-Serif" font-size="14.00">4</text>
</g>
<g id="clust7" class="cluster">
<title>cluster_node_array_unsort</title>
<polygon fill="#b2dcff" stroke="#b2dcff" points="56,-242 56,-443 1499,-443 1499,-242 56,-242"/>
<text text-anchor="middle" x="777.5" y="-423" font-family="Helvetica,sans-Serif" font-size="20.00">Node array</text>
</g>
<g id="clust8" class="cluster">
<title>cluster_node_0_unsort</title>
<polygon fill="#b2dcff" stroke="#b2dcff" points="64,-250 64,-405 295,-405 295,-250 64,-250"/>
<text text-anchor="middle" x="179.5" y="-389.8" font-family="Helvetica,sans-Serif" font-size="14.00">0</text>
</g>
<g id="clust9" class="cluster">
<title>cluster_node_1_unsort</title>
<polygon fill="#b2dcff" stroke="#b2dcff" points="399,-250 399,-405 630,-405 630,-250 399,-250"/>
<text text-anchor="middle" x="514.5" y="-389.8" font-family="Helvetica,sans-Serif" font-size="14.00">1</text>
</g>
<g id="clust10" class="cluster">
<title>cluster_node_2_unsort</title>
<polygon fill="#b2dcff" stroke="#b2dcff" points="686.5,-250 686.5,-405 916.5,-405 916.5,-250 686.5,-250"/>
<text text-anchor="middle" x="801.5" y="-389.8" font-family="Helvetica,sans-Serif" font-size="14.00">2</text>
</g>
<g id="clust11" class="cluster">
<title>cluster_node_3_unsort</title>
<polygon fill="#b2dcff" stroke="#b2dcff" points="973,-250 973,-405 1204,-405 1204,-250 973,-250"/>
<text text-anchor="middle" x="1088.5" y="-389.8" font-family="Helvetica,sans-Serif" font-size="14.00">3</text>
</g>
<g id="clust12" class="cluster">
<title>cluster_node_4_unsort</title>
<polygon fill="#b2dcff" stroke="#b2dcff" points="1260,-250 1260,-405 1491,-405 1491,-250 1260,-250"/>
<text text-anchor="middle" x="1375.5" y="-389.8" font-family="Helvetica,sans-Serif" font-size="14.00">4</text>
</g>
<g id="clust13" class="cluster">
<title>cluster_struct_list</title>
<polygon fill="#b2dcff" stroke="#b2dcff" points="8,-451 8,-673 1212,-673 1212,-451 8,-451"/>
<text text-anchor="middle" x="610" y="-621" font-family="Helvetica,sans-Serif" font-size="60.00">Struct List &#160;&#160;#6</text>
</g>
<g id="clust14" class="cluster">
<title>cluster_node_list_data</title>
<polygon fill="#b2dcff" stroke="#b2dcff" points="16,-462 16,-587 343,-587 343,-462 16,-462"/>
<text text-anchor="middle" x="179.5" y="-571.8" font-family="Helvetica,sans-Serif" font-size="14.00">Data</text>
</g>
<g id="clust15" class="cluster">
<title>cluster_head</title>
<polygon fill="#b2dcff" stroke="#b2dcff" points="399,-459 399,-591 630,-591 630,-459 399,-459"/>
<text text-anchor="middle" x="514.5" y="-575.8" font-family="Helvetica,sans-Serif" font-size="14.00">Head</text>
</g>
<g id="clust16" class="cluster">
<title>cluster_tail</title>
<polygon fill="#b2dcff" stroke="#b2dcff" points="686,-459 686,-591 917,-591 917,-459 686,-459"/>
<text text-anchor="middle" x="801.5" y="-575.8" font-family="Helvetica,sans-Serif" font-size="14.00">Tail</text>
</g>
<g id="clust17" class="cluster">
<title>cluster_last_insert</title>
<polygon fill="#b2dcff" stroke="#b2dcff" points="973,-459 973,-591 1204,-591 1204,-459 973,-459"/>
<text text-anchor="middle" x="1088.5" y="-575.8" font-family="Helvetica,sans-Serif" font-size="14.00">Last insert</text>
</g>
<!-- node_0_sort -->
<g id="node1" class="node">
<title>node_0_sort</title>
<path fill="#a8df8e" stroke="black" d="M84,-72C84,-72 275,-72 275,-72 281,-72 287,-78 287,-84 287,-84 287,-152 287,-152 287,-158 281,-164 275,-164 275,-164 84,-164 84,-164 78,-164 72,-158 72,-152 72,-152 72,-84 72,-84 72,-78 78,-72 84,-72"/>
<text text-anchor="middle" x="179.5" y="-148.8" font-family="Times,serif" font-size="14.00">address = 0x5e7f91458d70</text>
<polyline fill="none" stroke="black" points="72,-141 287,-141 "/>
<text text-anchor="middle" x="179.5" y="-125.8" font-family="Times,serif" font-size="14.00">next: 0x5e7f91458d88</text>
<polyline fill="none" stroke="black" points="72,-118 287,-118 "/>
<text text-anchor="middle" x="179.5" y="-102.8" font-family="Times,serif" font-size="14.00">data: 111</text>
<polyline fill="none" stroke="black" points="72,-95 287,-95 "/>
<text text-anchor="middle" x="179.5" y="-79.8" font-family="Times,serif" font-size="14.00">prev: 0x5e7f91458dd0</text>
</g>
<!-- node_1_sort -->
<g id="node2" class="node">
<title>node_1_sort</title>
<path fill="#a8df8e" stroke="black" d="M419,-24C419,-24 610,-24 610,-24 616,-24 622,-30 622,-36 622,-36 622,-104 622,-104 622,-110 616,-116 610,-116 610,-116 419,-116 419,-116 413,-116 407,-110 407,-104 407,-104 407,-36 407,-36 407,-30 413,-24 419,-24"/>
<text text-anchor="middle" x="514.5" y="-100.8" font-family="Times,serif" font-size="14.00">address = 0x5e7f91458d88</text>
<polyline fill="none" stroke="black" points="407,-93 622,-93 "/>
<text text-anchor="middle" x="514.5" y="-77.8" font-family="Times,serif" font-size="14.00">next: 0x5e7f91458da0</text>
<polyline fill="none" stroke="black" points="407,-70 622,-70 "/>
<text text-anchor="middle" x="514.5" y="-54.8" font-family="Times,serif" font-size="14.00">data: 222</text>
<polyline fill="none" stroke="black" points="407,-47 622,-47 "/>
<text text-anchor="middle" x="514.5" y="-31.8" font-family="Times,serif" font-size="14.00">prev: 0x5e7f91458c90</text>
</g>
<!-- node_0_sort&#45;&gt;node_1_sort -->
<g id="edge1" class="edge">
<title>node_0_sort&#45;&gt;node_1_sort</title>
<path fill="none" stroke="black" d="M287.24,-115.31C322.19,-111.25 361.19,-105.71 396.84,-99.76"/>
<polygon fill="black" stroke="black" points="397.52,-103.2 406.8,-98.08 396.35,-96.3 397.52,-103.2"/>
</g>
<!-- node_4_sort -->
<g id="node5" class="node">
<title>node_4_sort</title>
<path fill="#b462ee" stroke="black" d="M1280,-72C1280,-72 1471,-72 1471,-72 1477,-72 1483,-78 1483,-84 1483,-84 1483,-152 1483,-152 1483,-158 1477,-164 1471,-164 1471,-164 1280,-164 1280,-164 1274,-164 1268,-158 1268,-152 1268,-152 1268,-84 1268,-84 1268,-78 1274,-72 1280,-72"/>
<text text-anchor="middle" x="1375.5" y="-148.8" font-family="Times,serif" font-size="14.00">address = 0x5e7f91458dd0</text>
<polyline fill="none" stroke="black" points="1268,-141 1483,-141 "/>
<text text-anchor="middle" x="1375.5" y="-125.8" font-family="Times,serif" font-size="14.00">next: 0x5e7f91458d70</text>
<polyline fill="none" stroke="black" points="1268,-118 1483,-118 "/>
<text text-anchor="middle" x="1375.5" y="-102.8" font-family="Times,serif" font-size="14.00">data: 555</text>
<polyline fill="none" stroke="black" points="1268,-95 1483,-95 "/>
<text text-anchor="middle" x="1375.5" y="-79.8" font-family="Times,serif" font-size="14.00">prev: 0x5e7f91458db8</text>
</g>
<!-- node_0_sort&#45;&gt;node_4_sort -->
<g id="edge10" class="edge">
<title>node_0_sort&#45;&gt;node_4_sort</title>
<path fill="none" stroke="red" d="M287.08,-137.96C322.55,-143.7 362.35,-149.17 399,-152 489.06,-158.97 1122.15,-161.3 1212,-152 1226.93,-150.45 1242.52,-148.13 1257.87,-145.41"/>
<polygon fill="red" stroke="red" points="1258.71,-148.81 1267.92,-143.57 1257.45,-141.93 1258.71,-148.81"/>
</g>
<!-- node_1_sort&#45;&gt;node_0_sort -->
<g id="edge9" class="edge">
<title>node_1_sort&#45;&gt;node_0_sort</title>
<path fill="none" stroke="red" d="M406.8,-72.69C371.85,-76.74 332.84,-82.28 297.2,-88.23"/>
<polygon fill="red" stroke="red" points="296.51,-84.8 287.24,-89.92 297.68,-91.7 296.51,-84.8"/>
</g>
<!-- node_2_sort -->
<g id="node3" class="node">
<title>node_2_sort</title>
<path fill="#a8df8e" stroke="black" d="M706.5,-24C706.5,-24 896.5,-24 896.5,-24 902.5,-24 908.5,-30 908.5,-36 908.5,-36 908.5,-104 908.5,-104 908.5,-110 902.5,-116 896.5,-116 896.5,-116 706.5,-116 706.5,-116 700.5,-116 694.5,-110 694.5,-104 694.5,-104 694.5,-36 694.5,-36 694.5,-30 700.5,-24 706.5,-24"/>
<text text-anchor="middle" x="801.5" y="-100.8" font-family="Times,serif" font-size="14.00">address = 0x5e7f91458da0</text>
<polyline fill="none" stroke="black" points="694.5,-93 908.5,-93 "/>
<text text-anchor="middle" x="801.5" y="-77.8" font-family="Times,serif" font-size="14.00">next: 0x5e7f91458db8</text>
<polyline fill="none" stroke="black" points="694.5,-70 908.5,-70 "/>
<text text-anchor="middle" x="801.5" y="-54.8" font-family="Times,serif" font-size="14.00">data: 333</text>
<polyline fill="none" stroke="black" points="694.5,-47 908.5,-47 "/>
<text text-anchor="middle" x="801.5" y="-31.8" font-family="Times,serif" font-size="14.00">prev: 0x5e7f91458858</text>
</g>
<!-- node_1_sort&#45;&gt;node_2_sort -->
<g id="edge2" class="edge">
<title>node_1_sort&#45;&gt;node_2_sort</title>
<path fill="none" stroke="black" d="M622.03,-83.11C642.27,-83.56 663.56,-83.62 684.09,-83.3"/>
<polygon fill="black" stroke="black" points="684.17,-86.8 694.1,-83.11 684.04,-79.8 684.17,-86.8"/>
</g>
<!-- node_2_sort&#45;&gt;node_1_sort -->
<g id="edge8" class="edge">
<title>node_2_sort&#45;&gt;node_1_sort</title>
<path fill="none" stroke="red" d="M694.1,-56.89C673.86,-56.44 652.58,-56.38 632.04,-56.7"/>
<polygon fill="red" stroke="red" points="631.96,-53.2 622.03,-56.89 632.09,-60.2 631.96,-53.2"/>
</g>
<!-- node_3_sort -->
<g id="node4" class="node">
<title>node_3_sort</title>
<path fill="#a8df8e" stroke="black" d="M993,-24C993,-24 1184,-24 1184,-24 1190,-24 1196,-30 1196,-36 1196,-36 1196,-104 1196,-104 1196,-110 1190,-116 1184,-116 1184,-116 993,-116 993,-116 987,-116 981,-110 981,-104 981,-104 981,-36 981,-36 981,-30 987,-24 993,-24"/>
<text text-anchor="middle" x="1088.5" y="-100.8" font-family="Times,serif" font-size="14.00">address = 0x5e7f91458db8</text>
<polyline fill="none" stroke="black" points="981,-93 1196,-93 "/>
<text text-anchor="middle" x="1088.5" y="-77.8" font-family="Times,serif" font-size="14.00">next: 0x5e7f91458dd0</text>
<polyline fill="none" stroke="black" points="981,-70 1196,-70 "/>
<text text-anchor="middle" x="1088.5" y="-54.8" font-family="Times,serif" font-size="14.00">data: 443</text>
<polyline fill="none" stroke="black" points="981,-47 1196,-47 "/>
<text text-anchor="middle" x="1088.5" y="-31.8" font-family="Times,serif" font-size="14.00">prev: 0x5e7f91458da0</text>
</g>
<!-- node_2_sort&#45;&gt;node_3_sort -->
<g id="edge3" class="edge">
<title>node_2_sort&#45;&gt;node_3_sort</title>
<path fill="none" stroke="black" d="M908.62,-83.1C928.89,-83.55 950.2,-83.62 970.78,-83.3"/>
<polygon fill="black" stroke="black" points="970.88,-86.8 980.81,-83.11 970.75,-79.8 970.88,-86.8"/>
</g>
<!-- node_3_sort&#45;&gt;node_2_sort -->
<g id="edge7" class="edge">
<title>node_3_sort&#45;&gt;node_2_sort</title>
<path fill="none" stroke="red" d="M980.81,-56.89C960.53,-56.44 939.21,-56.38 918.65,-56.71"/>
<polygon fill="red" stroke="red" points="918.55,-53.21 908.62,-56.9 918.69,-60.21 918.55,-53.21"/>
</g>
<!-- node_3_sort&#45;&gt;node_4_sort -->
<g id="edge4" class="edge">
<title>node_3_sort&#45;&gt;node_4_sort</title>
<path fill="none" stroke="black" d="M1196.03,-101.05C1216.14,-104.88 1237.27,-108.51 1257.67,-111.63"/>
<polygon fill="black" stroke="black" points="1257.22,-115.1 1267.63,-113.12 1258.25,-108.18 1257.22,-115.1"/>
</g>
<!-- node_4_sort&#45;&gt;node_0_sort -->
<g id="edge5" class="edge">
<title>node_4_sort&#45;&gt;node_0_sort</title>
<path fill="none" stroke="black" d="M1268,-154.94C1249.53,-159.95 1230.37,-164.29 1212,-167 854.53,-219.72 758.14,-206.78 399,-167 365.65,-163.31 329.94,-156.53 297.27,-149.18"/>
<polygon fill="black" stroke="black" points="297.76,-145.7 287.23,-146.88 296.19,-152.52 297.76,-145.7"/>
</g>
<!-- node_4_sort&#45;&gt;node_3_sort -->
<g id="edge6" class="edge">
<title>node_4_sort&#45;&gt;node_3_sort</title>
<path fill="none" stroke="red" d="M1267.63,-86.88C1247.51,-83.05 1226.37,-79.43 1205.97,-76.32"/>
<polygon fill="red" stroke="red" points="1206.44,-72.85 1196.03,-74.83 1205.4,-79.77 1206.44,-72.85"/>
</g>
<!-- node_0_unsort -->
<g id="node6" class="node">
<title>node_0_unsort</title>
<path fill="#a8df8e" stroke="black" d="M84,-258.5C84,-258.5 275,-258.5 275,-258.5 281,-258.5 287,-264.5 287,-270.5 287,-270.5 287,-361.5 287,-361.5 287,-367.5 281,-373.5 275,-373.5 275,-373.5 84,-373.5 84,-373.5 78,-373.5 72,-367.5 72,-361.5 72,-361.5 72,-270.5 72,-270.5 72,-264.5 78,-258.5 84,-258.5"/>
<text text-anchor="middle" x="179.5" y="-358.3" font-family="Times,serif" font-size="14.00">index in node array: 0</text>
<polyline fill="none" stroke="black" points="72,-350.5 287,-350.5 "/>
<text text-anchor="middle" x="179.5" y="-335.3" font-family="Times,serif" font-size="14.00">address = 0x5e7f91458d70</text>
<polyline fill="none" stroke="black" points="72,-327.5 287,-327.5 "/>
<text text-anchor="middle" x="179.5" y="-312.3" font-family="Times,serif" font-size="14.00">next: 0x5e7f91458d88</text>
<polyline fill="none" stroke="black" points="72,-304.5 287,-304.5 "/>
<text text-anchor="middle" x="179.5" y="-289.3" font-family="Times,serif" font-size="14.00">data: 111</text>
<polyline fill="none" stroke="black" points="72,-281.5 287,-281.5 "/>
<text text-anchor="middle" x="179.5" y="-266.3" font-family="Times,serif" font-size="14.00">prev: 0x5e7f91458dd0</text>
</g>
<!-- node_1_unsort -->
<g id="node7" class="node">
<title>node_1_unsort</title>
<path fill="#a8df8e" stroke="black" d="M419,-258.5C419,-258.5 610,-258.5 610,-258.5 616,-258.5 622,-264.5 622,-270.5 622,-270.5 622,-361.5 622,-361.5 622,-367.5 616,-373.5 610,-373.5 610,-373.5 419,-373.5 419,-373.5 413,-373.5 407,-367.5 407,-361.5 407,-361.5 407,-270.5 407,-270.5 407,-264.5 413,-258.5 419,-258.5"/>
<text text-anchor="middle" x="514.5" y="-358.3" font-family="Times,serif" font-size="14.00">index in node array: 1</text>
<polyline fill="none" stroke="black" points="407,-350.5 622,-350.5 "/>
<text text-anchor="middle" x="514.5" y="-335.3" font-family="Times,serif" font-size="14.00">address = 0x5e7f91458d88</text>
<polyline fill="none" stroke="black" points="407,-327.5 622,-327.5 "/>
<text text-anchor="middle" x="514.5" y="-312.3" font-family="Times,serif" font-size="14.00">next: 0x5e7f91458da0</text>
<polyline fill="none" stroke="black" points="407,-304.5 622,-304.5 "/>
<text text-anchor="middle" x="514.5" y="-289.3" font-family="Times,serif" font-size="14.00">data: 222</text>
<polyline fill="none" stroke="black" points="407,-281.5 622,-281.5 "/>
<text text-anchor="middle" x="514.5" y="-266.3" font-family="Times,serif" font-size="14.00">prev: 0x5e7f91458c90</text>
</g>
<!-- node_0_unsort&#45;&gt;node_1_unsort -->
<g id="edge11" class="edge">
<title>node_0_unsort&#45;&gt;node_1_unsort</title>
<path fill="none" stroke="black" d="M287.24,-316C322.04,-316 360.86,-316 396.38,-316"/>
<polygon fill="black" stroke="black" points="396.8,-319.5 406.8,-316 396.8,-312.5 396.8,-319.5"/>
</g>
<!-- node_2_unsort -->
<g id="node8" class="node">
<title>node_2_unsort</title>
<path fill="#a8df8e" stroke="black" d="M706.5,-258.5C706.5,-258.5 896.5,-258.5 896.5,-258.5 902.5,-258.5 908.5,-264.5 908.5,-270.5 908.5,-270.5 908.5,-361.5 908.5,-361.5 908.5,-367.5 902.5,-373.5 896.5,-373.5 896.5,-373.5 706.5,-373.5 706.5,-373.5 700.5,-373.5 694.5,-367.5 694.5,-361.5 694.5,-361.5 694.5,-270.5 694.5,-270.5 694.5,-264.5 700.5,-258.5 706.5,-258.5"/>
<text text-anchor="middle" x="801.5" y="-358.3" font-family="Times,serif" font-size="14.00">index in node array: 2</text>
<polyline fill="none" stroke="black" points="694.5,-350.5 908.5,-350.5 "/>
<text text-anchor="middle" x="801.5" y="-335.3" font-family="Times,serif" font-size="14.00">address = 0x5e7f91458da0</text>
<polyline fill="none" stroke="black" points="694.5,-327.5 908.5,-327.5 "/>
<text text-anchor="middle" x="801.5" y="-312.3" font-family="Times,serif" font-size="14.00">next: 0x5e7f91458db8</text>
<polyline fill="none" stroke="black" points="694.5,-304.5 908.5,-304.5 "/>
<text text-anchor="middle" x="801.5" y="-289.3" font-family="Times,serif" font-size="14.00">data: 333</text>
<polyline fill="none" stroke="black" points="694.5,-281.5 908.5,-281.5 "/>
<text text-anchor="middle" x="801.5" y="-266.3" font-family="Times,serif" font-size="14.00">prev: 0x5e7f91458858</text>
</g>
<!-- node_1_unsort&#45;&gt;node_2_unsort -->
<g id="edge12" class="edge">
<title>node_1_unsort&#45;&gt;node_2_unsort</title>
<path fill="none" stroke="black" d="M622.03,-316C642.27,-316 663.56,-316 684.09,-316"/>
<polygon fill="black" stroke="black" points="684.1,-319.5 694.1,-316 684.1,-312.5 684.1,-319.5"/>
</g>
<!-- node_3_unsort -->
<g id="node9" class="node">
<title>node_3_unsort</title>
<path fill="#a8df8e" stroke="black" d="M993,-258.5C993,-258.5 1184,-258.5 1184,-258.5 1190,-258.5 1196,-264.5 1196,-270.5 1196,-270.5 1196,-361.5 1196,-361.5 1196,-367.5 1190,-373.5 1184,-373.5 1184,-373.5 993,-373.5 993,-373.5 987,-373.5 981,-367.5 981,-361.5 981,-361.5 981,-270.5 981,-270.5 981,-264.5 987,-258.5 993,-258.5"/>
<text text-anchor="middle" x="1088.5" y="-358.3" font-family="Times,serif" font-size="14.00">index in node array: 3</text>
<polyline fill="none" stroke="black" points="981,-350.5 1196,-350.5 "/>
<text text-anchor="middle" x="1088.5" y="-335.3" font-family="Times,serif" font-size="14.00">address = 0x5e7f91458db8</text>
<polyline fill="none" stroke="black" points="981,-327.5 1196,-327.5 "/>
<text text-anchor="middle" x="1088.5" y="-312.3" font-family="Times,serif" font-size="14.00">next: 0x5e7f91458dd0</text>
<polyline fill="none" stroke="black" points="981,-304.5 1196,-304.5 "/>
<text text-anchor="middle" x="1088.5" y="-289.3" font-family="Times,serif" font-size="14.00">data: 443</text>
<polyline fill="none" stroke="black" points="981,-281.5 1196,-281.5 "/>
<text text-anchor="middle" x="1088.5" y="-266.3" font-family="Times,serif" font-size="14.00">prev: 0x5e7f91458da0</text>
</g>
<!-- node_2_unsort&#45;&gt;node_3_unsort -->
<g id="edge13" class="edge">
<title>node_2_unsort&#45;&gt;node_3_unsort</title>
<path fill="none" stroke="black" d="M908.62,-316C928.89,-316 950.2,-316 970.78,-316"/>
<polygon fill="black" stroke="black" points="970.81,-319.5 980.81,-316 970.81,-312.5 970.81,-319.5"/>
</g>
<!-- node_4_unsort -->
<g id="node10" class="node">
<title>node_4_unsort</title>
<path fill="#b462ee" stroke="black" d="M1280,-258.5C1280,-258.5 1471,-258.5 1471,-258.5 1477,-258.5 1483,-264.5 1483,-270.5 1483,-270.5 1483,-361.5 1483,-361.5 1483,-367.5 1477,-373.5 1471,-373.5 1471,-373.5 1280,-373.5 1280,-373.5 1274,-373.5 1268,-367.5 1268,-361.5 1268,-361.5 1268,-270.5 1268,-270.5 1268,-264.5 1274,-258.5 1280,-258.5"/>
<text text-anchor="middle" x="1375.5" y="-358.3" font-family="Times,serif" font-size="14.00">index in node array: 4</text>
<polyline fill="none" stroke="black" points="1268,-350.5 1483,-350.5 "/>
<text text-anchor="middle" x="1375.5" y="-335.3" font-family="Times,serif" font-size="14.00">address = 0x5e7f91458dd0</text>
<polyline fill="none" stroke="black" points="1268,-327.5 1483,-327.5 "/>
<text text-anchor="middle" x="1375.5" y="-312.3" font-family="Times,serif" font-size="14.00">next: 0x5e7f91458d70</text>
<polyline fill="none" stroke="black" points="1268,-304.5 1483,-304.5 "/>
<text text-anchor="middle" x="1375.5" y="-289.3" font-family="Times,serif" font-size="14.00">data: 555</text>
<polyline fill="none" stroke="black" points="1268,-281.5 1483,-281.5 "/>
<text text-anchor="middle" x="1375.5" y="-266.3" font-family="Times,serif" font-size="14.00">prev: 0x5e7f91458db8</text>
</g>
<!-- node_3_unsort&#45;&gt;node_4_unsort -->
<g id="edge14" class="edge">
<title>node_3_unsort&#45;&gt;node_4_unsort</title>
<path fill="none" stroke="black" d="M1196.03,-316C1216.05,-316 1237.08,-316 1257.4,-316"/>
<polygon fill="black" stroke="black" points="1257.63,-319.5 1267.63,-316 1257.63,-312.5 1257.63,-319.5"/>
</g>
<!-- head -->
<g id="node11" class="node">
<title>head</title>
<path fill="#febe5e" stroke="black" d="M419,-467C419,-467 610,-467 610,-467 616,-467 622,-473 622,-479 622,-479 622,-547 622,-547 622,-553 616,-559 610,-559 610,-559 419,-559 419,-559 413,-559 407,-553 407,-547 407,-547 407,-479 407,-479 407,-473 413,-467 419,-467"/>
<text text-anchor="middle" x="514.5" y="-543.8" font-family="Times,serif" font-size="14.00">address = 0x5e7f91458d70</text>
<polyline fill="none" stroke="black" points="407,-536 622,-536 "/>
<text text-anchor="middle" x="514.5" y="-520.8" font-family="Times,serif" font-size="14.00">next: 0x5e7f91458d88</text>
<polyline fill="none" stroke="black" points="407,-513 622,-513 "/>
<text text-anchor="middle" x="514.5" y="-497.8" font-family="Times,serif" font-size="14.00">data: 111</text>
<polyline fill="none" stroke="black" points="407,-490 622,-490 "/>
<text text-anchor="middle" x="514.5" y="-474.8" font-family="Times,serif" font-size="14.00">prev: 0x5e7f91458dd0</text>
</g>
<!-- tail -->
<g id="node12" class="node">
<title>tail</title>
<path fill="#febe5e" stroke="black" d="M706,-467C706,-467 897,-467 897,-467 903,-467 909,-473 909,-479 909,-479 909,-547 909,-547 909,-553 903,-559 897,-559 897,-559 706,-559 706,-559 700,-559 694,-553 694,-547 694,-547 694,-479 694,-479 694,-473 700,-467 706,-467"/>
<text text-anchor="middle" x="801.5" y="-543.8" font-family="Times,serif" font-size="14.00">address = 0x5e7f91458dd0</text>
<polyline fill="none" stroke="black" points="694,-536 909,-536 "/>
<text text-anchor="middle" x="801.5" y="-520.8" font-family="Times,serif" font-size="14.00">next: 0x5e7f91458d70</text>
<polyline fill="none" stroke="black" points="694,-513 909,-513 "/>
<text text-anchor="middle" x="801.5" y="-497.8" font-family="Times,serif" font-size="14.00">data: 555</text>
<polyline fill="none" stroke="black" points="694,-490 909,-490 "/>
<text text-anchor="middle" x="801.5" y="-474.8" font-family="Times,serif" font-size="14.00">prev: 0x5e7f91458db8</text>
</g>
<!-- head&#45;&gt;tail -->
<g id="edge16" class="edge">
<title>head&#45;&gt;tail</title>
<path fill="none" stroke="#b2dcff" d="M622.03,-513C642.05,-513 663.08,-513 683.4,-513"/>
<polygon fill="#b2dcff" stroke="#b2dcff" points="683.63,-516.5 693.63,-513 683.63,-509.5 683.63,-516.5"/>
</g>
<!-- last_insert -->
<g id="node13" class="node">
<title>last_insert</title>
<path fill="#febe5e" stroke="black" d="M993,-467C993,-467 1184,-467 1184,-467 1190,-467 1196,-473 1196,-479 1196,-479 1196,-547 1196,-547 1196,-553 1190,-559 1184,-559 1184,-559 993,-559 993,-559 987,-559 981,-553 981,-547 981,-547 981,-479 981,-479 981,-473 987,-467 993,-467"/>
<text text-anchor="middle" x="1088.5" y="-543.8" font-family="Times,serif" font-size="14.00">address = 0x5e7f91458dd0</text>
<polyline fill="none" stroke="black" points="981,-536 1196,-536 "/>
<text text-anchor="middle" x="1088.5" y="-520.8" font-family="Times,serif" font-size="14.00">next: 0x5e7f91458d70</text>
<polyline fill="none" stroke="black" points="981,-513 1196,-513 "/>
<text text-anchor="middle" x="1088.5" y="-497.8" font-family="Times,serif" font-size="14.00">data: 555</text>
<polyline fill="none" stroke="black" points="981,-490 1196,-490 "/>
<text text-anchor="middle" x="1088.5" y="-474.8" font-family="Times,serif" font-size="14.00">prev: 0x5e7f91458db8</text>
</g>
<!-- tail&#45;&gt;last_insert -->
<g id="edge17" class="edge">
<title>tail&#45;&gt;last_insert</title>
<path fill="none" stroke="#b2dcff" d="M909.03,-513C929.05,-513 950.08,-513 970.4,-513"/>
<polygon fill="#b2dcff" stroke="#b2dcff" points="970.63,-516.5 980.63,-513 970.63,-509.5 970.63,-516.5"/>
</g>
<!-- data -->
<g id="node14" class="node">
<title>data</title>
<path fill="#febe5e" stroke="black" d="M36,-471C36,-471 323,-471 323,-471 329,-471 335,-477 335,-483 335,-483 335,-543 335,-543 335,-549 329,-555 323,-555 323,-555 36,-555 36,-555 30,-555 24,-549 24,-543 24,-543 24,-483 24,-483 24,-477 30,-471 36,-471"/>
<text text-anchor="middle" x="179.5" y="-539.8" font-family="Times,serif" font-size="14.00">list pointer = 0x7ffec9ed2c00</text>
<polyline fill="none" stroke="black" points="24,-532 335,-532 "/>
<text text-anchor="middle" x="179.5" y="-516.8" font-family="Times,serif" font-size="14.00">list capacity = 8</text>
<polyline fill="none" stroke="black" points="24,-509 335,-509 "/>
<text text-anchor="middle" x="179.5" y="-493.8" font-family="Times,serif" font-size="14.00">start: list node array = 0x5e7f91458d70 </text>
<text text-anchor="middle" x="179.5" y="-478.8" font-family="Times,serif" font-size="14.00">end: list node array = 0x5e7f91458e18</text>
</g>
<!-- data&#45;&gt;head -->
<g id="edge15" class="edge">
<title>data&#45;&gt;head</title>
<path fill="none" stroke="#b2dcff" d="M335.3,-513C355.84,-513 376.62,-513 396.37,-513"/>
<polygon fill="#b2dcff" stroke="#b2dcff" points="396.6,-516.5 406.6,-513 396.6,-509.5 396.6,-516.5"/>
</g>
</g>
</svg>
