<?xml version="1.0" encoding="UTF-8" standalone="no"?>
<!DOCTYPE svg PUBLIC "-//W3C//DTD SVG 1.1//EN"
 "http://www.w3.org/Graphics/SVG/1.1/DTD/svg11.dtd">
<!-- Generated by graphviz version 2.43.0 (0)
 -->
<!-- Title: %3 Pages: 1 -->
<svg width="2089pt" height="689pt"
 viewBox="0.00 0.00 2089.00 689.00" xmlns="http://www.w3.org/2000/svg" xmlns:xlink="http://www.w3.org/1999/xlink">
<g id="graph0" class="graph" transform="scale(1 1) rotate(0) translate(4 685)">
<title>%3</title>
<polygon fill="#b2dcff" stroke="transparent" points="-4,4 -4,-685 2085,-685 2085,4 -4,4"/>
<g id="clust1" class="cluster">
<title>cluster_node_array_sort</title>
<polygon fill="#b2dcff" stroke="#b2dcff" points="56.5,-8 56.5,-234 2073,-234 2073,-8 56.5,-8"/>
<text text-anchor="middle" x="1064.75" y="-214" font-family="Helvetica,sans-Serif" font-size="20.00">Node array sort</text>
</g>
<g id="clust2" class="cluster">
<title>cluster_node_0_sort</title>
<polygon fill="#b2dcff" stroke="#b2dcff" points="64.5,-64 64.5,-196 294.5,-196 294.5,-64 64.5,-64"/>
<text text-anchor="middle" x="179.5" y="-180.8" font-family="Helvetica,sans-Serif" font-size="14.00">0</text>
</g>
<g id="clust3" class="cluster">
<title>cluster_node_1_sort</title>
<polygon fill="#b2dcff" stroke="#b2dcff" points="399,-16 399,-148 630,-148 630,-16 399,-16"/>
<text text-anchor="middle" x="514.5" y="-132.8" font-family="Helvetica,sans-Serif" font-size="14.00">1</text>
</g>
<g id="clust4" class="cluster">
<title>cluster_node_2_sort</title>
<polygon fill="#b2dcff" stroke="#b2dcff" points="686,-16 686,-148 917,-148 917,-16 686,-16"/>
<text text-anchor="middle" x="801.5" y="-132.8" font-family="Helvetica,sans-Serif" font-size="14.00">2</text>
</g>
<g id="clust5" class="cluster">
<title>cluster_node_3_sort</title>
<polygon fill="#b2dcff" stroke="#b2dcff" points="973.5,-16 973.5,-148 1203.5,-148 1203.5,-16 973.5,-16"/>
<text text-anchor="middle" x="1088.5" y="-132.8" font-family="Helvetica,sans-Serif" font-size="14.00">3</text>
</g>
<g id="clust6" class="cluster">
<title>cluster_node_4_sort</title>
<polygon fill="#b2dcff" stroke="#b2dcff" points="1260.5,-16 1260.5,-148 1490.5,-148 1490.5,-16 1260.5,-16"/>
<text text-anchor="middle" x="1375.5" y="-132.8" font-family="Helvetica,sans-Serif" font-size="14.00">4</text>
</g>
<g id="clust7" class="cluster">
<title>cluster_node_5_sort</title>
<polygon fill="#b2dcff" stroke="#b2dcff" points="1547,-16 1547,-148 1778,-148 1778,-16 1547,-16"/>
<text text-anchor="middle" x="1662.5" y="-132.8" font-family="Helvetica,sans-Serif" font-size="14.00">5</text>
</g>
<g id="clust8" class="cluster">
<title>cluster_node_6_sort</title>
<polygon fill="#b2dcff" stroke="#b2dcff" points="1834,-64 1834,-196 2065,-196 2065,-64 1834,-64"/>
<text text-anchor="middle" x="1949.5" y="-180.8" font-family="Helvetica,sans-Serif" font-size="14.00">6</text>
</g>
<g id="clust9" class="cluster">
<title>cluster_node_array_unsort</title>
<polygon fill="#b2dcff" stroke="#b2dcff" points="56,-242 56,-443 2072.5,-443 2072.5,-242 56,-242"/>
<text text-anchor="middle" x="1064.25" y="-423" font-family="Helvetica,sans-Serif" font-size="20.00">Node array</text>
</g>
<g id="clust10" class="cluster">
<title>cluster_node_0_unsort</title>
<polygon fill="#b2dcff" stroke="#b2dcff" points="64,-250 64,-405 295,-405 295,-250 64,-250"/>
<text text-anchor="middle" x="179.5" y="-389.8" font-family="Helvetica,sans-Serif" font-size="14.00">1</text>
</g>
<g id="clust11" class="cluster">
<title>cluster_node_1_unsort</title>
<polygon fill="#b2dcff" stroke="#b2dcff" points="399,-250 399,-405 630,-405 630,-250 399,-250"/>
<text text-anchor="middle" x="514.5" y="-389.8" font-family="Helvetica,sans-Serif" font-size="14.00">2</text>
</g>
<g id="clust12" class="cluster">
<title>cluster_node_2_unsort</title>
<polygon fill="#b2dcff" stroke="#b2dcff" points="686.5,-250 686.5,-405 916.5,-405 916.5,-250 686.5,-250"/>
<text text-anchor="middle" x="801.5" y="-389.8" font-family="Helvetica,sans-Serif" font-size="14.00">3</text>
</g>
<g id="clust13" class="cluster">
<title>cluster_node_3_unsort</title>
<polygon fill="#b2dcff" stroke="#b2dcff" points="973,-250 973,-405 1204,-405 1204,-250 973,-250"/>
<text text-anchor="middle" x="1088.5" y="-389.8" font-family="Helvetica,sans-Serif" font-size="14.00">5</text>
</g>
<g id="clust14" class="cluster">
<title>cluster_node_4_unsort</title>
<polygon fill="#b2dcff" stroke="#b2dcff" points="1260,-250 1260,-405 1491,-405 1491,-250 1260,-250"/>
<text text-anchor="middle" x="1375.5" y="-389.8" font-family="Helvetica,sans-Serif" font-size="14.00">6</text>
</g>
<g id="clust15" class="cluster">
<title>cluster_node_5_unsort</title>
<polygon fill="#b2dcff" stroke="#b2dcff" points="1547.5,-250 1547.5,-405 1777.5,-405 1777.5,-250 1547.5,-250"/>
<text text-anchor="middle" x="1662.5" y="-389.8" font-family="Helvetica,sans-Serif" font-size="14.00">4</text>
</g>
<g id="clust16" class="cluster">
<title>cluster_node_6_unsort</title>
<polygon fill="#b2dcff" stroke="#b2dcff" points="1834.5,-250 1834.5,-405 2064.5,-405 2064.5,-250 1834.5,-250"/>
<text text-anchor="middle" x="1949.5" y="-389.8" font-family="Helvetica,sans-Serif" font-size="14.00">0</text>
</g>
<g id="clust17" class="cluster">
<title>cluster_struct_list</title>
<polygon fill="#b2dcff" stroke="#b2dcff" points="8,-451 8,-673 1211.5,-673 1211.5,-451 8,-451"/>
<text text-anchor="middle" x="609.75" y="-621" font-family="Helvetica,sans-Serif" font-size="60.00">Struct List &#160;&#160;#8</text>
</g>
<g id="clust18" class="cluster">
<title>cluster_node_list_data</title>
<polygon fill="#b2dcff" stroke="#b2dcff" points="16,-462 16,-587 343,-587 343,-462 16,-462"/>
<text text-anchor="middle" x="179.5" y="-571.8" font-family="Helvetica,sans-Serif" font-size="14.00">Data</text>
</g>
<g id="clust19" class="cluster">
<title>cluster_head</title>
<polygon fill="#b2dcff" stroke="#b2dcff" points="399.5,-459 399.5,-591 629.5,-591 629.5,-459 399.5,-459"/>
<text text-anchor="middle" x="514.5" y="-575.8" font-family="Helvetica,sans-Serif" font-size="14.00">Head</text>
</g>
<g id="clust20" class="cluster">
<title>cluster_tail</title>
<polygon fill="#b2dcff" stroke="#b2dcff" points="686,-459 686,-591 917,-591 917,-459 686,-459"/>
<text text-anchor="middle" x="801.5" y="-575.8" font-family="Helvetica,sans-Serif" font-size="14.00">Tail</text>
</g>
<g id="clust21" class="cluster">
<title>cluster_last_insert</title>
<polygon fill="#b2dcff" stroke="#b2dcff" points="973.5,-459 973.5,-591 1203.5,-591 1203.5,-459 973.5,-459"/>
<text text-anchor="middle" x="1088.5" y="-575.8" font-family="Helvetica,sans-Serif" font-size="14.00">Last insert</text>
</g>
<!-- node_0_sort -->
<g id="node1" class="node">
<title>node_0_sort</title>
<path fill="#b462ee" stroke="black" d="M84.5,-72C84.5,-72 274.5,-72 274.5,-72 280.5,-72 286.5,-78 286.5,-84 286.5,-84 286.5,-152 286.5,-152 286.5,-158 280.5,-164 274.5,-164 274.5,-164 84.5,-164 84.5,-164 78.5,-164 72.5,-158 72.5,-152 72.5,-152 72.5,-84 72.5,-84 72.5,-78 78.5,-72 84.5,-72"/>
<text text-anchor="middle" x="179.5" y="-148.8" font-family="Times,serif" font-size="14.00">address = 0x56220a5f9e00</text>
<polyline fill="none" stroke="black" points="72.5,-141 286.5,-141 "/>
<text text-anchor="middle" x="179.5" y="-125.8" font-family="Times,serif" font-size="14.00">next: 0x56220a5f9d70</text>
<polyline fill="none" stroke="black" points="72.5,-118 286.5,-118 "/>
<text text-anchor="middle" x="179.5" y="-102.8" font-family="Times,serif" font-size="14.00">data: &#45;999</text>
<polyline fill="none" stroke="black" points="72.5,-95 286.5,-95 "/>
<text text-anchor="middle" x="179.5" y="-79.8" font-family="Times,serif" font-size="14.00">prev: 0x56220a5f9dd0</text>
</g>
<!-- node_1_sort -->
<g id="node2" class="node">
<title>node_1_sort</title>
<path fill="#a8df8e" stroke="black" d="M419,-24C419,-24 610,-24 610,-24 616,-24 622,-30 622,-36 622,-36 622,-104 622,-104 622,-110 616,-116 610,-116 610,-116 419,-116 419,-116 413,-116 407,-110 407,-104 407,-104 407,-36 407,-36 407,-30 413,-24 419,-24"/>
<text text-anchor="middle" x="514.5" y="-100.8" font-family="Times,serif" font-size="14.00">address = 0x56220a5f9d70</text>
<polyline fill="none" stroke="black" points="407,-93 622,-93 "/>
<text text-anchor="middle" x="514.5" y="-77.8" font-family="Times,serif" font-size="14.00">next: 0x56220a5f9d88</text>
<polyline fill="none" stroke="black" points="407,-70 622,-70 "/>
<text text-anchor="middle" x="514.5" y="-54.8" font-family="Times,serif" font-size="14.00">data: 111</text>
<polyline fill="none" stroke="black" points="407,-47 622,-47 "/>
<text text-anchor="middle" x="514.5" y="-31.8" font-family="Times,serif" font-size="14.00">prev: 0x56220a5f9e00</text>
</g>
<!-- node_0_sort&#45;&gt;node_1_sort -->
<g id="edge1" class="edge">
<title>node_0_sort&#45;&gt;node_1_sort</title>
<path fill="none" stroke="black" d="M286.78,-115.36C321.84,-111.3 361.01,-105.74 396.8,-99.77"/>
<polygon fill="black" stroke="black" points="397.53,-103.2 406.8,-98.07 396.36,-96.29 397.53,-103.2"/>
</g>
<!-- node_6_sort -->
<g id="node7" class="node">
<title>node_6_sort</title>
<path fill="#a8df8e" stroke="black" d="M1854,-72C1854,-72 2045,-72 2045,-72 2051,-72 2057,-78 2057,-84 2057,-84 2057,-152 2057,-152 2057,-158 2051,-164 2045,-164 2045,-164 1854,-164 1854,-164 1848,-164 1842,-158 1842,-152 1842,-152 1842,-84 1842,-84 1842,-78 1848,-72 1854,-72"/>
<text text-anchor="middle" x="1949.5" y="-148.8" font-family="Times,serif" font-size="14.00">address = 0x56220a5f9dd0</text>
<polyline fill="none" stroke="black" points="1842,-141 2057,-141 "/>
<text text-anchor="middle" x="1949.5" y="-125.8" font-family="Times,serif" font-size="14.00">next: 0x56220a5f9e00</text>
<polyline fill="none" stroke="black" points="1842,-118 2057,-118 "/>
<text text-anchor="middle" x="1949.5" y="-102.8" font-family="Times,serif" font-size="14.00">data: 555</text>
<polyline fill="none" stroke="black" points="1842,-95 2057,-95 "/>
<text text-anchor="middle" x="1949.5" y="-79.8" font-family="Times,serif" font-size="14.00">prev: 0x56220a5f9db8</text>
</g>
<!-- node_0_sort&#45;&gt;node_6_sort -->
<g id="edge14" class="edge">
<title>node_0_sort&#45;&gt;node_6_sort</title>
<path fill="none" stroke="red" d="M286.55,-137.6C322.16,-143.35 362.18,-148.92 399,-152 576.84,-166.87 622.04,-157 800.5,-157 800.5,-157 800.5,-157 1376.5,-157 1554.96,-157 1600.52,-170.64 1778,-152 1795.48,-150.16 1813.82,-147.41 1831.74,-144.24"/>
<polygon fill="red" stroke="red" points="1832.42,-147.67 1841.64,-142.44 1831.17,-140.78 1832.42,-147.67"/>
</g>
<!-- node_1_sort&#45;&gt;node_0_sort -->
<g id="edge13" class="edge">
<title>node_1_sort&#45;&gt;node_0_sort</title>
<path fill="none" stroke="red" d="M406.8,-72.69C371.71,-76.76 332.54,-82.32 296.77,-88.3"/>
<polygon fill="red" stroke="red" points="296.05,-84.87 286.78,-90 297.22,-91.77 296.05,-84.87"/>
</g>
<!-- node_2_sort -->
<g id="node3" class="node">
<title>node_2_sort</title>
<path fill="#a8df8e" stroke="black" d="M706,-24C706,-24 897,-24 897,-24 903,-24 909,-30 909,-36 909,-36 909,-104 909,-104 909,-110 903,-116 897,-116 897,-116 706,-116 706,-116 700,-116 694,-110 694,-104 694,-104 694,-36 694,-36 694,-30 700,-24 706,-24"/>
<text text-anchor="middle" x="801.5" y="-100.8" font-family="Times,serif" font-size="14.00">address = 0x56220a5f9d88</text>
<polyline fill="none" stroke="black" points="694,-93 909,-93 "/>
<text text-anchor="middle" x="801.5" y="-77.8" font-family="Times,serif" font-size="14.00">next: 0x56220a5f9da0</text>
<polyline fill="none" stroke="black" points="694,-70 909,-70 "/>
<text text-anchor="middle" x="801.5" y="-54.8" font-family="Times,serif" font-size="14.00">data: 222</text>
<polyline fill="none" stroke="black" points="694,-47 909,-47 "/>
<text text-anchor="middle" x="801.5" y="-31.8" font-family="Times,serif" font-size="14.00">prev: 0x56220a5f9c90</text>
</g>
<!-- node_1_sort&#45;&gt;node_2_sort -->
<g id="edge2" class="edge">
<title>node_1_sort&#45;&gt;node_2_sort</title>
<path fill="none" stroke="black" d="M622.03,-83.11C642.05,-83.55 663.08,-83.62 683.4,-83.31"/>
<polygon fill="black" stroke="black" points="683.69,-86.8 693.63,-83.12 683.56,-79.8 683.69,-86.8"/>
</g>
<!-- node_2_sort&#45;&gt;node_1_sort -->
<g id="edge12" class="edge">
<title>node_2_sort&#45;&gt;node_1_sort</title>
<path fill="none" stroke="red" d="M693.63,-56.88C673.6,-56.44 652.56,-56.38 632.25,-56.7"/>
<polygon fill="red" stroke="red" points="631.96,-53.2 622.03,-56.89 632.09,-60.2 631.96,-53.2"/>
</g>
<!-- node_3_sort -->
<g id="node4" class="node">
<title>node_3_sort</title>
<path fill="#a8df8e" stroke="black" d="M993.5,-24C993.5,-24 1183.5,-24 1183.5,-24 1189.5,-24 1195.5,-30 1195.5,-36 1195.5,-36 1195.5,-104 1195.5,-104 1195.5,-110 1189.5,-116 1183.5,-116 1183.5,-116 993.5,-116 993.5,-116 987.5,-116 981.5,-110 981.5,-104 981.5,-104 981.5,-36 981.5,-36 981.5,-30 987.5,-24 993.5,-24"/>
<text text-anchor="middle" x="1088.5" y="-100.8" font-family="Times,serif" font-size="14.00">address = 0x56220a5f9da0</text>
<polyline fill="none" stroke="black" points="981.5,-93 1195.5,-93 "/>
<text text-anchor="middle" x="1088.5" y="-77.8" font-family="Times,serif" font-size="14.00">next: 0x56220a5f9de8</text>
<polyline fill="none" stroke="black" points="981.5,-70 1195.5,-70 "/>
<text text-anchor="middle" x="1088.5" y="-54.8" font-family="Times,serif" font-size="14.00">data: 333</text>
<polyline fill="none" stroke="black" points="981.5,-47 1195.5,-47 "/>
<text text-anchor="middle" x="1088.5" y="-31.8" font-family="Times,serif" font-size="14.00">prev: 0x56220a5f9858</text>
</g>
<!-- node_2_sort&#45;&gt;node_3_sort -->
<g id="edge3" class="edge">
<title>node_2_sort&#45;&gt;node_3_sort</title>
<path fill="none" stroke="black" d="M909.03,-83.11C929.27,-83.56 950.56,-83.62 971.09,-83.3"/>
<polygon fill="black" stroke="black" points="971.17,-86.8 981.1,-83.11 971.04,-79.8 971.17,-86.8"/>
</g>
<!-- node_3_sort&#45;&gt;node_2_sort -->
<g id="edge11" class="edge">
<title>node_3_sort&#45;&gt;node_2_sort</title>
<path fill="none" stroke="red" d="M981.1,-56.89C960.86,-56.44 939.58,-56.38 919.04,-56.7"/>
<polygon fill="red" stroke="red" points="918.96,-53.2 909.03,-56.89 919.09,-60.2 918.96,-53.2"/>
</g>
<!-- node_4_sort -->
<g id="node5" class="node">
<title>node_4_sort</title>
<path fill="#a8df8e" stroke="black" d="M1280.5,-24C1280.5,-24 1470.5,-24 1470.5,-24 1476.5,-24 1482.5,-30 1482.5,-36 1482.5,-36 1482.5,-104 1482.5,-104 1482.5,-110 1476.5,-116 1470.5,-116 1470.5,-116 1280.5,-116 1280.5,-116 1274.5,-116 1268.5,-110 1268.5,-104 1268.5,-104 1268.5,-36 1268.5,-36 1268.5,-30 1274.5,-24 1280.5,-24"/>
<text text-anchor="middle" x="1375.5" y="-100.8" font-family="Times,serif" font-size="14.00">address = 0x56220a5f9de8</text>
<polyline fill="none" stroke="black" points="1268.5,-93 1482.5,-93 "/>
<text text-anchor="middle" x="1375.5" y="-77.8" font-family="Times,serif" font-size="14.00">next: 0x56220a5f9db8</text>
<polyline fill="none" stroke="black" points="1268.5,-70 1482.5,-70 "/>
<text text-anchor="middle" x="1375.5" y="-54.8" font-family="Times,serif" font-size="14.00">data: 400</text>
<polyline fill="none" stroke="black" points="1268.5,-47 1482.5,-47 "/>
<text text-anchor="middle" x="1375.5" y="-31.8" font-family="Times,serif" font-size="14.00">prev: 0x56220a5f9da0</text>
</g>
<!-- node_3_sort&#45;&gt;node_4_sort -->
<g id="edge4" class="edge">
<title>node_3_sort&#45;&gt;node_4_sort</title>
<path fill="none" stroke="black" d="M1195.62,-83.1C1216.02,-83.56 1237.49,-83.62 1258.19,-83.3"/>
<polygon fill="black" stroke="black" points="1258.36,-86.79 1268.29,-83.1 1258.22,-79.79 1258.36,-86.79"/>
</g>
<!-- node_4_sort&#45;&gt;node_3_sort -->
<g id="edge10" class="edge">
<title>node_4_sort&#45;&gt;node_3_sort</title>
<path fill="none" stroke="red" d="M1268.29,-56.9C1247.88,-56.44 1226.42,-56.38 1205.72,-56.71"/>
<polygon fill="red" stroke="red" points="1205.55,-53.21 1195.62,-56.9 1205.69,-60.21 1205.55,-53.21"/>
</g>
<!-- node_5_sort -->
<g id="node6" class="node">
<title>node_5_sort</title>
<path fill="#a8df8e" stroke="black" d="M1567,-24C1567,-24 1758,-24 1758,-24 1764,-24 1770,-30 1770,-36 1770,-36 1770,-104 1770,-104 1770,-110 1764,-116 1758,-116 1758,-116 1567,-116 1567,-116 1561,-116 1555,-110 1555,-104 1555,-104 1555,-36 1555,-36 1555,-30 1561,-24 1567,-24"/>
<text text-anchor="middle" x="1662.5" y="-100.8" font-family="Times,serif" font-size="14.00">address = 0x56220a5f9db8</text>
<polyline fill="none" stroke="black" points="1555,-93 1770,-93 "/>
<text text-anchor="middle" x="1662.5" y="-77.8" font-family="Times,serif" font-size="14.00">next: 0x56220a5f9dd0</text>
<polyline fill="none" stroke="black" points="1555,-70 1770,-70 "/>
<text text-anchor="middle" x="1662.5" y="-54.8" font-family="Times,serif" font-size="14.00">data: 443</text>
<polyline fill="none" stroke="black" points="1555,-47 1770,-47 "/>
<text text-anchor="middle" x="1662.5" y="-31.8" font-family="Times,serif" font-size="14.00">prev: 0x56220a5f9de8</text>
</g>
<!-- node_4_sort&#45;&gt;node_5_sort -->
<g id="edge5" class="edge">
<title>node_4_sort&#45;&gt;node_5_sort</title>
<path fill="none" stroke="black" d="M1482.62,-83.1C1502.89,-83.55 1524.2,-83.62 1544.78,-83.3"/>
<polygon fill="black" stroke="black" points="1544.88,-86.8 1554.81,-83.11 1544.75,-79.8 1544.88,-86.8"/>
</g>
<!-- node_5_sort&#45;&gt;node_4_sort -->
<g id="edge9" class="edge">
<title>node_5_sort&#45;&gt;node_4_sort</title>
<path fill="none" stroke="red" d="M1554.81,-56.89C1534.53,-56.44 1513.21,-56.38 1492.65,-56.71"/>
<polygon fill="red" stroke="red" points="1492.55,-53.21 1482.62,-56.9 1492.69,-60.21 1492.55,-53.21"/>
</g>
<!-- node_5_sort&#45;&gt;node_6_sort -->
<g id="edge6" class="edge">
<title>node_5_sort&#45;&gt;node_6_sort</title>
<path fill="none" stroke="black" d="M1770.03,-101.05C1790.14,-104.88 1811.27,-108.51 1831.67,-111.63"/>
<polygon fill="black" stroke="black" points="1831.22,-115.1 1841.63,-113.12 1832.25,-108.18 1831.22,-115.1"/>
</g>
<!-- node_6_sort&#45;&gt;node_0_sort -->
<g id="edge7" class="edge">
<title>node_6_sort&#45;&gt;node_0_sort</title>
<path fill="none" stroke="black" d="M1841.98,-152.33C1820.96,-158.04 1798.93,-163.31 1778,-167 1601.85,-198.1 1555.38,-195 1376.5,-195 800.5,-195 800.5,-195 800.5,-195 621.62,-195 576,-192.87 399,-167 365.53,-162.11 329.58,-154.88 296.69,-147.47"/>
<polygon fill="black" stroke="black" points="297.12,-143.98 286.59,-145.17 295.56,-150.81 297.12,-143.98"/>
</g>
<!-- node_6_sort&#45;&gt;node_5_sort -->
<g id="edge8" class="edge">
<title>node_6_sort&#45;&gt;node_5_sort</title>
<path fill="none" stroke="red" d="M1841.63,-86.88C1821.51,-83.05 1800.37,-79.43 1779.97,-76.32"/>
<polygon fill="red" stroke="red" points="1780.44,-72.85 1770.03,-74.83 1779.4,-79.77 1780.44,-72.85"/>
</g>
<!-- node_0_unsort -->
<g id="node8" class="node">
<title>node_0_unsort</title>
<path fill="#a8df8e" stroke="black" d="M84,-258.5C84,-258.5 275,-258.5 275,-258.5 281,-258.5 287,-264.5 287,-270.5 287,-270.5 287,-361.5 287,-361.5 287,-367.5 281,-373.5 275,-373.5 275,-373.5 84,-373.5 84,-373.5 78,-373.5 72,-367.5 72,-361.5 72,-361.5 72,-270.5 72,-270.5 72,-264.5 78,-258.5 84,-258.5"/>
<text text-anchor="middle" x="179.5" y="-358.3" font-family="Times,serif" font-size="14.00">index in node array: 0</text>
<polyline fill="none" stroke="black" points="72,-350.5 287,-350.5 "/>
<text text-anchor="middle" x="179.5" y="-335.3" font-family="Times,serif" font-size="14.00">address = 0x56220a5f9d70</text>
<polyline fill="none" stroke="black" points="72,-327.5 287,-327.5 "/>
<text text-anchor="middle" x="179.5" y="-312.3" font-family="Times,serif" font-size="14.00">next: 0x56220a5f9d88</text>
<polyline fill="none" stroke="black" points="72,-304.5 287,-304.5 "/>
<text text-anchor="middle" x="179.5" y="-289.3" font-family="Times,serif" font-size="14.00">data: 111</text>
<polyline fill="none" stroke="black" points="72,-281.5 287,-281.5 "/>
<text text-anchor="middle" x="179.5" y="-266.3" font-family="Times,serif" font-size="14.00">prev: 0x56220a5f9e00</text>
</g>
<!-- node_1_unsort -->
<g id="node9" class="node">
<title>node_1_unsort</title>
<path fill="#a8df8e" stroke="black" d="M419,-258.5C419,-258.5 610,-258.5 610,-258.5 616,-258.5 622,-264.5 622,-270.5 622,-270.5 622,-361.5 622,-361.5 622,-367.5 616,-373.5 610,-373.5 610,-373.5 419,-373.5 419,-373.5 413,-373.5 407,-367.5 407,-361.5 407,-361.5 407,-270.5 407,-270.5 407,-264.5 413,-258.5 419,-258.5"/>
<text text-anchor="middle" x="514.5" y="-358.3" font-family="Times,serif" font-size="14.00">index in node array: 1</text>
<polyline fill="none" stroke="black" points="407,-350.5 622,-350.5 "/>
<text text-anchor="middle" x="514.5" y="-335.3" font-family="Times,serif" font-size="14.00">address = 0x56220a5f9d88</text>
<polyline fill="none" stroke="black" points="407,-327.5 622,-327.5 "/>
<text text-anchor="middle" x="514.5" y="-312.3" font-family="Times,serif" font-size="14.00">next: 0x56220a5f9da0</text>
<polyline fill="none" stroke="black" points="407,-304.5 622,-304.5 "/>
<text text-anchor="middle" x="514.5" y="-289.3" font-family="Times,serif" font-size="14.00">data: 222</text>
<polyline fill="none" stroke="black" points="407,-281.5 622,-281.5 "/>
<text text-anchor="middle" x="514.5" y="-266.3" font-family="Times,serif" font-size="14.00">prev: 0x56220a5f9c90</text>
</g>
<!-- node_0_unsort&#45;&gt;node_1_unsort -->
<g id="edge15" class="edge">
<title>node_0_unsort&#45;&gt;node_1_unsort</title>
<path fill="none" stroke="black" d="M287.24,-316C322.04,-316 360.86,-316 396.38,-316"/>
<polygon fill="black" stroke="black" points="396.8,-319.5 406.8,-316 396.8,-312.5 396.8,-319.5"/>
</g>
<!-- node_2_unsort -->
<g id="node10" class="node">
<title>node_2_unsort</title>
<path fill="#a8df8e" stroke="black" d="M706.5,-258.5C706.5,-258.5 896.5,-258.5 896.5,-258.5 902.5,-258.5 908.5,-264.5 908.5,-270.5 908.5,-270.5 908.5,-361.5 908.5,-361.5 908.5,-367.5 902.5,-373.5 896.5,-373.5 896.5,-373.5 706.5,-373.5 706.5,-373.5 700.5,-373.5 694.5,-367.5 694.5,-361.5 694.5,-361.5 694.5,-270.5 694.5,-270.5 694.5,-264.5 700.5,-258.5 706.5,-258.5"/>
<text text-anchor="middle" x="801.5" y="-358.3" font-family="Times,serif" font-size="14.00">index in node array: 2</text>
<polyline fill="none" stroke="black" points="694.5,-350.5 908.5,-350.5 "/>
<text text-anchor="middle" x="801.5" y="-335.3" font-family="Times,serif" font-size="14.00">address = 0x56220a5f9da0</text>
<polyline fill="none" stroke="black" points="694.5,-327.5 908.5,-327.5 "/>
<text text-anchor="middle" x="801.5" y="-312.3" font-family="Times,serif" font-size="14.00">next: 0x56220a5f9de8</text>
<polyline fill="none" stroke="black" points="694.5,-304.5 908.5,-304.5 "/>
<text text-anchor="middle" x="801.5" y="-289.3" font-family="Times,serif" font-size="14.00">data: 333</text>
<polyline fill="none" stroke="black" points="694.5,-281.5 908.5,-281.5 "/>
<text text-anchor="middle" x="801.5" y="-266.3" font-family="Times,serif" font-size="14.00">prev: 0x56220a5f9858</text>
</g>
<!-- node_1_unsort&#45;&gt;node_2_unsort -->
<g id="edge16" class="edge">
<title>node_1_unsort&#45;&gt;node_2_unsort</title>
<path fill="none" stroke="black" d="M622.03,-316C642.27,-316 663.56,-316 684.09,-316"/>
<polygon fill="black" stroke="black" points="684.1,-319.5 694.1,-316 684.1,-312.5 684.1,-319.5"/>
</g>
<!-- node_3_unsort -->
<g id="node11" class="node">
<title>node_3_unsort</title>
<path fill="#a8df8e" stroke="black" d="M993,-258.5C993,-258.5 1184,-258.5 1184,-258.5 1190,-258.5 1196,-264.5 1196,-270.5 1196,-270.5 1196,-361.5 1196,-361.5 1196,-367.5 1190,-373.5 1184,-373.5 1184,-373.5 993,-373.5 993,-373.5 987,-373.5 981,-367.5 981,-361.5 981,-361.5 981,-270.5 981,-270.5 981,-264.5 987,-258.5 993,-258.5"/>
<text text-anchor="middle" x="1088.5" y="-358.3" font-family="Times,serif" font-size="14.00">index in node array: 3</text>
<polyline fill="none" stroke="black" points="981,-350.5 1196,-350.5 "/>
<text text-anchor="middle" x="1088.5" y="-335.3" font-family="Times,serif" font-size="14.00">address = 0x56220a5f9db8</text>
<polyline fill="none" stroke="black" points="981,-327.5 1196,-327.5 "/>
<text text-anchor="middle" x="1088.5" y="-312.3" font-family="Times,serif" font-size="14.00">next: 0x56220a5f9dd0</text>
<polyline fill="none" stroke="black" points="981,-304.5 1196,-304.5 "/>
<text text-anchor="middle" x="1088.5" y="-289.3" font-family="Times,serif" font-size="14.00">data: 443</text>
<polyline fill="none" stroke="black" points="981,-281.5 1196,-281.5 "/>
<text text-anchor="middle" x="1088.5" y="-266.3" font-family="Times,serif" font-size="14.00">prev: 0x56220a5f9de8</text>
</g>
<!-- node_2_unsort&#45;&gt;node_3_unsort -->
<g id="edge17" class="edge">
<title>node_2_unsort&#45;&gt;node_3_unsort</title>
<path fill="none" stroke="black" d="M908.62,-316C928.89,-316 950.2,-316 970.78,-316"/>
<polygon fill="black" stroke="black" points="970.81,-319.5 980.81,-316 970.81,-312.5 970.81,-319.5"/>
</g>
<!-- node_4_unsort -->
<g id="node12" class="node">
<title>node_4_unsort</title>
<path fill="#a8df8e" stroke="black" d="M1280,-258.5C1280,-258.5 1471,-258.5 1471,-258.5 1477,-258.5 1483,-264.5 1483,-270.5 1483,-270.5 1483,-361.5 1483,-361.5 1483,-367.5 1477,-373.5 1471,-373.5 1471,-373.5 1280,-373.5 1280,-373.5 1274,-373.5 1268,-367.5 1268,-361.5 1268,-361.5 1268,-270.5 1268,-270.5 1268,-264.5 1274,-258.5 1280,-258.5"/>
<text text-anchor="middle" x="1375.5" y="-358.3" font-family="Times,serif" font-size="14.00">index in node array: 4</text>
<polyline fill="none" stroke="black" points="1268,-350.5 1483,-350.5 "/>
<text text-anchor="middle" x="1375.5" y="-335.3" font-family="Times,serif" font-size="14.00">address = 0x56220a5f9dd0</text>
<polyline fill="none" stroke="black" points="1268,-327.5 1483,-327.5 "/>
<text text-anchor="middle" x="1375.5" y="-312.3" font-family="Times,serif" font-size="14.00">next: 0x56220a5f9e00</text>
<polyline fill="none" stroke="black" points="1268,-304.5 1483,-304.5 "/>
<text text-anchor="middle" x="1375.5" y="-289.3" font-family="Times,serif" font-size="14.00">data: 555</text>
<polyline fill="none" stroke="black" points="1268,-281.5 1483,-281.5 "/>
<text text-anchor="middle" x="1375.5" y="-266.3" font-family="Times,serif" font-size="14.00">prev: 0x56220a5f9db8</text>
</g>
<!-- node_3_unsort&#45;&gt;node_4_unsort -->
<g id="edge18" class="edge">
<title>node_3_unsort&#45;&gt;node_4_unsort</title>
<path fill="none" stroke="black" d="M1196.03,-316C1216.05,-316 1237.08,-316 1257.4,-316"/>
<polygon fill="black" stroke="black" points="1257.63,-319.5 1267.63,-316 1257.63,-312.5 1257.63,-319.5"/>
</g>
<!-- node_5_unsort -->
<g id="node13" class="node">
<title>node_5_unsort</title>
<path fill="#a8df8e" stroke="black" d="M1567.5,-258.5C1567.5,-258.5 1757.5,-258.5 1757.5,-258.5 1763.5,-258.5 1769.5,-264.5 1769.5,-270.5 1769.5,-270.5 1769.5,-361.5 1769.5,-361.5 1769.5,-367.5 1763.5,-373.5 1757.5,-373.5 1757.5,-373.5 1567.5,-373.5 1567.5,-373.5 1561.5,-373.5 1555.5,-367.5 1555.5,-361.5 1555.5,-361.5 1555.5,-270.5 1555.5,-270.5 1555.5,-264.5 1561.5,-258.5 1567.5,-258.5"/>
<text text-anchor="middle" x="1662.5" y="-358.3" font-family="Times,serif" font-size="14.00">index in node array: 5</text>
<polyline fill="none" stroke="black" points="1555.5,-350.5 1769.5,-350.5 "/>
<text text-anchor="middle" x="1662.5" y="-335.3" font-family="Times,serif" font-size="14.00">address = 0x56220a5f9de8</text>
<polyline fill="none" stroke="black" points="1555.5,-327.5 1769.5,-327.5 "/>
<text text-anchor="middle" x="1662.5" y="-312.3" font-family="Times,serif" font-size="14.00">next: 0x56220a5f9db8</text>
<polyline fill="none" stroke="black" points="1555.5,-304.5 1769.5,-304.5 "/>
<text text-anchor="middle" x="1662.5" y="-289.3" font-family="Times,serif" font-size="14.00">data: 400</text>
<polyline fill="none" stroke="black" points="1555.5,-281.5 1769.5,-281.5 "/>
<text text-anchor="middle" x="1662.5" y="-266.3" font-family="Times,serif" font-size="14.00">prev: 0x56220a5f9da0</text>
</g>
<!-- node_4_unsort&#45;&gt;node_5_unsort -->
<g id="edge19" class="edge">
<title>node_4_unsort&#45;&gt;node_5_unsort</title>
<path fill="none" stroke="black" d="M1483.03,-316C1503.27,-316 1524.56,-316 1545.09,-316"/>
<polygon fill="black" stroke="black" points="1545.1,-319.5 1555.1,-316 1545.1,-312.5 1545.1,-319.5"/>
</g>
<!-- node_6_unsort -->
<g id="node14" class="node">
<title>node_6_unsort</title>
<path fill="#b462ee" stroke="black" d="M1854.5,-258.5C1854.5,-258.5 2044.5,-258.5 2044.5,-258.5 2050.5,-258.5 2056.5,-264.5 2056.5,-270.5 2056.5,-270.5 2056.5,-361.5 2056.5,-361.5 2056.5,-367.5 2050.5,-373.5 2044.5,-373.5 2044.5,-373.5 1854.5,-373.5 1854.5,-373.5 1848.5,-373.5 1842.5,-367.5 1842.5,-361.5 1842.5,-361.5 1842.5,-270.5 1842.5,-270.5 1842.5,-264.5 1848.5,-258.5 1854.5,-258.5"/>
<text text-anchor="middle" x="1949.5" y="-358.3" font-family="Times,serif" font-size="14.00">index in node array: 6</text>
<polyline fill="none" stroke="black" points="1842.5,-350.5 2056.5,-350.5 "/>
<text text-anchor="middle" x="1949.5" y="-335.3" font-family="Times,serif" font-size="14.00">address = 0x56220a5f9e00</text>
<polyline fill="none" stroke="black" points="1842.5,-327.5 2056.5,-327.5 "/>
<text text-anchor="middle" x="1949.5" y="-312.3" font-family="Times,serif" font-size="14.00">next: 0x56220a5f9d70</text>
<polyline fill="none" stroke="black" points="1842.5,-304.5 2056.5,-304.5 "/>
<text text-anchor="middle" x="1949.5" y="-289.3" font-family="Times,serif" font-size="14.00">data: &#45;999</text>
<polyline fill="none" stroke="black" points="1842.5,-281.5 2056.5,-281.5 "/>
<text text-anchor="middle" x="1949.5" y="-266.3" font-family="Times,serif" font-size="14.00">prev: 0x56220a5f9dd0</text>
</g>
<!-- node_5_unsort&#45;&gt;node_6_unsort -->
<g id="edge20" class="edge">
<title>node_5_unsort&#45;&gt;node_6_unsort</title>
<path fill="none" stroke="black" d="M1769.62,-316C1790.02,-316 1811.49,-316 1832.19,-316"/>
<polygon fill="black" stroke="black" points="1832.29,-319.5 1842.29,-316 1832.29,-312.5 1832.29,-319.5"/>
</g>
<!-- head -->
<g id="node15" class="node">
<title>head</title>
<path fill="#febe5e" stroke="black" d="M419.5,-467C419.5,-467 609.5,-467 609.5,-467 615.5,-467 621.5,-473 621.5,-479 621.5,-479 621.5,-547 621.5,-547 621.5,-553 615.5,-559 609.5,-559 609.5,-559 419.5,-559 419.5,-559 413.5,-559 407.5,-553 407.5,-547 407.5,-547 407.5,-479 407.5,-479 407.5,-473 413.5,-467 419.5,-467"/>
<text text-anchor="middle" x="514.5" y="-543.8" font-family="Times,serif" font-size="14.00">address = 0x56220a5f9e00</text>
<polyline fill="none" stroke="black" points="407.5,-536 621.5,-536 "/>
<text text-anchor="middle" x="514.5" y="-520.8" font-family="Times,serif" font-size="14.00">next: 0x56220a5f9d70</text>
<polyline fill="none" stroke="black" points="407.5,-513 621.5,-513 "/>
<text text-anchor="middle" x="514.5" y="-497.8" font-family="Times,serif" font-size="14.00">data: &#45;999</text>
<polyline fill="none" stroke="black" points="407.5,-490 621.5,-490 "/>
<text text-anchor="middle" x="514.5" y="-474.8" font-family="Times,serif" font-size="14.00">prev: 0x56220a5f9dd0</text>
</g>
<!-- tail -->
<g id="node16" class="node">
<title>tail</title>
<path fill="#febe5e" stroke="black" d="M706,-467C706,-467 897,-467 897,-467 903,-467 909,-473 909,-479 909,-479 909,-547 909,-547 909,-553 903,-559 897,-559 897,-559 706,-559 706,-559 700,-559 694,-553 694,-547 694,-547 694,-479 694,-479 694,-473 700,-467 706,-467"/>
<text text-anchor="middle" x="801.5" y="-543.8" font-family="Times,serif" font-size="14.00">address = 0x56220a5f9dd0</text>
<polyline fill="none" stroke="black" points="694,-536 909,-536 "/>
<text text-anchor="middle" x="801.5" y="-520.8" font-family="Times,serif" font-size="14.00">next: 0x56220a5f9e00</text>
<polyline fill="none" stroke="black" points="694,-513 909,-513 "/>
<text text-anchor="middle" x="801.5" y="-497.8" font-family="Times,serif" font-size="14.00">data: 555</text>
<polyline fill="none" stroke="black" points="694,-490 909,-490 "/>
<text text-anchor="middle" x="801.5" y="-474.8" font-family="Times,serif" font-size="14.00">prev: 0x56220a5f9db8</text>
</g>
<!-- head&#45;&gt;tail -->
<g id="edge22" class="edge">
<title>head&#45;&gt;tail</title>
<path fill="none" stroke="#b2dcff" d="M621.62,-513C641.89,-513 663.2,-513 683.78,-513"/>
<polygon fill="#b2dcff" stroke="#b2dcff" points="683.81,-516.5 693.81,-513 683.81,-509.5 683.81,-516.5"/>
</g>
<!-- last_insert -->
<g id="node17" class="node">
<title>last_insert</title>
<path fill="#febe5e" stroke="black" d="M993.5,-467C993.5,-467 1183.5,-467 1183.5,-467 1189.5,-467 1195.5,-473 1195.5,-479 1195.5,-479 1195.5,-547 1195.5,-547 1195.5,-553 1189.5,-559 1183.5,-559 1183.5,-559 993.5,-559 993.5,-559 987.5,-559 981.5,-553 981.5,-547 981.5,-547 981.5,-479 981.5,-479 981.5,-473 987.5,-467 993.5,-467"/>
<text text-anchor="middle" x="1088.5" y="-543.8" font-family="Times,serif" font-size="14.00">address = 0x56220a5f9e00</text>
<polyline fill="none" stroke="black" points="981.5,-536 1195.5,-536 "/>
<text text-anchor="middle" x="1088.5" y="-520.8" font-family="Times,serif" font-size="14.00">next: 0x56220a5f9d70</text>
<polyline fill="none" stroke="black" points="981.5,-513 1195.5,-513 "/>
<text text-anchor="middle" x="1088.5" y="-497.8" font-family="Times,serif" font-size="14.00">data: &#45;999</text>
<polyline fill="none" stroke="black" points="981.5,-490 1195.5,-490 "/>
<text text-anchor="middle" x="1088.5" y="-474.8" font-family="Times,serif" font-size="14.00">prev: 0x56220a5f9dd0</text>
</g>
<!-- tail&#45;&gt;last_insert -->
<g id="edge23" class="edge">
<title>tail&#45;&gt;last_insert</title>
<path fill="none" stroke="#b2dcff" d="M909.03,-513C929.27,-513 950.56,-513 971.09,-513"/>
<polygon fill="#b2dcff" stroke="#b2dcff" points="971.1,-516.5 981.1,-513 971.1,-509.5 971.1,-516.5"/>
</g>
<!-- data -->
<g id="node18" class="node">
<title>data</title>
<path fill="#febe5e" stroke="black" d="M36,-471C36,-471 323,-471 323,-471 329,-471 335,-477 335,-483 335,-483 335,-543 335,-543 335,-549 329,-555 323,-555 323,-555 36,-555 36,-555 30,-555 24,-549 24,-543 24,-543 24,-483 24,-483 24,-477 30,-471 36,-471"/>
<text text-anchor="middle" x="179.5" y="-539.8" font-family="Times,serif" font-size="14.00">list pointer = 0x7ffcc4e0dc70</text>
<polyline fill="none" stroke="black" points="24,-532 335,-532 "/>
<text text-anchor="middle" x="179.5" y="-516.8" font-family="Times,serif" font-size="14.00">list capacity = 8</text>
<polyline fill="none" stroke="black" points="24,-509 335,-509 "/>
<text text-anchor="middle" x="179.5" y="-493.8" font-family="Times,serif" font-size="14.00">start: list node array = 0x56220a5f9d70 </text>
<text text-anchor="middle" x="179.5" y="-478.8" font-family="Times,serif" font-size="14.00">end: list node array = 0x56220a5f9e18</text>
</g>
<!-- data&#45;&gt;head -->
<g id="edge21" class="edge">
<title>data&#45;&gt;head</title>
<path fill="none" stroke="#b2dcff" d="M335.3,-513C356.08,-513 377.1,-513 397.06,-513"/>
<polygon fill="#b2dcff" stroke="#b2dcff" points="397.09,-516.5 407.09,-513 397.09,-509.5 397.09,-516.5"/>
</g>
</g>
</svg>
